<svg xmlns="http://www.w3.org/2000/svg" xmlns:xlink="http://www.w3.org/1999/xlink" xmlns:lucid="lucid" width="1005" height="623"><g transform="translate(1833 -903)" lucid:page-tab-id="0_0"><path d="M-1806.77 1007.85a6 6 0 0 1 6-6h166.1a6 6 0 0 1 6 6v97a6 6 0 0 1-6 6h-166.1a6 6 0 0 1-6-6z" stroke="#3a414a" stroke-width="2" fill="#fff"/><path d="M-1806.77 1042.86h178.1" stroke="#3a414a" stroke-width="2" fill="none"/><use xlink:href="#a" transform="matrix(1,0,0,1,-1798.7675257269066,1009.8511330022782) translate(-0.1575520833333286 20.517903645833336)"/><path d="M-1344.07 929.1a6 6 0 0 1 6-6h151.43a6 6 0 0 1 6 6v97a6 6 0 0 1-6 6h-151.43a6 6 0 0 1-6-6z" stroke="#3a414a" stroke-width="2" fill="#fff"/><path d="M-1344.07 964.1h163.43" stroke="#3a414a" stroke-width="2" fill="none"/><use xlink:href="#b" transform="matrix(1,0,0,1,-1336.071638711392,931.0999999999999) translate(20.849934895833336 20.517903645833336)"/><use xlink:href="#c" transform="matrix(1,0,0,1,-1332.071638711392,972.1058593749999) translate(0 33.517903645833336)"/><use xlink:href="#d" transform="matrix(1,0,0,1,-1332.071638711392,972.1058593749999) translate(19.486002604166668 33.517903645833336)"/><path d="M-1786.77 1214.77a6 6 0 0 1 6-6h126.1a6 6 0 0 1 6 6v70a6 6 0 0 1-6 6h-126.1a6 6 0 0 1-6-6z" stroke="#3a414a" stroke-width="2" fill="#fff"/><path d="M-1786.77 1249.77h138.1" stroke="#3a414a" stroke-width="2" fill="none"/><use xlink:href="#e" transform="matrix(1,0,0,1,-1778.7675257269066,1216.7666666666667) translate(37.573893229166664 20.517903645833336)"/><path d="M-986.8 1179.27a6 6 0 0 1 6-6h126.08a6 6 0 0 1 6 6v70a6 6 0 0 1-6 6h-126.1a6 6 0 0 1-6-6z" stroke="#3a414a" stroke-width="2" fill="#fff"/><path d="M-986.8 1214.27h138.08" stroke="#3a414a" stroke-width="2" fill="none"/><use xlink:href="#f" transform="matrix(1,0,0,1,-978.8107655928306,1181.2666666666667) translate(0.5393880208333357 20.517903645833336)"/><path d="M-1306.74 1179.27a6 6 0 0 1 6-6h256.76a6 6 0 0 1 6 6v98a6 6 0 0 1-6 6h-256.76a6 6 0 0 1-6-6z" stroke="#3a414a" stroke-width="2" fill="#fff"/><path d="M-1306.74 1214.27h268.76" stroke="#3a414a" stroke-width="2" fill="none"/><use xlink:href="#g" transform="matrix(1,0,0,1,-1298.7383053780586,1181.2666666666667) translate(104.32470703125 20.517903645833336)"/><use xlink:href="#c" transform="matrix(1,0,0,1,-1294.7383053780586,1222.2725260416667) translate(0 21.514973958333332)"/><use xlink:href="#h" transform="matrix(1,0,0,1,-1294.7383053780586,1222.2725260416667) translate(19.486002604166668 21.514973958333332)"/><use xlink:href="#i" transform="matrix(1,0,0,1,-1294.7383053780586,1222.2725260416667) translate(0 46.520833333333336)"/><use xlink:href="#j" transform="matrix(1,0,0,1,-1294.7383053780586,1222.2725260416667) translate(69.40690104166666 46.520833333333336)"/><use xlink:href="#k" transform="matrix(1,0,0,1,-1294.7383053780586,1222.2725260416667) translate(139.0458984375 46.520833333333336)"/><path d="M-1717.72 1206.77v-2.82m0-3.76v-5.64m0-3.76v-5.63m0-3.76v-5.63m0-3.75v-5.64m0-3.75v-6.02m0-4.25v-6.4m0-4.26v-6.4m0-4.26v-3.2" stroke="#3a414a" stroke-width="2" fill="none"/><path d="M-1716.74 1207.77h-1.95v-1.03h1.96z" stroke="#3a414a" stroke-width=".05" fill="#3a414a"/><path d="M-1717.72 1113.85l7.5 13h-15z" stroke="#3a414a" stroke-width="2" fill="#fff"/><path d="M-1617.3 1038.18h124.93a6 6 0 0 0 6-6V983.6a6 6 0 0 1 6-6h134.3" stroke="#3a414a" stroke-width="2" fill="none"/><path d="M-1608.35 1048.18l-17.32-10 17.32-10m-17.32 10h8.5" stroke="#3a414a" stroke-width="2" fill="none"/><path d="M-1345.07 978.58h-1.03v-1.96h1.03z" stroke="#3a414a" stroke-width=".05" fill="#3a414a"/><path d="M-1289.6 1034.1v62.58a6 6 0 0 0 6 6h78a6 6 0 0 1 6 6v53.2" stroke="#3a414a" stroke-width="2" fill="none"/><path d="M-1288.62 1034.13h-1.95v-1.03h1.95z" stroke="#3a414a" stroke-width=".05" fill="#3a414a"/><path d="M-1189.6 1152.95l-10 17.32-10-17.32m10 17.32v-8.5M-1178.64 1007.6h254.88a6 6 0 0 1 6 6v148.28" stroke="#3a414a" stroke-width="2" fill="none"/><path d="M-1178.62 1008.58h-1.02v-1.96h1.02z" stroke="#3a414a" stroke-width=".05" fill="#3a414a"/><path d="M-907.76 1152.95l-10 17.32-10-17.32m10 17.32v-8.5" stroke="#3a414a" stroke-width="2" fill="none"/><path d="M-1398.08 1409.43a6 6 0 0 1 6-6h126.1a6 6 0 0 1 6 6v70a6 6 0 0 1-6 6h-126.1a6 6 0 0 1-6-6z" stroke="#3a414a" stroke-width="2" fill="#fff"/><path d="M-1398.08 1444.44h138.1" stroke="#3a414a" stroke-width="2" fill="none"/><use xlink:href="#l" transform="matrix(1,0,0,1,-1390.0813788276746,1411.4333333333334) translate(8.733398437500007 20.517903645833336)"/><path d="M-1576.76 1171.77a6 6 0 0 1 6-6h126.1a6 6 0 0 1 6 6v113a6 6 0 0 1-6 6h-126.1a6 6 0 0 1-6-6z" stroke="#3a414a" stroke-width="2" fill="#fff"/><path d="M-1576.76 1206.77h138.1" stroke="#3a414a" stroke-width="2" fill="none"/><use xlink:href="#m" transform="matrix(1,0,0,1,-1568.7577856106234,1173.7666666666667) translate(7.744466145833343 20.517903645833336)"/><path d="M-1329.03 1392.05v-3.2m0-4.27v-6.4m0-4.28v-6.4m0-4.27v-6.4m0-4.28v-3.2l.07-.94.22-.9.36-.87m2.62-2.63l.87-.36.93-.22.94-.07h2.97m3.96 0h5.94m3.97 0h5.95m3.96 0h5.95m3.97 0h5.94m3.96 0h5.95m3.96 0h2.97l.94-.07.9-.22.88-.36m2.63-2.63l.36-.87.23-.9.07-.95v-3.13m0-4.16v-6.25m0-4.16v-6.25m0-4.18v-6.25m0-4.16v-6.24m0-4.17v-3.13M-1319.03 1383.1l-10 17.33-10-17.32m10 17.33v-8.5" stroke="#3a414a" stroke-width="2" fill="none"/><path d="M-1256.63 1285.3h-1.94v-1.03h1.94z" stroke="#3a414a" stroke-width=".05" fill="#3a414a"/><path d="M-1484.7 1322.52v115.9a6 6 0 0 0 6 6h78.62" stroke="#3a414a" stroke-width="2" fill="none"/><path d="M-1484.7 1293.18l-14.84 14.85 14.85 14.85 14.85-14.85z" stroke="#3a414a" stroke-width="2" fill="#3a414a"/><path d="M-1399.08 1445.4h-1.03v-1.94h1.02z" stroke="#3a414a" stroke-width=".05" fill="#3a414a"/><path d="M-1786.77 1409.43a6 6 0 0 1 6-6h126.1a6 6 0 0 1 6 6v70a6 6 0 0 1-6 6h-126.1a6 6 0 0 1-6-6z" stroke="#3a414a" stroke-width="2" fill="#fff"/><path d="M-1786.77 1444.44h138.1" stroke="#3a414a" stroke-width="2" fill="none"/><use xlink:href="#n" transform="matrix(1,0,0,1,-1778.7675257269066,1411.4333333333334) translate(30.933919270833332 20.517903645833336)"/><path d="M-1740.74 1392.05v-99.28M-1730.74 1383.1l-10 17.33-10-17.32m10 17.33v-8.5" stroke="#3a414a" stroke-width="2" fill="none"/><path d="M-1739.76 1292.8h-1.95v-1.03h1.94z" stroke="#3a414a" stroke-width=".05" fill="#3a414a"/><path d="M-1694.7 1401.43v-48.33a6 6 0 0 1 6-6h129.1a6 6 0 0 0 6-6v-18.58" stroke="#3a414a" stroke-width="2" fill="none"/><path d="M-1693.73 1402.43h-1.95v-1.02h1.95z" stroke="#3a414a" stroke-width=".05" fill="#3a414a"/><path d="M-1553.6 1293.18l-14.85 14.85 14.85 14.85 14.85-14.85z" stroke="#3a414a" stroke-width="2" fill="#3a414a"/><path d="M-1507.7 1154.38v-49.45a6 6 0 0 1 6-6h160.1a6 6 0 0 0 6-6v-58.83" stroke="#3a414a" stroke-width="2" fill="none"/><path d="M-1497.7 1145.45l-10 17.32-10-17.32m10 17.32v-8.5" stroke="#3a414a" stroke-width="2" fill="none"/><path d="M-1334.63 1034.13h-1.94v-1.03h1.94z" stroke="#3a414a" stroke-width=".05" fill="#3a414a"/><defs><path d="M174-520v-126l944-476v196L406-588v12l712 338v194" id="o"/><path d="M600 0L52-1490h200c166 485 304 806 458 1336 156-533 285-846 449-1336h202L819 0H600" id="p"/><path d="M158 0v-1118h180V0H158zm91-1301c-68 0-125-53-125-119s57-119 125-119c69 0 126 53 126 119s-57 119-126 119" id="q"/><path d="M628 24c-324 0-524-230-524-574 0-343 198-582 503-582 237 0 487 146 487 559v75H286c9 234 145 362 343 362 132 0 231-58 273-172l174 48C1024-91 857 24 628 24zM287-650h624c-17-190-120-322-304-322-192 0-309 151-320 322" id="r"/><path d="M409 0L70-1118h191c89 329 165 560 243 925 75-353 154-601 240-925h192c85 325 161 564 235 922 77-354 157-598 244-922h191L1267 0h-179c-86-307-176-590-250-913C763-588 675-308 588 0H409" id="s"/><path d="M180 0v-1490h270l367 940c28 72 75 218 110 339 35-117 81-264 110-339l362-940h271V0h-187c2-448-5-837 7-1287-157 497-311 829-483 1287H842C666-458 514-784 354-1284c12 438 5 843 7 1284H180" id="t"/><path d="M613 24c-304 0-509-231-509-576 0-350 205-580 509-580 305 0 511 230 511 580 0 345-206 576-511 576zm0-161c226 0 329-195 329-415 0-222-103-419-329-419-223 0-326 196-326 419 0 220 103 415 326 415" id="u"/><path d="M577 24c-279 0-473-224-473-580 0-354 195-576 474-576 218 0 287 134 324 193h14v-551h180V0H922v-173h-20C865-111 790 24 577 24zm27-161c203 0 314-172 314-421 0-247-108-413-314-413-212 0-317 181-317 413 0 235 108 421 317 421" id="v"/><path d="M338-1490V0H158v-1490h180" id="w"/><path d="M1181-520L237-44v-194l712-338v-12L237-926v-196l944 476v126" id="x"/><g id="a"><use transform="matrix(0.010091145833333334,0,0,0.010091145833333334,0,0)" xlink:href="#o"/><use transform="matrix(0.010091145833333334,0,0,0.010091145833333334,13.673502604166668,0)" xlink:href="#o"/><use transform="matrix(0.010091145833333334,0,0,0.010091145833333334,27.347005208333336,0)" xlink:href="#p"/><use transform="matrix(0.010091145833333334,0,0,0.010091145833333334,41.605794270833336,0)" xlink:href="#q"/><use transform="matrix(0.010091145833333334,0,0,0.010091145833333334,46.61100260416667,0)" xlink:href="#r"/><use transform="matrix(0.010091145833333334,0,0,0.010091145833333334,58.286458333333336,0)" xlink:href="#s"/><use transform="matrix(0.010091145833333334,0,0,0.010091145833333334,75.19921875,0)" xlink:href="#t"/><use transform="matrix(0.010091145833333334,0,0,0.010091145833333334,93.86783854166667,0)" xlink:href="#u"/><use transform="matrix(0.010091145833333334,0,0,0.010091145833333334,106.259765625,0)" xlink:href="#v"/><use transform="matrix(0.010091145833333334,0,0,0.010091145833333334,118.9140625,0)" xlink:href="#r"/><use transform="matrix(0.010091145833333334,0,0,0.010091145833333334,130.962890625,0)" xlink:href="#w"/><use transform="matrix(0.010091145833333334,0,0,0.010091145833333334,135.96809895833334,0)" xlink:href="#x"/><use transform="matrix(0.010091145833333334,0,0,0.010091145833333334,149.6416015625,0)" xlink:href="#x"/></g><path d="M789 20c-398 0-667-293-667-764 0-473 273-766 655-766 315 0 558 198 612 487h-196c-61-191-204-311-415-311-262 0-471 207-471 590 0 380 208 588 482 588 249 0 420-165 425-427H828v-166h572v163c0 370-256 606-611 606" id="y"/><path d="M471 26C259 26 90-98 90-318c0-256 228-303 435-329 202-27 287-16 287-108 0-139-79-219-234-219-161 0-248 86-283 164l-173-57c86-203 278-265 451-265 150 0 419 46 419 395V0H815v-152h-12C765-73 660 26 471 26zm31-159c199 0 310-134 310-271v-155c-30 35-226 55-295 64-131 17-246 59-246 186 0 116 97 176 231 176" id="z"/><path d="M158 0v-1118h175l1 205c55-151 181-225 313-225 147 0 245 90 285 228 53-141 190-228 352-228 194 0 352 125 352 384V0h-181v-749c0-161-105-225-225-225-151 0-243 103-243 244V0H807v-767c0-124-93-207-219-207-131 0-250 92-250 270V0H158" id="A"/><path d="M180 0v-1490h190v1322h690V0H180" id="B"/><path d="M158 418v-1536h174v179h20c37-59 106-193 324-193 279 0 474 222 474 576 0 356-194 580-473 580-213 0-288-135-325-197h-14v591H158zm492-555c209 0 317-186 317-421 0-232-105-413-317-413-206 0-314 166-314 413 0 249 111 421 314 421" id="C"/><g id="b"><use transform="matrix(0.010091145833333334,0,0,0.010091145833333334,0,0)" xlink:href="#y"/><use transform="matrix(0.010091145833333334,0,0,0.010091145833333334,15.419270833333334,0)" xlink:href="#z"/><use transform="matrix(0.010091145833333334,0,0,0.010091145833333334,27.024088541666668,0)" xlink:href="#A"/><use transform="matrix(0.010091145833333334,0,0,0.010091145833333334,45.12760416666667,0)" xlink:href="#r"/><use transform="matrix(0.010091145833333334,0,0,0.010091145833333334,57.17643229166667,0)" xlink:href="#B"/><use transform="matrix(0.010091145833333334,0,0,0.010091145833333334,68.86197916666667,0)" xlink:href="#u"/><use transform="matrix(0.010091145833333334,0,0,0.010091145833333334,81.25390625,0)" xlink:href="#u"/><use transform="matrix(0.010091145833333334,0,0,0.010091145833333334,93.64583333333331,0)" xlink:href="#C"/></g><path d="M593-100v-404H195v-159h398v-403h169v403h398v159H762v404H593" id="D"/><use transform="matrix(0.010091145833333334,0,0,0.010091145833333334,0,0)" xlink:href="#D" id="c"/><path d="M158 0v-1118h174v172h12c41-113 157-188 290-188 26 0 70 2 91 3v181c-11-2-60-10-108-10-161 0-279 109-279 260V0H158" id="E"/><path d="M537 14c-226 0-379-139-379-422v-710h180v695c0 172 97 275 253 275 160 0 281-109 281-300v-670h181V0H879v-209C806-46 684 14 537 14" id="F"/><path d="M338-670V0H158v-1118h173l1 207c72-158 192-221 342-221 226 0 378 139 378 422V0H872v-695c0-172-96-275-252-275-161 0-282 109-282 300" id="G"/><path d="M218-607c0-325 108-727 258-974h175c-155 315-250 682-250 974 0 265 78 531 250 886H476C306-10 218-315 218-607" id="H"/><path d="M96 279C273-86 346-350 346-607c0-292-95-659-250-974h175c150 246 258 650 258 974 0 297-91 602-258 886H96" id="I"/><g id="d"><use transform="matrix(0.010091145833333334,0,0,0.010091145833333334,0,0)" xlink:href="#E"/><use transform="matrix(0.010091145833333334,0,0,0.010091145833333334,7.780273437500001,0)" xlink:href="#F"/><use transform="matrix(0.010091145833333334,0,0,0.010091145833333334,20.000651041666668,0)" xlink:href="#G"/><use transform="matrix(0.010091145833333334,0,0,0.010091145833333334,32.2109375,0)" xlink:href="#H"/><use transform="matrix(0.010091145833333334,0,0,0.010091145833333334,39.7490234375,0)" xlink:href="#I"/></g><g id="e"><use transform="matrix(0.010091145833333334,0,0,0.010091145833333334,0,0)" xlink:href="#p"/><use transform="matrix(0.010091145833333334,0,0,0.010091145833333334,14.2587890625,0)" xlink:href="#q"/><use transform="matrix(0.010091145833333334,0,0,0.010091145833333334,19.263997395833336,0)" xlink:href="#r"/><use transform="matrix(0.010091145833333334,0,0,0.010091145833333334,30.939453125,0)" xlink:href="#s"/></g><path d="M98-1322v-168h1126v168H757V0H567v-1322H98" id="J"/><path d="M180 0v-1490h528c311 0 458 177 458 395 0 191-114 278-244 313v14c139 9 302 137 302 371 0 225-148 397-499 397H180zm190-168h350c232 0 321-102 321-231 0-149-120-277-311-277H370v508zm0-668h328c160 0 286-101 286-255 0-129-87-231-280-231H370v486" id="K"/><g id="f"><use transform="matrix(0.010091145833333334,0,0,0.010091145833333334,0,0)" xlink:href="#J"/><use transform="matrix(0.010091145833333334,0,0,0.010091145833333334,11.725911458333334,0)" xlink:href="#r"/><use transform="matrix(0.010091145833333334,0,0,0.010091145833333334,23.9765625,0)" xlink:href="#z"/><use transform="matrix(0.010091145833333334,0,0,0.010091145833333334,35.581380208333336,0)" xlink:href="#A"/><use transform="matrix(0.010091145833333334,0,0,0.010091145833333334,53.684895833333336,0)" xlink:href="#K"/><use transform="matrix(0.010091145833333334,0,0,0.010091145833333334,67.20703125,0)" xlink:href="#F"/><use transform="matrix(0.010091145833333334,0,0,0.010091145833333334,79.42740885416667,0)" xlink:href="#q"/><use transform="matrix(0.010091145833333334,0,0,0.010091145833333334,84.4326171875,0)" xlink:href="#w"/><use transform="matrix(0.010091145833333334,0,0,0.010091145833333334,89.43782552083331,0)" xlink:href="#v"/><use transform="matrix(0.010091145833333334,0,0,0.010091145833333334,102.09212239583331,0)" xlink:href="#r"/><use transform="matrix(0.010091145833333334,0,0,0.010091145833333334,114.14095052083333,0)" xlink:href="#E"/></g><g id="g"><use transform="matrix(0.010091145833333334,0,0,0.010091145833333334,0,0)" xlink:href="#J"/><use transform="matrix(0.010091145833333334,0,0,0.010091145833333334,11.816731770833334,0)" xlink:href="#F"/><use transform="matrix(0.010091145833333334,0,0,0.010091145833333334,24.037109375,0)" xlink:href="#E"/><use transform="matrix(0.010091145833333334,0,0,0.010091145833333334,32.14029947916667,0)" xlink:href="#G"/></g><path d="M538 24C308 24 148-78 108-271l171-41c32 123 123 178 257 178 156 0 256-77 256-169 0-77-54-128-164-154l-186-44c-203-48-300-148-300-305 0-192 176-326 414-326 230 0 351 112 402 269l-163 42c-31-80-94-158-238-158-133 0-233 69-233 162 0 83 57 129 188 160l169 40c203 48 298 149 298 302 0 196-179 339-441 339" id="L"/><path d="M598-1118v154H368v674c0 100 37 144 132 144 23 0 62-6 92-12L629-6c-37 13-88 20-134 20-193 0-307-107-307-290v-688H20v-154h168v-266h180v266h230" id="M"/><path d="M226 279v-1860h398v153H398V126h226v153H226" id="N"/><path d="M52 0l541-1490h220L1361 0h-200l-149-416H398L254 0H52zm404-582h497c-103-290-145-390-251-756-108 377-145 460-246 756" id="O"/><path d="M613 24c-304 0-509-231-509-576 0-350 205-580 509-580 216 0 392 114 453 309l-173 49c-33-115-133-197-280-197-223 0-326 196-326 419 0 220 103 415 326 415 150 0 252-85 285-206l172 49C1010-95 832 24 613 24" id="P"/><path d="M123 279V126h226v-1554H123v-153h398V279H123" id="Q"/><path d="M128 359l88-567h206L266 359H128" id="R"/><g id="h"><use transform="matrix(0.010091145833333334,0,0,0.010091145833333334,0,0)" xlink:href="#E"/><use transform="matrix(0.010091145833333334,0,0,0.010091145833333334,7.780273437500001,0)" xlink:href="#F"/><use transform="matrix(0.010091145833333334,0,0,0.010091145833333334,20.000651041666668,0)" xlink:href="#G"/><use transform="matrix(0.010091145833333334,0,0,0.010091145833333334,30.798177083333336,0)" xlink:href="#J"/><use transform="matrix(0.010091145833333334,0,0,0.010091145833333334,42.61490885416667,0)" xlink:href="#F"/><use transform="matrix(0.010091145833333334,0,0,0.010091145833333334,54.83528645833334,0)" xlink:href="#E"/><use transform="matrix(0.010091145833333334,0,0,0.010091145833333334,62.93847656250001,0)" xlink:href="#G"/><use transform="matrix(0.010091145833333334,0,0,0.010091145833333334,75.14876302083334,0)" xlink:href="#H"/><use transform="matrix(0.010091145833333334,0,0,0.010091145833333334,82.68684895833334,0)" xlink:href="#B"/><use transform="matrix(0.010091145833333334,0,0,0.010091145833333334,94.37239583333334,0)" xlink:href="#q"/><use transform="matrix(0.010091145833333334,0,0,0.010091145833333334,99.37760416666667,0)" xlink:href="#L"/><use transform="matrix(0.010091145833333334,0,0,0.010091145833333334,110.2861328125,0)" xlink:href="#M"/><use transform="matrix(0.010091145833333334,0,0,0.010091145833333334,117.04720052083333,0)" xlink:href="#N"/><use transform="matrix(0.010091145833333334,0,0,0.010091145833333334,124.58528645833333,0)" xlink:href="#O"/><use transform="matrix(0.010091145833333334,0,0,0.010091145833333334,138.84407552083331,0)" xlink:href="#P"/><use transform="matrix(0.010091145833333334,0,0,0.010091145833333334,150.65071614583331,0)" xlink:href="#M"/><use transform="matrix(0.010091145833333334,0,0,0.010091145833333334,157.41178385416666,0)" xlink:href="#q"/><use transform="matrix(0.010091145833333334,0,0,0.010091145833333334,162.4169921875,0)" xlink:href="#u"/><use transform="matrix(0.010091145833333334,0,0,0.010091145833333334,174.80891927083334,0)" xlink:href="#G"/><use transform="matrix(0.010091145833333334,0,0,0.010091145833333334,187.01920572916669,0)" xlink:href="#Q"/><use transform="matrix(0.010091145833333334,0,0,0.010091145833333334,194.55729166666669,0)" xlink:href="#R"/></g><path d="M657 26c-323 0-524-166-541-416h195c15 169 171 246 346 246 202 0 356-106 356-265 5-203-294-238-475-293-239-73-380-191-380-389 0-252 224-419 512-419 294 0 499 171 508 396H992c-17-145-151-228-328-228-193 0-321 102-321 242 0 156 175 211 284 241l149 41c160 44 422 134 422 412 0 244-197 432-541 432" id="S"/><path d="M295 13c-75 0-135-60-135-135s60-135 135-135 135 60 135 135S370 13 295 13zm0-809c-75 0-135-60-135-135s60-135 135-135 135 60 135 135-60 135-135 135" id="T"/><g id="i"><use transform="matrix(0.010091145833333334,0,0,0.010091145833333334,0,0)" xlink:href="#S"/><use transform="matrix(0.010091145833333334,0,0,0.010091145833333334,13.259765625,0)" xlink:href="#M"/><use transform="matrix(0.010091145833333334,0,0,0.010091145833333334,20.121744791666668,0)" xlink:href="#z"/><use transform="matrix(0.010091145833333334,0,0,0.010091145833333334,31.726562500000004,0)" xlink:href="#M"/><use transform="matrix(0.010091145833333334,0,0,0.010091145833333334,38.285807291666664,0)" xlink:href="#r"/><use transform="matrix(0.010091145833333334,0,0,0.010091145833333334,50.1025390625,0)" xlink:href="#I"/><use transform="matrix(0.010091145833333334,0,0,0.010091145833333334,57.640625,0)" xlink:href="#T"/></g><g id="j"><use transform="matrix(0.010091145833333334,0,0,0.010091145833333334,0,0)" xlink:href="#H"/><use transform="matrix(0.010091145833333334,0,0,0.010091145833333334,7.5380859375,0)" xlink:href="#S"/><use transform="matrix(0.010091145833333334,0,0,0.010091145833333334,20.7978515625,0)" xlink:href="#M"/><use transform="matrix(0.010091145833333334,0,0,0.010091145833333334,27.659830729166664,0)" xlink:href="#z"/><use transform="matrix(0.010091145833333334,0,0,0.010091145833333334,39.2646484375,0)" xlink:href="#M"/><use transform="matrix(0.010091145833333334,0,0,0.010091145833333334,45.82389322916667,0)" xlink:href="#r"/><use transform="matrix(0.010091145833333334,0,0,0.010091145833333334,57.87272135416667,0)" xlink:href="#R"/></g><path d="M180 0v-1490h510c348 0 508 194 508 460 0 198-88 351-276 417L1256 0h-220L726-579c-117 2-238 0-356 1V0H180zm190-747h312c235 0 327-108 327-283 0-177-92-293-329-293H370v576" id="U"/><g id="k"><use transform="matrix(0.010091145833333334,0,0,0.010091145833333334,0,0)" xlink:href="#U"/><use transform="matrix(0.010091145833333334,0,0,0.010091145833333334,12.997395833333334,0)" xlink:href="#r"/><use transform="matrix(0.010091145833333334,0,0,0.010091145833333334,25.046223958333336,0)" xlink:href="#L"/><use transform="matrix(0.010091145833333334,0,0,0.010091145833333334,35.95475260416667,0)" xlink:href="#F"/><use transform="matrix(0.010091145833333334,0,0,0.010091145833333334,48.17513020833334,0)" xlink:href="#w"/><use transform="matrix(0.010091145833333334,0,0,0.010091145833333334,53.48307291666668,0)" xlink:href="#M"/><use transform="matrix(0.010091145833333334,0,0,0.010091145833333334,60.04231770833334,0)" xlink:href="#L"/><use transform="matrix(0.010091145833333334,0,0,0.010091145833333334,70.95084635416669,0)" xlink:href="#I"/></g><g id="l"><use transform="matrix(0.010091145833333334,0,0,0.010091145833333334,0,0)" xlink:href="#K"/><use transform="matrix(0.010091145833333334,0,0,0.010091145833333334,13.522135416666668,0)" xlink:href="#z"/><use transform="matrix(0.010091145833333334,0,0,0.010091145833333334,25.126953125,0)" xlink:href="#M"/><use transform="matrix(0.010091145833333334,0,0,0.010091145833333334,31.383463541666664,0)" xlink:href="#M"/><use transform="matrix(0.010091145833333334,0,0,0.010091145833333334,38.14453125,0)" xlink:href="#w"/><use transform="matrix(0.010091145833333334,0,0,0.010091145833333334,43.149739583333336,0)" xlink:href="#r"/><use transform="matrix(0.010091145833333334,0,0,0.010091145833333334,55.198567708333336,0)" xlink:href="#S"/><use transform="matrix(0.010091145833333334,0,0,0.010091145833333334,68.45833333333334,0)" xlink:href="#M"/><use transform="matrix(0.010091145833333334,0,0,0.010091145833333334,75.3203125,0)" xlink:href="#z"/><use transform="matrix(0.010091145833333334,0,0,0.010091145833333334,86.92513020833331,0)" xlink:href="#M"/><use transform="matrix(0.010091145833333334,0,0,0.010091145833333334,93.48437499999999,0)" xlink:href="#r"/></g><g id="m"><use transform="matrix(0.010091145833333334,0,0,0.010091145833333334,0,0)" xlink:href="#y"/><use transform="matrix(0.010091145833333334,0,0,0.010091145833333334,15.419270833333334,0)" xlink:href="#z"/><use transform="matrix(0.010091145833333334,0,0,0.010091145833333334,27.024088541666668,0)" xlink:href="#A"/><use transform="matrix(0.010091145833333334,0,0,0.010091145833333334,45.12760416666667,0)" xlink:href="#r"/><use transform="matrix(0.010091145833333334,0,0,0.010091145833333334,57.17643229166667,0)" xlink:href="#S"/><use transform="matrix(0.010091145833333334,0,0,0.010091145833333334,70.43619791666667,0)" xlink:href="#M"/><use transform="matrix(0.010091145833333334,0,0,0.010091145833333334,77.29817708333333,0)" xlink:href="#z"/><use transform="matrix(0.010091145833333334,0,0,0.010091145833333334,88.90299479166666,0)" xlink:href="#M"/><use transform="matrix(0.010091145833333334,0,0,0.010091145833333334,95.46223958333331,0)" xlink:href="#r"/></g><path d="M180 0v-1490h901v168H370v510h643v168H370V0H180" id="V"/><g id="n"><use transform="matrix(0.010091145833333334,0,0,0.010091145833333334,0,0)" xlink:href="#V"/><use transform="matrix(0.010091145833333334,0,0,0.010091145833333334,11.5947265625,0)" xlink:href="#E"/><use transform="matrix(0.010091145833333334,0,0,0.010091145833333334,19.375,0)" xlink:href="#z"/><use transform="matrix(0.010091145833333334,0,0,0.010091145833333334,30.979817708333336,0)" xlink:href="#A"/><use transform="matrix(0.010091145833333334,0,0,0.010091145833333334,49.083333333333336,0)" xlink:href="#r"/></g></defs></g></svg>