<svg xmlns="http://www.w3.org/2000/svg" xmlns:xlink="http://www.w3.org/1999/xlink" xmlns:lucid="lucid" width="1166" height="668"><g transform="translate(1339 -1912)" lucid:page-tab-id="0_0"><path d="M-1156.83 1971.07a8.12 8.12 0 0 0 7.76 5.73h88a6 6 0 0 1 6 6v568.67a6 6 0 0 1-6 6h-258a6 6 0 0 1-6-6V1956.8a6 6 0 0 1 6-6h150a8.12 8.12 0 0 1 7.77 5.74zm-168.24 5.73h170" stroke="#3a414a" stroke-width="2" fill="#fff"/><use xlink:href="#a" transform="matrix(1,0,0,1,-1317.0666666666666,1950.799999999999) translate(0 21.52777777777778)"/><path d="M-674 1945.6a10.4 10.4 0 0 0 9 5.2h175a6 6 0 0 1 6 6v594.67a6 6 0 0 1-6 6h-494a6 6 0 0 1-6-6V1930.8a6 6 0 0 1 6-6h292a10.4 10.4 0 0 1 9 5.2zm-316 5.2h319" stroke="#3a414a" stroke-width="2" fill="#fff"/><use xlink:href="#b" transform="matrix(1,0,0,1,-981.9982079700846,1924.799999999998) translate(0 21.52777777777778)"/><path d="M-938.98 2034.6a6 6 0 0 1 6-6h146.76a6 6 0 0 1 6 6v70a6 6 0 0 1-6 6h-146.76a6 6 0 0 1-6-6z" stroke="#3a414a" stroke-width="2" fill="#fff"/><path d="M-938.98 2069.6h158.76" stroke="#3a414a" stroke-width="2" fill="none"/><use xlink:href="#c" transform="matrix(1,0,0,1,-930.9830765900249,2036.6) translate(25.94352213541667 20.517903645833336)"/><path d="M-702.42 1984.3a6 6 0 0 1 6-6h146.76a6 6 0 0 1 6 6v70a6 6 0 0 1-6 6H-696.4a6 6 0 0 1-6-6z" stroke="#3a414a" stroke-width="2" fill="#fff"/><path d="M-702.42 2019.3h158.76" stroke="#3a414a" stroke-width="2" fill="none"/><use xlink:href="#d" transform="matrix(1,0,0,1,-694.4209276842782,1986.3018853994258) translate(47.316569010416664 20.517903645833336)"/><path d="M-692.95 2237.6a6 6 0 0 1 6-6h146.77a6 6 0 0 1 6 6v70a6 6 0 0 1-6 6h-146.77a6 6 0 0 1-6-6z" stroke="#3a414a" stroke-width="2" fill="#fff"/><path d="M-692.95 2272.62h158.77" stroke="#3a414a" stroke-width="2" fill="none"/><use xlink:href="#e" transform="matrix(1,0,0,1,-684.9473253502663,2239.613675935232) translate(46.90283203125 20.517903645833336)"/><path d="M-953.4 2339.3a6 6 0 0 1 6-6h146.78a6 6 0 0 1 6 6v70a6 6 0 0 1-6 6H-947.4a6 6 0 0 1-6-6z" stroke="#3a414a" stroke-width="2" fill="#fff"/><path d="M-953.4 2374.3h158.78" stroke="#3a414a" stroke-width="2" fill="none"/><use xlink:href="#f" transform="matrix(1,0,0,1,-945.3900725984915,2341.29401853713) translate(41.14583333333333 20.517903645833336)"/><path d="M-1264.98 2455.9a6 6 0 0 1 6-6h146.76a6 6 0 0 1 6 6v70a6 6 0 0 1-6 6h-146.76a6 6 0 0 1-6-6z" stroke="#3a414a" stroke-width="2" fill="#fff"/><path d="M-1264.98 2490.9h158.76" stroke="#3a414a" stroke-width="2" fill="none"/><use xlink:href="#g" transform="matrix(1,0,0,1,-1256.9830765900251,2457.901100068992) translate(-1.6608072916666572 20.517903645833336)"/><path d="M-1074.47 2318.75h38.67a6 6 0 0 1 6 6v61.68a6 6 0 0 0 6 6h68.4" stroke="#3a414a" stroke-width="2" fill="none"/><path d="M-1103.8 2318.75l14.85 14.85 14.85-14.85-14.85-14.85z" stroke="#3a414a" stroke-width="2" fill="#3a414a"/><path d="M-954.4 2393.4h-1.02v-1.95h1.03z" stroke="#3a414a" stroke-width=".05" fill="#3a414a"/><path d="M-1258.98 2034.6a6 6 0 0 1 6-6h146.76a6 6 0 0 1 6 6v70a6 6 0 0 1-6 6h-146.76a6 6 0 0 1-6-6z" stroke="#3a414a" stroke-width="2" fill="#fff"/><path d="M-1258.98 2069.6h158.76" stroke="#3a414a" stroke-width="2" fill="none"/><use xlink:href="#h" transform="matrix(1,0,0,1,-1250.9830765900251,2036.6) translate(29.535970052083336 20.517903645833336)"/><path d="M-1264.98 2265.6a6 6 0 0 1 6-6h146.76a6 6 0 0 1 6 6v70a6 6 0 0 1-6 6h-146.76a6 6 0 0 1-6-6z" stroke="#3a414a" stroke-width="2" fill="#fff"/><path d="M-1264.98 2300.62h158.76" stroke="#3a414a" stroke-width="2" fill="none"/><use xlink:href="#i" transform="matrix(1,0,0,1,-1256.9830765900251,2267.6136759352316) translate(16.271158854166657 20.517903645833336)"/><path d="M-1068.47 2087.2h127.5" stroke="#3a414a" stroke-width="2" fill="none"/><path d="M-1097.8 2087.2l14.85 14.85 14.85-14.85-14.85-14.85z" stroke="#3a414a" stroke-width="2" fill="#3a414a"/><path d="M-939.98 2088.18H-941v-1.95h1.02z" stroke="#3a414a" stroke-width=".05" fill="#3a414a"/><path d="M-799.4 2455.9a6 6 0 0 1 6-6h146.78a6 6 0 0 1 6 6v70a6 6 0 0 1-6 6H-793.4a6 6 0 0 1-6-6z" stroke="#3a414a" stroke-width="2" fill="#fff"/><path d="M-799.4 2490.9h158.78" stroke="#3a414a" stroke-width="2" fill="none"/><use xlink:href="#j" transform="matrix(1,0,0,1,-791.3900725984915,2457.901100068992) translate(44.54150390625 20.517903645833336)"/><path d="M-1074.47 2504.7h273.08" stroke="#3a414a" stroke-width="2" fill="none"/><path d="M-1103.8 2504.7l14.85 14.85 14.85-14.85-14.85-14.85z" stroke="#3a414a" stroke-width="2" fill="#3a414a"/><path d="M-800.4 2505.68h-1.02v-1.95h1.03z" stroke="#3a414a" stroke-width=".05" fill="#3a414a"/><path d="M-827.23 2142.35v22.76a6 6 0 0 0 6 6h201.67a6 6 0 0 1 6 6v52.5" stroke="#3a414a" stroke-width="2" fill="none"/><path d="M-827.23 2113l-14.85 14.86 14.85 14.85 14.85-14.84z" stroke="#3a414a" stroke-width="2" fill="#3a414a"/><path d="M-612.6 2230.6h-1.94v-1h1.95z" stroke="#3a414a" stroke-width=".05" fill="#3a414a"/><path d="M-953.4 2203.6a6 6 0 0 1 6-6h146.78a6 6 0 0 1 6 6v70a6 6 0 0 1-6 6H-947.4a6 6 0 0 1-6-6z" stroke="#3a414a" stroke-width="2" fill="#fff"/><path d="M-953.4 2238.62h158.78" stroke="#3a414a" stroke-width="2" fill="none"/><use xlink:href="#k" transform="matrix(1,0,0,1,-945.3900725984915,2205.6136759352316) translate(22.436848958333336 20.517903645833336)"/><path d="M-874 2142.35v53.26" stroke="#3a414a" stroke-width="2" fill="none"/><path d="M-874 2113l-14.86 14.86 14.85 14.85 14.84-14.84z" stroke="#3a414a" stroke-width="2" fill="#3a414a"/><path d="M-873.03 2196.6h-1.95v-1h1.95z" stroke="#3a414a" stroke-width=".05" fill="#3a414a"/><path d="M-874 2311.36v19.93" stroke="#3a414a" stroke-width="2" fill="none"/><path d="M-874 2282.03l-14.86 14.85 14.85 14.85 14.84-14.85z" stroke="#3a414a" stroke-width="2" fill="#fff"/><path d="M-873.03 2332.3h-1.95v-1.03h1.95z" stroke="#3a414a" stroke-width=".05" fill="#3a414a"/><path d="M-713.8 1997.1h-21.52a6 6 0 0 0-6 6v39.3a6 6 0 0 1-6 6h-30.9" stroke="#3a414a" stroke-width="2" fill="none"/><path d="M-722.74 1987.1l17.32 10-17.32 10m17.32-10h-8.5" stroke="#3a414a" stroke-width="2" fill="none"/><path d="M-778.2 2049.38h-1.02v-1.96h1.03z" stroke="#3a414a" stroke-width=".05" fill="#3a414a"/><path d="M-283.96 1970.2a7.83 7.83 0 0 0 7.56 5.8h79a6 6 0 0 1 6 6v569.47a6 6 0 0 1-6 6h-234a6 6 0 0 1-6-6V1956a6 6 0 0 1 6-6h136a7.83 7.83 0 0 1 7.56 5.8zm-153.44 5.8h155" stroke="#3a414a" stroke-width="2" fill="#fff"/><use xlink:href="#l" transform="matrix(1,0,0,1,-429.3999999999994,1949.9999999999968) translate(0 21.52777777777778)"/><path d="M-393.78 2148.6a6 6 0 0 1 6-6h146.76a6 6 0 0 1 6 6v70a6 6 0 0 1-6 6h-146.76a6 6 0 0 1-6-6z" stroke="#3a414a" stroke-width="2" fill="#fff"/><path d="M-393.78 2183.6h158.76" stroke="#3a414a" stroke-width="2" fill="none"/><use xlink:href="#m" transform="matrix(1,0,0,1,-385.7830765900244,2150.6) translate(0.7762044270833428 20.517903645833336)"/><path d="M-314.4 2425.6v77.6a6 6 0 0 1-6 6h-308.84" stroke="#3a414a" stroke-width="2" fill="none"/><path d="M-313.43 2425.64h-1.94v-1.03h1.94z" stroke="#3a414a" stroke-width=".05" fill="#3a414a"/><path d="M-620.3 2519.2l-17.32-10 17.32-10m-17.32 10h8.5M-314.4 2140.6v-45a6 6 0 0 0-6-6h-448.43" stroke="#3a414a" stroke-width="2" fill="none"/><path d="M-313.43 2141.6h-1.94v-1.03h1.94z" stroke="#3a414a" stroke-width=".05" fill="#3a414a"/><path d="M-759.9 2099.6l-17.32-10 17.32-10m-17.32 10h8.5" stroke="#3a414a" stroke-width="2" fill="none"/><path d="M-393.78 2347.6a6 6 0 0 1 6-6h146.76a6 6 0 0 1 6 6v70a6 6 0 0 1-6 6h-146.76a6 6 0 0 1-6-6z" stroke="#3a414a" stroke-width="2" fill="#fff"/><path d="M-393.78 2382.62h158.76" stroke="#3a414a" stroke-width="2" fill="none"/><use xlink:href="#n" transform="matrix(1,0,0,1,-385.7830765900244,2349.6136759352316) translate(19.37418619791668 20.517903645833336)"/><path d="M-314.4 2339.6v-83.25" stroke="#3a414a" stroke-width="2" fill="none"/><path d="M-313.43 2340.6h-1.94v-1h1.94z" stroke="#3a414a" stroke-width=".05" fill="#3a414a"/><path d="M-314.4 2227l-14.85 14.86 14.85 14.85 14.85-14.84z" stroke="#3a414a" stroke-width="2" fill="#fff"/><defs><path d="M577 24c-279 0-473-224-473-580 0-354 195-576 474-576 218 0 287 134 324 193h14v-551h180V0H922v-173h-20C865-111 790 24 577 24zm27-161c203 0 314-172 314-421 0-247-108-413-314-413-212 0-317 181-317 413 0 235 108 421 317 421" id="o"/><path d="M471 26C259 26 90-98 90-318c0-256 228-303 435-329 202-27 287-16 287-108 0-139-79-219-234-219-161 0-248 86-283 164l-173-57c86-203 278-265 451-265 150 0 419 46 419 395V0H815v-152h-12C765-73 660 26 471 26zm31-159c199 0 310-134 310-271v-155c-30 35-226 55-295 64-131 17-246 59-246 186 0 116 97 176 231 176" id="p"/><path d="M598-1118v154H368v674c0 100 37 144 132 144 23 0 62-6 92-12L629-6c-37 13-88 20-134 20-193 0-307-107-307-290v-688H20v-154h168v-266h180v266h230" id="q"/><path d="M677 24c-213 0-288-135-325-197h-20V0H158v-1490h180v551h14c37-59 106-193 324-193 279 0 474 222 474 576 0 356-194 580-473 580zm-27-161c209 0 317-186 317-421 0-232-105-413-317-413-206 0-314 166-314 413 0 249 111 421 314 421" id="r"/><path d="M538 24C308 24 148-78 108-271l171-41c32 123 123 178 257 178 156 0 256-77 256-169 0-77-54-128-164-154l-186-44c-203-48-300-148-300-305 0-192 176-326 414-326 230 0 351 112 402 269l-163 42c-31-80-94-158-238-158-133 0-233 69-233 162 0 83 57 129 188 160l169 40c203 48 298 149 298 302 0 196-179 339-441 339" id="s"/><path d="M628 24c-324 0-524-230-524-574 0-343 198-582 503-582 237 0 487 146 487 559v75H286c9 234 145 362 343 362 132 0 231-58 273-172l174 48C1024-91 857 24 628 24zM287-650h624c-17-190-120-322-304-322-192 0-309 151-320 322" id="t"/><g id="a"><use transform="matrix(0.010850694444444444,0,0,0.010850694444444444,0,0)" xlink:href="#o"/><use transform="matrix(0.010850694444444444,0,0,0.010850694444444444,13.606770833333332,0)" xlink:href="#p"/><use transform="matrix(0.010850694444444444,0,0,0.010850694444444444,26.085069444444443,0)" xlink:href="#q"/><use transform="matrix(0.010850694444444444,0,0,0.010850694444444444,33.463541666666664,0)" xlink:href="#p"/><use transform="matrix(0.010850694444444444,0,0,0.010850694444444444,45.94184027777778,0)" xlink:href="#r"/><use transform="matrix(0.010850694444444444,0,0,0.010850694444444444,59.765624999999986,0)" xlink:href="#p"/><use transform="matrix(0.010850694444444444,0,0,0.010850694444444444,72.2439236111111,0)" xlink:href="#s"/><use transform="matrix(0.010850694444444444,0,0,0.010850694444444444,83.97352430555554,0)" xlink:href="#t"/></g><path d="M613 24c-304 0-509-231-509-576 0-350 205-580 509-580 305 0 511 230 511 580 0 345-206 576-511 576zm0-161c226 0 329-195 329-415 0-222-103-419-329-419-223 0-326 196-326 419 0 220 103 415 326 415" id="u"/><path d="M158 0v-1118h175l1 205c55-151 181-225 313-225 147 0 245 90 285 228 53-141 190-228 352-228 194 0 352 125 352 384V0h-181v-749c0-161-105-225-225-225-151 0-243 103-243 244V0H807v-767c0-124-93-207-219-207-131 0-250 92-250 270V0H158" id="v"/><path d="M158 0v-1118h180V0H158zm91-1301c-68 0-125-53-125-119s57-119 125-119c69 0 126 53 126 119s-57 119-126 119" id="w"/><path d="M338-670V0H158v-1118h173l1 207c72-158 192-221 342-221 226 0 378 139 378 422V0H872v-695c0-172-96-275-252-275-161 0-282 109-282 300" id="x"/><g id="b"><use transform="matrix(0.010850694444444444,0,0,0.010850694444444444,0,0)" xlink:href="#o"/><use transform="matrix(0.010850694444444444,0,0,0.010850694444444444,13.606770833333332,0)" xlink:href="#u"/><use transform="matrix(0.010850694444444444,0,0,0.010850694444444444,26.931423611111104,0)" xlink:href="#v"/><use transform="matrix(0.010850694444444444,0,0,0.010850694444444444,46.39756944444444,0)" xlink:href="#p"/><use transform="matrix(0.010850694444444444,0,0,0.010850694444444444,58.87586805555555,0)" xlink:href="#w"/><use transform="matrix(0.010850694444444444,0,0,0.010850694444444444,64.2578125,0)" xlink:href="#x"/></g><path d="M180 0v-1490h510c348 0 508 209 508 474 0 266-160 477-507 477H370V0H180zm190-706h312c236 0 327-133 327-310 0-176-91-307-329-307H370v617" id="y"/><path d="M158 0v-1490h180v865h22l478-493h223L593-638 1096 0H865L456-523 338-412V0H158" id="z"/><g id="c"><use transform="matrix(0.010091145833333334,0,0,0.010091145833333334,0,0)" xlink:href="#y"/><use transform="matrix(0.010091145833333334,0,0,0.010091145833333334,13.088216145833334,0)" xlink:href="#u"/><use transform="matrix(0.010091145833333334,0,0,0.010091145833333334,25.480143229166668,0)" xlink:href="#z"/><use transform="matrix(0.010091145833333334,0,0,0.010091145833333334,36.3583984375,0)" xlink:href="#t"/><use transform="matrix(0.010091145833333334,0,0,0.010091145833333334,48.4072265625,0)" xlink:href="#v"/><use transform="matrix(0.010091145833333334,0,0,0.010091145833333334,66.5107421875,0)" xlink:href="#u"/><use transform="matrix(0.010091145833333334,0,0,0.010091145833333334,78.90266927083333,0)" xlink:href="#x"/></g><path d="M98-1322v-168h1126v168H757V0H567v-1322H98" id="A"/><path d="M140 405l46-156c120 36 205 19 263-150l32-93L54-1118h197c107 313 237 620 324 950 87-331 219-637 326-950h196L606 167c-68 178-176 259-334 259-64 0-113-12-132-21" id="B"/><path d="M158 418v-1536h174v179h20c37-59 106-193 324-193 279 0 474 222 474 576 0 356-194 580-473 580-213 0-288-135-325-197h-14v591H158zm492-555c209 0 317-186 317-421 0-232-105-413-317-413-206 0-314 166-314 413 0 249 111 421 314 421" id="C"/><g id="d"><use transform="matrix(0.010091145833333334,0,0,0.010091145833333334,0,0)" xlink:href="#A"/><use transform="matrix(0.010091145833333334,0,0,0.010091145833333334,12.048828125,0)" xlink:href="#B"/><use transform="matrix(0.010091145833333334,0,0,0.010091145833333334,23.66373697916667,0)" xlink:href="#C"/><use transform="matrix(0.010091145833333334,0,0,0.010091145833333334,36.31803385416667,0)" xlink:href="#t"/></g><path d="M657 26c-323 0-524-166-541-416h195c15 169 171 246 346 246 202 0 356-106 356-265 5-203-294-238-475-293-239-73-380-191-380-389 0-252 224-419 512-419 294 0 499 171 508 396H992c-17-145-151-228-328-228-193 0-321 102-321 242 0 156 175 211 284 241l149 41c160 44 422 134 422 412 0 244-197 432-541 432" id="D"/><g id="e"><use transform="matrix(0.010091145833333334,0,0,0.010091145833333334,0,0)" xlink:href="#D"/><use transform="matrix(0.010091145833333334,0,0,0.010091145833333334,13.259765625,0)" xlink:href="#q"/><use transform="matrix(0.010091145833333334,0,0,0.010091145833333334,20.121744791666668,0)" xlink:href="#p"/><use transform="matrix(0.010091145833333334,0,0,0.010091145833333334,31.726562500000004,0)" xlink:href="#q"/><use transform="matrix(0.010091145833333334,0,0,0.010091145833333334,38.285807291666664,0)" xlink:href="#s"/></g><path d="M52 0l541-1490h220L1361 0h-200l-149-416H398L254 0H52zm404-582h497c-103-290-145-390-251-756-108 377-145 460-246 756" id="E"/><path d="M338-1490V0H158v-1490h180" id="F"/><g id="f"><use transform="matrix(0.010091145833333334,0,0,0.010091145833333334,0,0)" xlink:href="#E"/><use transform="matrix(0.010091145833333334,0,0,0.010091145833333334,14.2587890625,0)" xlink:href="#r"/><use transform="matrix(0.010091145833333334,0,0,0.010091145833333334,26.9130859375,0)" xlink:href="#w"/><use transform="matrix(0.010091145833333334,0,0,0.010091145833333334,31.918294270833336,0)" xlink:href="#F"/><use transform="matrix(0.010091145833333334,0,0,0.010091145833333334,36.92350260416667,0)" xlink:href="#w"/><use transform="matrix(0.010091145833333334,0,0,0.010091145833333334,41.928710937500014,0)" xlink:href="#q"/><use transform="matrix(0.010091145833333334,0,0,0.010091145833333334,49.09342447916668,0)" xlink:href="#B"/></g><path d="M180 0v-1490h270l367 940c28 72 75 218 110 339 35-117 81-264 110-339l362-940h271V0h-187c2-448-5-837 7-1287-157 497-311 829-483 1287H842C666-458 514-784 354-1284c12 438 5 843 7 1284H180" id="G"/><path d="M481 0L54-1118h197c107 314 236 620 325 951 87-331 217-637 324-951h197L670 0H481" id="H"/><path d="M645 0H180v-1490h484c435 0 692 280 692 742 0 466-257 748-711 748zM370-168h263c363 0 539-218 539-580 0-358-176-574-521-574H370v1154" id="I"/><g id="g"><use transform="matrix(0.010091145833333334,0,0,0.010091145833333334,0,0)" xlink:href="#G"/><use transform="matrix(0.010091145833333334,0,0,0.010091145833333334,18.668619791666668,0)" xlink:href="#u"/><use transform="matrix(0.010091145833333334,0,0,0.010091145833333334,30.65690104166667,0)" xlink:href="#H"/><use transform="matrix(0.010091145833333334,0,0,0.010091145833333334,41.868164062500014,0)" xlink:href="#t"/><use transform="matrix(0.010091145833333334,0,0,0.010091145833333334,53.9169921875,0)" xlink:href="#I"/><use transform="matrix(0.010091145833333334,0,0,0.010091145833333334,68.83170572916667,0)" xlink:href="#p"/><use transform="matrix(0.010091145833333334,0,0,0.010091145833333334,80.4365234375,0)" xlink:href="#q"/><use transform="matrix(0.010091145833333334,0,0,0.010091145833333334,87.29850260416666,0)" xlink:href="#p"/><use transform="matrix(0.010091145833333334,0,0,0.010091145833333334,98.90332031249999,0)" xlink:href="#r"/><use transform="matrix(0.010091145833333334,0,0,0.010091145833333334,111.75944010416666,0)" xlink:href="#p"/><use transform="matrix(0.010091145833333334,0,0,0.010091145833333334,123.36425781249999,0)" xlink:href="#s"/><use transform="matrix(0.010091145833333334,0,0,0.010091145833333334,134.27278645833331,0)" xlink:href="#t"/></g><path d="M65 0l393-574-370-544h210c88 136 192 297 267 435 67-142 176-302 264-435h206L661-564 1053 0H844c-94-144-206-310-287-458C484-308 366-142 273 0H65" id="J"/><g id="h"><use transform="matrix(0.010091145833333334,0,0,0.010091145833333334,0,0)" xlink:href="#y"/><use transform="matrix(0.010091145833333334,0,0,0.010091145833333334,13.088216145833334,0)" xlink:href="#u"/><use transform="matrix(0.010091145833333334,0,0,0.010091145833333334,25.480143229166668,0)" xlink:href="#z"/><use transform="matrix(0.010091145833333334,0,0,0.010091145833333334,36.3583984375,0)" xlink:href="#t"/><use transform="matrix(0.010091145833333334,0,0,0.010091145833333334,48.4072265625,0)" xlink:href="#o"/><use transform="matrix(0.010091145833333334,0,0,0.010091145833333334,61.0615234375,0)" xlink:href="#t"/><use transform="matrix(0.010091145833333334,0,0,0.010091145833333334,72.64615885416666,0)" xlink:href="#J"/></g><path d="M180 0v-1490h528c311 0 458 177 458 395 0 191-114 278-244 313v14c139 9 302 137 302 371 0 225-148 397-499 397H180zm190-168h350c232 0 321-102 321-231 0-149-120-277-311-277H370v508zm0-668h328c160 0 286-101 286-255 0-129-87-231-280-231H370v486" id="K"/><g id="i"><use transform="matrix(0.010091145833333334,0,0,0.010091145833333334,0,0)" xlink:href="#E"/><use transform="matrix(0.010091145833333334,0,0,0.010091145833333334,14.2587890625,0)" xlink:href="#r"/><use transform="matrix(0.010091145833333334,0,0,0.010091145833333334,26.9130859375,0)" xlink:href="#w"/><use transform="matrix(0.010091145833333334,0,0,0.010091145833333334,31.918294270833336,0)" xlink:href="#F"/><use transform="matrix(0.010091145833333334,0,0,0.010091145833333334,36.92350260416667,0)" xlink:href="#w"/><use transform="matrix(0.010091145833333334,0,0,0.010091145833333334,41.928710937500014,0)" xlink:href="#q"/><use transform="matrix(0.010091145833333334,0,0,0.010091145833333334,49.09342447916668,0)" xlink:href="#B"/><use transform="matrix(0.010091145833333334,0,0,0.010091145833333334,60.809244791666686,0)" xlink:href="#K"/><use transform="matrix(0.010091145833333334,0,0,0.010091145833333334,74.33138020833336,0)" xlink:href="#u"/><use transform="matrix(0.010091145833333334,0,0,0.010091145833333334,86.72330729166669,0)" xlink:href="#u"/><use transform="matrix(0.010091145833333334,0,0,0.010091145833333334,99.115234375,0)" xlink:href="#z"/></g><g id="j"><use transform="matrix(0.010091145833333334,0,0,0.010091145833333334,0,0)" xlink:href="#G"/><use transform="matrix(0.010091145833333334,0,0,0.010091145833333334,18.668619791666668,0)" xlink:href="#u"/><use transform="matrix(0.010091145833333334,0,0,0.010091145833333334,30.65690104166667,0)" xlink:href="#H"/><use transform="matrix(0.010091145833333334,0,0,0.010091145833333334,41.868164062500014,0)" xlink:href="#t"/></g><g id="k"><use transform="matrix(0.010091145833333334,0,0,0.010091145833333334,0,0)" xlink:href="#E"/><use transform="matrix(0.010091145833333334,0,0,0.010091145833333334,14.2587890625,0)" xlink:href="#r"/><use transform="matrix(0.010091145833333334,0,0,0.010091145833333334,26.9130859375,0)" xlink:href="#w"/><use transform="matrix(0.010091145833333334,0,0,0.010091145833333334,31.918294270833336,0)" xlink:href="#F"/><use transform="matrix(0.010091145833333334,0,0,0.010091145833333334,36.92350260416667,0)" xlink:href="#w"/><use transform="matrix(0.010091145833333334,0,0,0.010091145833333334,41.928710937500014,0)" xlink:href="#q"/><use transform="matrix(0.010091145833333334,0,0,0.010091145833333334,49.09342447916668,0)" xlink:href="#B"/><use transform="matrix(0.010091145833333334,0,0,0.010091145833333334,60.70833333333334,0)" xlink:href="#D"/><use transform="matrix(0.010091145833333334,0,0,0.010091145833333334,73.96809895833334,0)" xlink:href="#F"/><use transform="matrix(0.010091145833333334,0,0,0.010091145833333334,78.97330729166667,0)" xlink:href="#u"/><use transform="matrix(0.010091145833333334,0,0,0.010091145833333334,91.365234375,0)" xlink:href="#q"/></g><path d="M611 442c-248 0-391-105-460-228l146-94c47 65 117 165 314 165 178 0 307-82 307-266v-224h-17C863-141 792-18 576-18c-268 0-472-195-472-546 0-346 197-568 476-568 216 0 288 133 326 193h17v-179h175V29c0 289-215 413-487 413zm-5-620c203 0 314-146 314-390 0-237-108-403-314-403-213 0-319 180-319 403 0 230 109 390 319 390" id="L"/><path d="M613 24c-304 0-509-231-509-576 0-350 205-580 509-580 216 0 392 114 453 309l-173 49c-33-115-133-197-280-197-223 0-326 196-326 419 0 220 103 415 326 415 150 0 252-85 285-206l172 49C1010-95 832 24 613 24" id="M"/><g id="l"><use transform="matrix(0.010850694444444444,0,0,0.010850694444444444,0,0)" xlink:href="#F"/><use transform="matrix(0.010850694444444444,0,0,0.010850694444444444,5.381944444444445,0)" xlink:href="#u"/><use transform="matrix(0.010850694444444444,0,0,0.010850694444444444,18.70659722222222,0)" xlink:href="#L"/><use transform="matrix(0.010850694444444444,0,0,0.010850694444444444,32.33506944444444,0)" xlink:href="#w"/><use transform="matrix(0.010850694444444444,0,0,0.010850694444444444,37.717013888888886,0)" xlink:href="#M"/><use transform="matrix(0.010850694444444444,0,0,0.010850694444444444,50.412326388888886,0)" xlink:href="#s"/></g><g id="m"><use transform="matrix(0.010091145833333334,0,0,0.010091145833333334,0,0)" xlink:href="#y"/><use transform="matrix(0.010091145833333334,0,0,0.010091145833333334,13.088216145833334,0)" xlink:href="#u"/><use transform="matrix(0.010091145833333334,0,0,0.010091145833333334,25.480143229166668,0)" xlink:href="#z"/><use transform="matrix(0.010091145833333334,0,0,0.010091145833333334,36.3583984375,0)" xlink:href="#t"/><use transform="matrix(0.010091145833333334,0,0,0.010091145833333334,48.4072265625,0)" xlink:href="#v"/><use transform="matrix(0.010091145833333334,0,0,0.010091145833333334,66.5107421875,0)" xlink:href="#u"/><use transform="matrix(0.010091145833333334,0,0,0.010091145833333334,78.90266927083333,0)" xlink:href="#x"/><use transform="matrix(0.010091145833333334,0,0,0.010091145833333334,91.11295572916666,0)" xlink:href="#D"/><use transform="matrix(0.010091145833333334,0,0,0.010091145833333334,104.37272135416666,0)" xlink:href="#q"/><use transform="matrix(0.010091145833333334,0,0,0.010091145833333334,111.23470052083331,0)" xlink:href="#p"/><use transform="matrix(0.010091145833333334,0,0,0.010091145833333334,122.83951822916664,0)" xlink:href="#q"/><use transform="matrix(0.010091145833333334,0,0,0.010091145833333334,129.39876302083331,0)" xlink:href="#t"/></g><g id="n"><use transform="matrix(0.010091145833333334,0,0,0.010091145833333334,0,0)" xlink:href="#G"/><use transform="matrix(0.010091145833333334,0,0,0.010091145833333334,18.668619791666668,0)" xlink:href="#u"/><use transform="matrix(0.010091145833333334,0,0,0.010091145833333334,30.65690104166667,0)" xlink:href="#H"/><use transform="matrix(0.010091145833333334,0,0,0.010091145833333334,41.868164062500014,0)" xlink:href="#t"/><use transform="matrix(0.010091145833333334,0,0,0.010091145833333334,53.9169921875,0)" xlink:href="#D"/><use transform="matrix(0.010091145833333334,0,0,0.010091145833333334,67.1767578125,0)" xlink:href="#q"/><use transform="matrix(0.010091145833333334,0,0,0.010091145833333334,74.03873697916666,0)" xlink:href="#p"/><use transform="matrix(0.010091145833333334,0,0,0.010091145833333334,85.64355468749999,0)" xlink:href="#q"/><use transform="matrix(0.010091145833333334,0,0,0.010091145833333334,92.20279947916663,0)" xlink:href="#t"/></g></defs></g></svg>