<svg xmlns="http://www.w3.org/2000/svg" xmlns:xlink="http://www.w3.org/1999/xlink" xmlns:lucid="lucid" width="1256" height="1803"><g transform="translate(246 399)" lucid:page-tab-id="0_0"><path d="M-225-21.9a6 6 0 0 1 6-6h127a6 6 0 0 1 6 6v8a14.48 14.48 0 0 1-4.24 10.24l-1.52 1.52A14.48 14.48 0 0 1-102 2.1h-117a6 6 0 0 1-6-6z" fill="#fff"/><path d="M-86-27.9v20l-10 10h-129" stroke="#3a414a" stroke-width="2" fill="none"/><path d="M-225-21.9a6 6 0 0 1 6-6H976.94a6 6 0 0 1 6 6v858.82a6 6 0 0 1-6 6H-219a6 6 0 0 1-6-6zM-225 407.5h20m15 0h20m15 0h20m15 0h20m15 0h20m15 0h20m15 0H5m15 0h20m15 0h20m15 0h20m15 0h20m15 0h20m15 0h20m15 0h20m15 0h20m15 0h20m15 0h20m15 0h20m15 0h20m15 0h20m15 0h20m15 0h20m15 0h20m15 0h20m15 0h20m15 0h20m15 0h20m15 0h20m15 0h20m15 0h20m15 0h20m15 0h20m15 0h20m15 0h20m15 0h17.94" stroke="#3a414a" stroke-width="2" fill="none"/><use xlink:href="#a" transform="matrix(1,0,0,1,-217.00000000000068,-27.901566196679198) translate(0 23.08376736111111)"/><use xlink:href="#b" transform="matrix(1,0,0,1,-213.00000000000068,10.098433803320802) translate(0 23.08376736111111)"/><use xlink:href="#c" transform="matrix(1,0,0,1,-213.00000000000068,10.098433803320802) translate(73.70876736111111 23.08376736111111)"/><use xlink:href="#d" transform="matrix(1,0,0,1,-213.00000000000068,10.098433803320802) translate(94.66145833333334 23.08376736111111)"/><use xlink:href="#e" transform="matrix(1,0,0,1,-213.00000000000068,415.51134632919246) translate(0 23.08376736111111)"/><path d="M-14.58 3.32a6 6 0 0 1 6-6h88a6 6 0 0 1 6 6v8a14.48 14.48 0 0 1-4.24 10.25l-1.5 1.5a14.48 14.48 0 0 1-10.26 4.25h-78a6 6 0 0 1-6-6z" fill="#fff"/><path d="M85.42-2.68v20l-10 10h-90" stroke="#3a414a" stroke-width="2" fill="none"/><path d="M-14.58 3.32a6 6 0 0 1 6-6H576a6 6 0 0 1 6 6v68a6 6 0 0 1-6 6H-8.58a6 6 0 0 1-6-6z" stroke="#3a414a" stroke-width="2" fill="none"/><use xlink:href="#f" transform="matrix(1,0,0,1,-6.576448387026858,-2.675741144936069) translate(0 23.08376736111111)"/><use xlink:href="#g" transform="matrix(1,0,0,1,-2.5764483870268577,35.32425885506393) translate(0 23.08376736111111)"/><use xlink:href="#h" transform="matrix(1,0,0,1,-2.5764483870268577,35.32425885506393) translate(19.737413194444443 23.08376736111111)"/><use xlink:href="#i" transform="matrix(1,0,0,1,-2.5764483870268577,35.32425885506393) translate(40.690104166666664 23.08376736111111)"/><path d="M353.3 213.92a6 6 0 0 1 6-6h88a6 6 0 0 1 6 6v8a14.48 14.48 0 0 1-4.23 10.25l-1.52 1.5a14.48 14.48 0 0 1-10.24 4.25h-78a6 6 0 0 1-6-6z" fill="#fff"/><path d="M453.3 207.92v20l-10 10h-90" stroke="#3a414a" stroke-width="2" fill="none"/><path d="M353.3 213.92a6 6 0 0 1 6-6h584.6a6 6 0 0 1 6 6v68a6 6 0 0 1-6 6H359.3a6 6 0 0 1-6-6z" stroke="#3a414a" stroke-width="2" fill="none"/><use xlink:href="#f" transform="matrix(1,0,0,1,361.311775806486,207.92425885506407) translate(0 23.08376736111111)"/><use xlink:href="#g" transform="matrix(1,0,0,1,365.311775806486,245.92425885506407) translate(0 23.08376736111111)"/><use xlink:href="#h" transform="matrix(1,0,0,1,365.311775806486,245.92425885506407) translate(19.737413194444443 23.08376736111111)"/><use xlink:href="#i" transform="matrix(1,0,0,1,365.311775806486,245.92425885506407) translate(40.690104166666664 23.08376736111111)"/><path d="M353.3 311.92a6 6 0 0 1 6-6h88a6 6 0 0 1 6 6v8a14.48 14.48 0 0 1-4.23 10.25l-1.52 1.5a14.48 14.48 0 0 1-10.24 4.25h-78a6 6 0 0 1-6-6z" fill="#fff"/><path d="M453.3 305.92v20l-10 10h-90" stroke="#3a414a" stroke-width="2" fill="none"/><path d="M353.3 311.92a6 6 0 0 1 6-6h584.6a6 6 0 0 1 6 6v68a6 6 0 0 1-6 6H359.3a6 6 0 0 1-6-6z" stroke="#3a414a" stroke-width="2" fill="none"/><use xlink:href="#f" transform="matrix(1,0,0,1,361.311775806486,305.9242588550643) translate(0 23.08376736111111)"/><use xlink:href="#g" transform="matrix(1,0,0,1,365.311775806486,343.9242588550643) translate(0 23.08376736111111)"/><use xlink:href="#h" transform="matrix(1,0,0,1,365.311775806486,343.9242588550643) translate(19.737413194444443 23.08376736111111)"/><use xlink:href="#i" transform="matrix(1,0,0,1,365.311775806486,343.9242588550643) translate(40.690104166666664 23.08376736111111)"/><path d="M-14.58 101.32a6 6 0 0 1 6-6h88a6 6 0 0 1 6 6v8a14.48 14.48 0 0 1-4.24 10.25l-1.5 1.5a14.48 14.48 0 0 1-10.26 4.25h-78a6 6 0 0 1-6-6z" fill="#fff"/><path d="M85.42 95.32v20l-10 10h-90" stroke="#3a414a" stroke-width="2" fill="none"/><path d="M-14.58 101.32a6 6 0 0 1 6-6H576a6 6 0 0 1 6 6v68a6 6 0 0 1-6 6H-8.58a6 6 0 0 1-6-6z" stroke="#3a414a" stroke-width="2" fill="none"/><use xlink:href="#f" transform="matrix(1,0,0,1,-6.576448387026858,95.32425885506416) translate(0 23.08376736111111)"/><use xlink:href="#g" transform="matrix(1,0,0,1,-2.5764483870268577,133.32425885506416) translate(0 23.08376736111111)"/><use xlink:href="#h" transform="matrix(1,0,0,1,-2.5764483870268577,133.32425885506416) translate(19.737413194444443 23.08376736111111)"/><use xlink:href="#i" transform="matrix(1,0,0,1,-2.5764483870268577,133.32425885506416) translate(40.690104166666664 23.08376736111111)"/><path d="M-225 918.2a6 6 0 0 1 6-6h88a6 6 0 0 1 6 6v8a14.48 14.48 0 0 1-4.24 10.26l-1.52 1.5a14.48 14.48 0 0 1-10.24 4.25h-78a6 6 0 0 1-6-6z" fill="#fff"/><path d="M-125 912.2v20l-10 10h-90" stroke="#3a414a" stroke-width="2" fill="none"/><path d="M-225 918.2a6 6 0 0 1 6-6H976.94a6 6 0 0 1 6 6v411.4a6 6 0 0 1-6 6H-219a6 6 0 0 1-6-6z" stroke="#3a414a" stroke-width="2" fill="none"/><use xlink:href="#f" transform="matrix(1,0,0,1,-217.00000000000068,912.2129125258714) translate(0 23.08376736111111)"/><use xlink:href="#j" transform="matrix(1,0,0,1,-213.00000000000068,950.2129125258714) translate(0 23.08376736111111)"/><use xlink:href="#k" transform="matrix(1,0,0,1,-213.00000000000068,950.2129125258714) translate(48.079427083333336 23.08376736111111)"/><path d="M43-371.48a6 6 0 0 1 6-6h148a6 6 0 0 1 6 6v48a6 6 0 0 1-6 6H49a6 6 0 0 1-6-6z" stroke="#3a414a" stroke-width="2" fill="#fff"/><use xlink:href="#l" transform="matrix(1,0,0,1,42.99999999999932,-377.47574114493545) translate(42.93360243055555 37.93402777777778)"/><path d="M404-371.48a6 6 0 0 1 6-6h148a6 6 0 0 1 6 6v48a6 6 0 0 1-6 6H410a6 6 0 0 1-6-6z" stroke="#3a414a" stroke-width="2" fill="#fff"/><use xlink:href="#m" transform="matrix(1,0,0,1,403.9999999999991,-377.4757411449355) translate(28.29059027777778 37.93402777777778)"/><path d="M765-371.48a6 6 0 0 1 6-6h161a6 6 0 0 1 6 6v48a6 6 0 0 1-6 6H771a6 6 0 0 1-6-6z" stroke="#3a414a" stroke-width="2" fill="#fff"/><use xlink:href="#n" transform="matrix(1,0,0,1,764.9999999999989,-377.47574114493545) translate(47.1766579861111 37.93402777777778)"/><path d="M103-311.48a6 6 0 0 1 6-6h28a6 6 0 0 1 6 6V1374a6 6 0 0 1-6 6h-28a6 6 0 0 1-6-6zM464-311.48a6 6 0 0 1 6-6h28a6 6 0 0 1 6 6V1374a6 6 0 0 1-6 6h-28a6 6 0 0 1-6-6zM828-311.48a6 6 0 0 1 6-6h28a6 6 0 0 1 6 6V1374a6 6 0 0 1-6 6h-28a6 6 0 0 1-6-6z" stroke="#3a414a" stroke-width="2" fill="#fff"/><path d="M154.4-238.68H462M163.32-228.68l-17.32-10 17.32-10m-17.32 10h8.5" stroke="#3a414a" stroke-width="2" fill="none"/><path d="M463-237.7h-1.03v-1.95H463z" stroke="#3a414a" stroke-width=".05" fill="#3a414a"/><use xlink:href="#o" transform="matrix(1,0,0,1,228.80381944444366,-264.1861578116025) translate(0.0049999999999954525 17.22222222222222)"/><use xlink:href="#p" transform="matrix(1,0,0,1,228.80381944444366,-264.1861578116025) translate(70.78625 17.22222222222222)"/><path d="M452.6-200.47h-2.96m-3.97 0h-5.96m-3.96 0h-5.95m-3.98 0h-5.95m-3.97 0h-5.96m-3.96 0h-5.96m-3.97 0h-5.95m-3.97 0h-5.95m-3.97 0h-5.95m-3.97 0h-5.95m-3.97 0h-5.95m-3.96 0h-5.96m-3.97 0h-5.94m-3.97 0h-5.96m-3.97 0h-5.96m-3.95 0h-5.96m-3.98 0h-5.95m-3.97 0h-5.95m-3.97 0h-5.96m-3.97 0h-5.95m-3.97 0h-5.95m-3.97 0h-5.95m-3.97 0h-5.95m-3.97 0h-5.95m-3.96 0h-5.96m-3.97 0h-5.94m-3.97 0h-5.96m-3.97 0h-5.95m-3.97 0h-5.96m-3.98 0h-5.95m-3.97 0h-5.95m-3.97 0H145M443.68-210.47l17.32 10-17.32 10m17.32-10h-8.5" stroke="#3a414a" stroke-width="2" fill="none"/><path d="M145.03-199.5H144v-1.94h1.03z" stroke="#3a414a" stroke-width=".05" fill="#3a414a"/><use xlink:href="#q" transform="matrix(1,0,0,1,264.19444444444395,-196.46494065605128) translate(0.005000000000002558 17.22222222222222)"/><path d="M153.4-123.2H461M162.32-113.2l-17.32-10 17.32-10m-17.32 10h8.5M460.97-123.2H462" stroke="#3a414a" stroke-width="2" fill="none"/><use xlink:href="#o" transform="matrix(1,0,0,1,181.49739583333252,-148.70900218253138) translate(0.0049999999999954525 17.22222222222222)"/><use xlink:href="#r" transform="matrix(1,0,0,1,181.49739583333252,-148.70900218253138) translate(70.78625 17.22222222222222)"/><use xlink:href="#s" transform="matrix(1,0,0,1,181.49739583333252,-148.70900218253138) translate(118.64215277777777 17.22222222222222)"/><use xlink:href="#t" transform="matrix(1,0,0,1,181.49739583333252,-148.70900218253138) translate(193.08659722222222 17.22222222222222)"/><path d="M451.6-85h-2.96m-3.97 0h-5.96m-3.96 0h-5.95m-3.98 0h-5.95m-3.97 0h-5.96m-3.96 0h-5.96m-3.97 0h-5.95m-3.97 0h-5.95m-3.97 0h-5.95m-3.97 0h-5.95m-3.97 0h-5.95m-3.96 0h-5.96m-3.97 0h-5.94m-3.97 0h-5.96m-3.97 0h-5.96m-3.95 0h-5.96m-3.98 0h-5.95m-3.97 0h-5.95m-3.97 0h-5.96m-3.97 0h-5.95m-3.97 0h-5.95m-3.97 0h-5.95m-3.97 0h-5.95m-3.97 0h-5.95m-3.96 0h-5.96m-3.97 0h-5.94m-3.97 0h-5.96m-3.97 0h-5.95m-3.97 0h-5.96m-3.98 0h-5.95m-3.97 0h-5.95m-3.97 0H144M442.68-95L460-85l-17.32 10M460-85h-8.5M144.03-85H143" stroke="#3a414a" stroke-width="2" fill="none"/><use xlink:href="#u" transform="matrix(1,0,0,1,278.03819444444366,-80.98778502698065) translate(0.004999999999999005 17.22222222222222)"/><path d="M155.4 26.68H463M164.32 36.68l-17.32-10 17.32-10m-17.32 10h8.5M462.97 26.68H464" stroke="#3a414a" stroke-width="2" fill="none"/><use xlink:href="#o" transform="matrix(1,0,0,1,228.70572916666586,1.1667389624498359) translate(0.0049999999999954525 17.22222222222222)"/><use xlink:href="#v" transform="matrix(1,0,0,1,228.70572916666586,1.1667389624498359) translate(70.78625 17.22222222222222)"/><path d="M155.4 124.22H463M164.32 134.22l-17.32-10 17.32-10m-17.32 10h8.5M462.97 124.22H464" stroke="#3a414a" stroke-width="2" fill="none"/><use xlink:href="#o" transform="matrix(1,0,0,1,232.14756944444366,98.70844194395565) translate(0.0049999999999954525 17.22222222222222)"/><use xlink:href="#w" transform="matrix(1,0,0,1,232.14756944444366,98.70844194395565) translate(70.78625 17.22222222222222)"/><use xlink:href="#x" transform="matrix(1,0,0,1,232.14756944444366,98.70844194395565) translate(87.01888888888888 17.22222222222222)"/><path d="M452.6 52.07h-2.96m-3.97 0h-5.96m-3.96 0h-5.95m-3.98 0h-5.95m-3.97 0h-5.96m-3.96 0h-5.96m-3.97 0h-5.95m-3.97 0h-5.95m-3.97 0h-5.95m-3.97 0h-5.95m-3.97 0h-5.95m-3.96 0h-5.96m-3.97 0h-5.94m-3.97 0h-5.96m-3.97 0h-5.96m-3.95 0h-5.96m-3.98 0h-5.95m-3.97 0h-5.95m-3.97 0h-5.96m-3.97 0h-5.95m-3.97 0h-5.95m-3.97 0h-5.95m-3.97 0h-5.95m-3.97 0h-5.95m-3.96 0h-5.96m-3.97 0h-5.94m-3.97 0h-5.96m-3.97 0h-5.95m-3.97 0h-5.96m-3.98 0h-5.95m-3.97 0h-5.95m-3.97 0H145M443.68 42.07l17.32 10-17.32 10m17.32-10h-8.5" stroke="#3a414a" stroke-width="2" fill="none"/><path d="M145.03 53.04H144V51.1h1.03z" stroke="#3a414a" stroke-width=".05" fill="#3a414a"/><use xlink:href="#y" transform="matrix(1,0,0,1,263.09635416666606,56.069050521730716) translate(0.005000000000002558 17.22222222222222)"/><path d="M452.6 146.07h-2.96m-3.97 0h-5.96m-3.96 0h-5.95m-3.98 0h-5.95m-3.97 0h-5.96m-3.96 0h-5.96m-3.97 0h-5.95m-3.97 0h-5.95m-3.97 0h-5.95m-3.97 0h-5.95m-3.97 0h-5.95m-3.96 0h-5.96m-3.97 0h-5.94m-3.97 0h-5.96m-3.97 0h-5.96m-3.95 0h-5.96m-3.98 0h-5.95m-3.97 0h-5.95m-3.97 0h-5.96m-3.97 0h-5.95m-3.97 0h-5.95m-3.97 0h-5.95m-3.97 0h-5.95m-3.97 0h-5.95m-3.96 0h-5.96m-3.97 0h-5.94m-3.97 0h-5.96m-3.97 0h-5.95m-3.97 0h-5.96m-3.98 0h-5.95m-3.97 0h-5.95m-3.97 0H145M443.68 136.07l17.32 10-17.32 10m17.32-10h-8.5" stroke="#3a414a" stroke-width="2" fill="none"/><path d="M145.03 147.04H144v-1.95h1.03z" stroke="#3a414a" stroke-width=".05" fill="#3a414a"/><use xlink:href="#z" transform="matrix(1,0,0,1,274.65451388888823,150.06905052173047) translate(0.004999999999999005 17.22222222222222)"/><path d="M513.9 237.28h307.6M513.9 237.28h-1M812.57 227.28l17.32 10-17.33 10m17.32-10h-8.5" stroke="#3a414a" stroke-width="2" fill="none"/><use xlink:href="#o" transform="matrix(1,0,0,1,596.5939533601788,211.76673896245003) translate(0.0049999999999954525 17.22222222222222)"/><use xlink:href="#v" transform="matrix(1,0,0,1,596.5939533601788,211.76673896245003) translate(70.78625 17.22222222222222)"/><path d="M513.9 334.82h307.6M513.9 334.82h-1M812.57 324.82l17.32 10-17.33 10m17.32-10h-8.5" stroke="#3a414a" stroke-width="2" fill="none"/><use xlink:href="#o" transform="matrix(1,0,0,1,600.0357936379567,309.3084419439558) translate(0.0049999999999954525 17.22222222222222)"/><use xlink:href="#w" transform="matrix(1,0,0,1,600.0357936379567,309.3084419439558) translate(70.78625 17.22222222222222)"/><use xlink:href="#x" transform="matrix(1,0,0,1,600.0357936379567,309.3084419439558) translate(87.01888888888888 17.22222222222222)"/><path d="M829.9 262.67h-3m-3.96 0H817m-3.98 0h-5.95m-3.97 0h-5.96m-3.96 0h-5.96m-3.97 0h-5.95m-3.97 0h-5.95m-3.97 0h-5.94m-3.97 0h-5.97m-3.97 0h-5.95m-3.96 0h-5.95m-3.98 0h-5.95m-3.97 0h-5.96m-3.97 0h-5.95m-3.97 0H688m-3.97 0h-5.95m-3.97 0h-5.95m-3.96 0h-5.97m-3.97 0h-5.95m-3.96 0h-5.95m-3.98 0h-5.95m-3.97 0h-5.96m-3.96 0h-5.96m-3.97 0h-5.95m-3.97 0h-5.95m-3.97 0h-5.95m-3.97 0h-5.95m-3.97 0H559m-3.96 0h-5.95m-3.98 0h-5.96m-3.96 0h-5.96m-3.97 0h-5.95m-3.97 0h-2.98M829.86 262.67h1.03M521.3 272.67l-17.3-10 17.3-10m-17.3 10h8.5" stroke="#3a414a" stroke-width="2" fill="none"/><use xlink:href="#y" transform="matrix(1,0,0,1,626.0345783601789,266.669050521731) translate(0.005000000000002558 17.22222222222222)"/><path d="M829.9 356.67h-3m-3.96 0H817m-3.98 0h-5.95m-3.97 0h-5.96m-3.97 0h-5.95m-3.97 0h-5.95m-3.97 0h-5.96m-3.97 0h-5.95m-3.97 0h-5.95m-3.97 0h-5.96m-3.97 0h-5.95m-3.97 0h-5.94m-3.97 0h-5.96m-3.97 0h-5.96m-3.96 0H688m-3.98 0h-5.95m-3.97 0h-5.96m-3.97 0h-5.95m-3.97 0h-5.95m-3.97 0h-5.96m-3.97 0h-5.95m-3.97 0h-5.95m-3.97 0h-5.95m-3.96 0h-5.96m-3.97 0h-5.94m-3.97 0h-5.96m-3.97 0h-5.96m-3.96 0H559m-3.98 0h-5.95m-3.97 0h-5.96m-3.97 0h-5.95m-3.97 0h-2.98M829.86 356.67h1.03M531.2 366.67l-17.3-10 17.3-10m-17.3 10h8.5" stroke="#3a414a" stroke-width="2" fill="none"/><use xlink:href="#z" transform="matrix(1,0,0,1,642.542738082401,360.6690505217309) translate(0.004999999999999005 17.22222222222222)"/><path d="M462 447.2h-94.8a6 6 0 0 0-6 6v228a6 6 0 0 0 6 6h85.4" stroke="#3a414a" stroke-width="2" fill="none"/><path d="M463 448.18h-1.03v-1.95H463z" stroke="#3a414a" stroke-width=".05" fill="#3a414a"/><path d="M443.68 677.2l17.32 10-17.32 10m17.32-10h-8.5" stroke="#3a414a" stroke-width="2" fill="none"/><use xlink:href="#A" transform="matrix(1,0,0,1,237.4187499999989,556.4447916666659) translate(0.005000000000002558 17.22222222222222)"/><use xlink:href="#B" transform="matrix(1,0,0,1,237.4187499999989,556.4447916666659) translate(62.18381944444444 17.22222222222222)"/><path d="M462 880H154.4" stroke="#3a414a" stroke-width="2" fill="none"/><path d="M463 880.97h-1.03v-1.95H463z" stroke="#3a414a" stroke-width=".05" fill="#3a414a"/><path d="M163.32 890L146 880l17.32-10M146 880h8.5" stroke="#3a414a" stroke-width="2" fill="none"/><use xlink:href="#C" transform="matrix(1,0,0,1,274.62847222222143,883.9922412892099) translate(0.004999999999999005 17.22222222222222)"/><path d="M816.6 881.2H506M807.68 871.2l17.32 10-17.32 10m17.32-10h-8.5" stroke="#3a414a" stroke-width="2" fill="none"/><path d="M506.03 882.17H505v-1.94h1.03z" stroke="#3a414a" stroke-width=".05" fill="#3a414a"/><use xlink:href="#C" transform="matrix(1,0,0,1,637.1284722222213,885.199999999999) translate(0.004999999999999005 17.22222222222222)"/><path d="M462 937.8H154.4" stroke="#3a414a" stroke-width="2" fill="none"/><path d="M463 938.8h-1.03v-1.96H463z" stroke="#3a414a" stroke-width=".05" fill="#3a414a"/><path d="M163.32 947.8l-17.32-10 17.32-10m-17.32 10h8.5" stroke="#3a414a" stroke-width="2" fill="none"/><use xlink:href="#o" transform="matrix(1,0,0,1,241.06944444444366,941.8114583333329) translate(0.005000000000002558 17.22222222222222)"/><use xlink:href="#D" transform="matrix(1,0,0,1,241.06944444444366,941.8114583333329) translate(70.78625 17.22222222222222)"/><path d="M452.6 975.14h-2.96m-3.97 0h-5.96m-3.96 0h-5.95m-3.98 0h-5.95m-3.97 0h-5.96m-3.96 0h-5.96m-3.97 0h-5.95m-3.97 0h-5.95m-3.97 0h-5.95m-3.97 0h-5.95m-3.97 0h-5.95m-3.96 0h-5.96m-3.97 0h-5.94m-3.97 0h-5.96m-3.97 0h-5.96m-3.95 0h-5.96m-3.98 0h-5.95m-3.97 0h-5.95m-3.97 0h-5.96m-3.97 0h-5.95m-3.97 0h-5.95m-3.97 0h-5.95m-3.97 0h-5.95m-3.97 0h-5.95m-3.96 0h-5.96m-3.97 0h-5.94m-3.97 0h-5.96m-3.97 0h-5.95m-3.97 0h-5.96m-3.98 0h-5.95m-3.97 0h-5.95m-3.97 0H145M443.68 965.14l17.32 10-17.32 10m17.32-10h-8.5" stroke="#3a414a" stroke-width="2" fill="none"/><path d="M145.03 976.12H144v-1.95h1.03z" stroke="#3a414a" stroke-width=".05" fill="#3a414a"/><use xlink:href="#E" transform="matrix(1,0,0,1,276.4600694444435,979.1447916666658) translate(0.004999999999999005 17.22222222222222)"/><path d="M812.6 1056.48H505M803.68 1046.48l17.32 10-17.32 10m17.32-10h-8.5M505.03 1056.48H504" stroke="#3a414a" stroke-width="2" fill="none"/><use xlink:href="#o" transform="matrix(1,0,0,1,601.0694444444434,1060.4781249999996) translate(0.005000000000002558 17.22222222222222)"/><use xlink:href="#D" transform="matrix(1,0,0,1,601.0694444444434,1060.4781249999996) translate(70.78625 17.22222222222222)"/><path d="M822 1093.8h-2.98m-3.97 0h-5.95m-3.97 0h-5.95m-3.97 0h-5.95m-3.97 0h-5.95m-3.97 0h-5.95m-3.96 0h-5.96m-3.96 0h-5.96m-3.97 0h-5.96m-3.97 0h-5.95m-3.97 0h-5.96m-3.98 0h-5.95m-3.97 0h-5.95m-3.97 0h-5.96m-3.97 0h-5.95m-3.97 0h-5.95m-3.97 0h-5.95m-3.96 0h-5.97m-3.97 0h-5.95m-3.96 0h-5.95m-3.98 0h-5.96m-3.97 0h-5.96m-3.97 0h-5.95m-3.97 0h-5.96m-3.97 0h-5.96m-3.97 0h-5.95m-3.97 0h-5.96m-3.96 0h-5.96m-3.97 0h-5.95m-3.97 0h-5.94m-3.97 0h-5.97m-3.97 0h-2.97M821.97 1093.8H823M523.32 1103.8l-17.32-10 17.32-10m-17.32 10h8.5" stroke="#3a414a" stroke-width="2" fill="none"/><g><use xlink:href="#E" transform="matrix(1,0,0,1,636.4600694444433,1097.8114583333327) translate(0.004999999999999005 17.22222222222222)"/></g><path d="M462 1015.14H154.4" stroke="#3a414a" stroke-width="2" fill="none"/><path d="M463 1016.12h-1.03v-1.95H463z" stroke="#3a414a" stroke-width=".05" fill="#3a414a"/><path d="M163.32 1025.14l-17.32-10 17.32-10m-17.32 10h8.5" stroke="#3a414a" stroke-width="2" fill="none"/><g><use xlink:href="#F" transform="matrix(1,0,0,1,241.8984374999992,1019.1447916666656) translate(0.005000000000002558 17.22222222222222)"/><use xlink:href="#G" transform="matrix(1,0,0,1,241.8984374999992,1019.1447916666656) translate(68.9546527777778 17.22222222222222)"/></g><path d="M816.6 1015.14H506M807.68 1005.14l17.32 10-17.32 10m17.32-10h-8.5" stroke="#3a414a" stroke-width="2" fill="none"/><path d="M506.03 1016.12H505v-1.95h1.03z" stroke="#3a414a" stroke-width=".05" fill="#3a414a"/><g><use xlink:href="#F" transform="matrix(1,0,0,1,604.3984374999991,1019.1447916666656) translate(0.005000000000002558 17.22222222222222)"/><use xlink:href="#G" transform="matrix(1,0,0,1,604.3984374999991,1019.1447916666656) translate(68.9546527777778 17.22222222222222)"/></g><path d="M462 1221.87H154.4" stroke="#3a414a" stroke-width="2" fill="none"/><path d="M463 1222.85h-1.03v-1.95H463z" stroke="#3a414a" stroke-width=".05" fill="#3a414a"/><path d="M163.32 1231.87l-17.32-10 17.32-10m-17.32 10h8.5" stroke="#3a414a" stroke-width="2" fill="none"/><g><use xlink:href="#H" transform="matrix(1,0,0,1,253.46961805555475,1225.8722076233362) translate(0.005000000000002558 17.22222222222222)"/><use xlink:href="#I" transform="matrix(1,0,0,1,253.46961805555475,1225.8722076233362) translate(40.230694444444445 17.22222222222222)"/></g><path d="M452.6 1192.27H429a6 6 0 0 1-6-6v-62.37a6 6 0 0 1 6-6h33" stroke="#3a414a" stroke-width="2" fill="none"/><path d="M443.68 1182.27l17.32 10-17.32 10m17.32-10h-8.5" stroke="#3a414a" stroke-width="2" fill="none"/><path d="M463 1118.88h-1.03v-1.95H463z" stroke="#3a414a" stroke-width=".05" fill="#3a414a"/><g><use xlink:href="#J" transform="matrix(1,0,0,1,345.3993055555547,1144.332241772498) translate(0.005000000000002558 17.22222222222222)"/><use xlink:href="#K" transform="matrix(1,0,0,1,345.3993055555547,1144.332241772498) translate(33.590069444444445 17.22222222222222)"/></g><path d="M816.6 1221.87H506M807.68 1211.87l17.32 10-17.32 10m17.32-10h-8.5" stroke="#3a414a" stroke-width="2" fill="none"/><path d="M506.03 1222.84H505v-1.95h1.03z" stroke="#3a414a" stroke-width=".05" fill="#3a414a"/><g><use xlink:href="#H" transform="matrix(1,0,0,1,615.9696180555546,1225.8666666666663) translate(0.005000000000002558 17.22222222222222)"/><use xlink:href="#I" transform="matrix(1,0,0,1,615.9696180555546,1225.8666666666663) translate(40.230694444444445 17.22222222222222)"/></g><defs><path d="M52 0l541-1490h220L1361 0h-200l-149-416H398L254 0H52zm404-582h497c-103-290-145-390-251-756-108 377-145 460-246 756" id="L"/><path d="M338-1490V0H158v-1490h180" id="M"/><path d="M598-1118v154H368v674c0 100 37 144 132 144 23 0 62-6 92-12L629-6c-37 13-88 20-134 20-193 0-307-107-307-290v-688H20v-154h168v-266h180v266h230" id="N"/><path d="M628 24c-324 0-524-230-524-574 0-343 198-582 503-582 237 0 487 146 487 559v75H286c9 234 145 362 343 362 132 0 231-58 273-172l174 48C1024-91 857 24 628 24zM287-650h624c-17-190-120-322-304-322-192 0-309 151-320 322" id="O"/><path d="M158 0v-1118h174v172h12c41-113 157-188 290-188 26 0 70 2 91 3v181c-11-2-60-10-108-10-161 0-279 109-279 260V0H158" id="P"/><path d="M338-670V0H158v-1118h173l1 207c72-158 192-221 342-221 226 0 378 139 378 422V0H872v-695c0-172-96-275-252-275-161 0-282 109-282 300" id="Q"/><path d="M471 26C259 26 90-98 90-318c0-256 228-303 435-329 202-27 287-16 287-108 0-139-79-219-234-219-161 0-248 86-283 164l-173-57c86-203 278-265 451-265 150 0 419 46 419 395V0H815v-152h-12C765-73 660 26 471 26zm31-159c199 0 310-134 310-271v-155c-30 35-226 55-295 64-131 17-246 59-246 186 0 116 97 176 231 176" id="R"/><path d="M158 0v-1118h180V0H158zm91-1301c-68 0-125-53-125-119s57-119 125-119c69 0 126 53 126 119s-57 119-126 119" id="S"/><path d="M481 0L54-1118h197c107 314 236 620 325 951 87-331 217-637 324-951h197L670 0H481" id="T"/><g id="a"><use transform="matrix(0.010850694444444444,0,0,0.010850694444444444,0,0)" xlink:href="#L"/><use transform="matrix(0.010850694444444444,0,0,0.010850694444444444,15.33203125,0)" xlink:href="#M"/><use transform="matrix(0.010850694444444444,0,0,0.010850694444444444,21.03949652777778,0)" xlink:href="#N"/><use transform="matrix(0.010850694444444444,0,0,0.010850694444444444,28.092447916666664,0)" xlink:href="#O"/><use transform="matrix(0.010850694444444444,0,0,0.010850694444444444,41.048177083333336,0)" xlink:href="#P"/><use transform="matrix(0.010850694444444444,0,0,0.010850694444444444,49.76128472222222,0)" xlink:href="#Q"/><use transform="matrix(0.010850694444444444,0,0,0.010850694444444444,62.890625,0)" xlink:href="#R"/><use transform="matrix(0.010850694444444444,0,0,0.010850694444444444,75.36892361111111,0)" xlink:href="#N"/><use transform="matrix(0.010850694444444444,0,0,0.010850694444444444,82.63888888888889,0)" xlink:href="#S"/><use transform="matrix(0.010850694444444444,0,0,0.010850694444444444,88.02083333333333,0)" xlink:href="#T"/><use transform="matrix(0.010850694444444444,0,0,0.010850694444444444,100.07595486111111,0)" xlink:href="#O"/></g><path d="M226 279v-1860h398v153H398V126h226v153H226" id="U"/><path d="M158 0v-1118h175l1 205c55-151 181-225 313-225 147 0 245 90 285 228 53-141 190-228 352-228 194 0 352 125 352 384V0h-181v-749c0-161-105-225-225-225-151 0-243 103-243 244V0H807v-767c0-124-93-207-219-207-131 0-250 92-250 270V0H158" id="V"/><path d="M613 24c-304 0-509-231-509-576 0-350 205-580 509-580 305 0 511 230 511 580 0 345-206 576-511 576zm0-161c226 0 329-195 329-415 0-222-103-419-329-419-223 0-326 196-326 419 0 220 103 415 326 415" id="W"/><path d="M577 24c-279 0-473-224-473-580 0-354 195-576 474-576 218 0 287 134 324 193h14v-551h180V0H922v-173h-20C865-111 790 24 577 24zm27-161c203 0 314-172 314-421 0-247-108-413-314-413-212 0-317 181-317 413 0 235 108 421 317 421" id="X"/><g id="b"><use transform="matrix(0.010850694444444444,0,0,0.010850694444444444,0,0)" xlink:href="#U"/><use transform="matrix(0.010850694444444444,0,0,0.010850694444444444,8.10546875,0)" xlink:href="#V"/><use transform="matrix(0.010850694444444444,0,0,0.010850694444444444,27.571614583333332,0)" xlink:href="#W"/><use transform="matrix(0.010850694444444444,0,0,0.010850694444444444,40.89626736111111,0)" xlink:href="#X"/><use transform="matrix(0.010850694444444444,0,0,0.010850694444444444,54.50303819444444,0)" xlink:href="#O"/></g><path d="M226-283v-166h904v166H226zm0-434v-166h904v166H226" id="Y"/><use transform="matrix(0.010850694444444444,0,0,0.010850694444444444,0,0)" xlink:href="#Y" id="c"/><path d="M537 14c-226 0-379-139-379-422v-710h180v695c0 172 97 275 253 275 160 0 281-109 281-300v-670h181V0H879v-209C806-46 684 14 537 14" id="Z"/><path d="M123 279V126h226v-1554H123v-153h398V279H123" id="aa"/><g id="d"><use transform="matrix(0.010850694444444444,0,0,0.010850694444444444,0,0)" xlink:href="#V"/><use transform="matrix(0.010850694444444444,0,0,0.010850694444444444,19.466145833333332,0)" xlink:href="#R"/><use transform="matrix(0.010850694444444444,0,0,0.010850694444444444,31.944444444444443,0)" xlink:href="#Q"/><use transform="matrix(0.010850694444444444,0,0,0.010850694444444444,45.07378472222222,0)" xlink:href="#Z"/><use transform="matrix(0.010850694444444444,0,0,0.010850694444444444,58.21397569444444,0)" xlink:href="#R"/><use transform="matrix(0.010850694444444444,0,0,0.010850694444444444,70.69227430555556,0)" xlink:href="#M"/><use transform="matrix(0.010850694444444444,0,0,0.010850694444444444,76.07421875,0)" xlink:href="#aa"/></g><path d="M180 0v-1490h908v168H370v486h669v168H370v500h727V0H180" id="ab"/><path d="M538 24C308 24 148-78 108-271l171-41c32 123 123 178 257 178 156 0 256-77 256-169 0-77-54-128-164-154l-186-44c-203-48-300-148-300-305 0-192 176-326 414-326 230 0 351 112 402 269l-163 42c-31-80-94-158-238-158-133 0-233 69-233 162 0 83 57 129 188 160l169 40c203 48 298 149 298 302 0 196-179 339-441 339" id="ac"/><g id="e"><use transform="matrix(0.010850694444444444,0,0,0.010850694444444444,0,0)" xlink:href="#U"/><use transform="matrix(0.010850694444444444,0,0,0.010850694444444444,8.10546875,0)" xlink:href="#ab"/><use transform="matrix(0.010850694444444444,0,0,0.010850694444444444,21.46267361111111,0)" xlink:href="#M"/><use transform="matrix(0.010850694444444444,0,0,0.010850694444444444,26.84461805555556,0)" xlink:href="#ac"/><use transform="matrix(0.010850694444444444,0,0,0.010850694444444444,38.57421875,0)" xlink:href="#O"/><use transform="matrix(0.010850694444444444,0,0,0.010850694444444444,51.28038194444444,0)" xlink:href="#aa"/></g><path d="M180 0v-1490h190v1322h690V0H180" id="ad"/><path d="M158 418v-1536h174v179h20c37-59 106-193 324-193 279 0 474 222 474 576 0 356-194 580-473 580-213 0-288-135-325-197h-14v591H158zm492-555c209 0 317-186 317-421 0-232-105-413-317-413-206 0-314 166-314 413 0 249 111 421 314 421" id="ae"/><g id="f"><use transform="matrix(0.010850694444444444,0,0,0.010850694444444444,0,0)" xlink:href="#ad"/><use transform="matrix(0.010850694444444444,0,0,0.010850694444444444,12.565104166666666,0)" xlink:href="#W"/><use transform="matrix(0.010850694444444444,0,0,0.010850694444444444,25.889756944444443,0)" xlink:href="#W"/><use transform="matrix(0.010850694444444444,0,0,0.010850694444444444,39.21440972222222,0)" xlink:href="#ae"/></g><g id="g"><use transform="matrix(0.010850694444444444,0,0,0.010850694444444444,0,0)" xlink:href="#U"/><use transform="matrix(0.010850694444444444,0,0,0.010850694444444444,8.10546875,0)" xlink:href="#S"/></g><path d="M174-520v-126l944-476v196L406-588v12l712 338v194" id="af"/><use transform="matrix(0.010850694444444444,0,0,0.010850694444444444,0,0)" xlink:href="#af" id="h"/><path d="M646 20c-249 0-524-159-524-708 0-524 209-822 547-822 250 0 431 161 467 395H950c-33-129-126-227-281-227-229 0-367 208-367 566h12c80-124 212-198 367-198 255 0 467 205 467 493 0 278-198 501-502 501zm0-167c179 0 318-148 318-334 0-182-133-328-313-328-181 0-322 156-322 330 0 176 134 332 317 332" id="ag"/><g id="i"><use transform="matrix(0.010850694444444444,0,0,0.010850694444444444,0,0)" xlink:href="#ag"/><use transform="matrix(0.010850694444444444,0,0,0.010850694444444444,13.780381944444445,0)" xlink:href="#aa"/></g><g id="j"><use transform="matrix(0.010850694444444444,0,0,0.010850694444444444,0,0)" xlink:href="#U"/><use transform="matrix(0.010850694444444444,0,0,0.010850694444444444,8.10546875,0)" xlink:href="#Q"/><use transform="matrix(0.010850694444444444,0,0,0.010850694444444444,21.23480902777778,0)" xlink:href="#W"/><use transform="matrix(0.010850694444444444,0,0,0.010850694444444444,34.55946180555556,0)" xlink:href="#N"/></g><path d="M600 0L52-1490h200c166 485 304 806 458 1336 156-533 285-846 449-1336h202L819 0H600" id="ah"/><path d="M613 24c-304 0-509-231-509-576 0-350 205-580 509-580 216 0 392 114 453 309l-173 49c-33-115-133-197-280-197-223 0-326 196-326 419 0 220 103 415 326 415 150 0 252-85 285-206l172 49C1010-95 832 24 613 24" id="ai"/><path d="M140 405l46-156c120 36 205 19 263-150l32-93L54-1118h197c107 313 237 620 324 950 87-331 219-637 326-950h196L606 167c-68 178-176 259-334 259-64 0-113-12-132-21" id="aj"/><g id="k"><use transform="matrix(0.010850694444444444,0,0,0.010850694444444444,0,0)" xlink:href="#ah"/><use transform="matrix(0.010850694444444444,0,0,0.010850694444444444,15.33203125,0)" xlink:href="#S"/><use transform="matrix(0.010850694444444444,0,0,0.010850694444444444,20.713975694444443,0)" xlink:href="#ai"/><use transform="matrix(0.010850694444444444,0,0,0.010850694444444444,33.40928819444444,0)" xlink:href="#N"/><use transform="matrix(0.010850694444444444,0,0,0.010850694444444444,40.462239583333336,0)" xlink:href="#W"/><use transform="matrix(0.010850694444444444,0,0,0.010850694444444444,53.78689236111112,0)" xlink:href="#P"/><use transform="matrix(0.010850694444444444,0,0,0.010850694444444444,62.5,0)" xlink:href="#aj"/><use transform="matrix(0.010850694444444444,0,0,0.010850694444444444,74.98914930555556,0)" xlink:href="#aa"/></g><path d="M180 0v-1490h510c348 0 508 209 508 474 0 266-160 477-507 477H370V0H180zm190-706h312c236 0 327-133 327-310 0-176-91-307-329-307H370v617" id="ak"/><path d="M653-1490V0H466v-1314h-10L96-1047v-204l324-239h233" id="al"/><g id="l"><use transform="matrix(0.010850694444444444,0,0,0.010850694444444444,0,0)" xlink:href="#ak"/><use transform="matrix(0.010850694444444444,0,0,0.010850694444444444,14.192708333333332,0)" xlink:href="#M"/><use transform="matrix(0.010850694444444444,0,0,0.010850694444444444,19.57465277777778,0)" xlink:href="#R"/><use transform="matrix(0.010850694444444444,0,0,0.010850694444444444,31.72743055555556,0)" xlink:href="#aj"/><use transform="matrix(0.010850694444444444,0,0,0.010850694444444444,43.782552083333336,0)" xlink:href="#O"/><use transform="matrix(0.010850694444444444,0,0,0.010850694444444444,56.73828125,0)" xlink:href="#P"/><use transform="matrix(0.010850694444444444,0,0,0.010850694444444444,65.10416666666667,0)" xlink:href="#al"/><path d="M-1.1 4.54h76.36v1.52H-1.1z"/></g><path d="M657 26c-323 0-524-166-541-416h195c15 169 171 246 346 246 202 0 356-106 356-265 5-203-294-238-475-293-239-73-380-191-380-389 0-252 224-419 512-419 294 0 499 171 508 396H992c-17-145-151-228-328-228-193 0-321 102-321 242 0 156 175 211 284 241l149 41c160 44 422 134 422 412 0 244-197 432-541 432" id="am"/><g id="m"><use transform="matrix(0.010850694444444444,0,0,0.010850694444444444,0,0)" xlink:href="#am"/><use transform="matrix(0.010850694444444444,0,0,0.010850694444444444,14.2578125,0)" xlink:href="#ai"/><use transform="matrix(0.010850694444444444,0,0,0.010850694444444444,27.17013888888889,0)" xlink:href="#R"/><use transform="matrix(0.010850694444444444,0,0,0.010850694444444444,39.6484375,0)" xlink:href="#M"/><use transform="matrix(0.010850694444444444,0,0,0.010850694444444444,45.03038194444444,0)" xlink:href="#R"/><use transform="matrix(0.010850694444444444,0,0,0.010850694444444444,57.50868055555555,0)" xlink:href="#V"/><use transform="matrix(0.010850694444444444,0,0,0.010850694444444444,76.97482638888889,0)" xlink:href="#W"/><use transform="matrix(0.010850694444444444,0,0,0.010850694444444444,90.29947916666666,0)" xlink:href="#Q"/><path d="M-1.1 4.54h105.64v1.52H-1.1z"/></g><path d="M154 0v-137l495-537c165-179 249-281 249-418 0-156-121-253-280-253-170 0-278 110-278 278H158c0-264 200-443 465-443 266 0 455 183 455 416 0 161-73 288-336 568L416-179v12h687V0H154" id="an"/><g id="n"><use transform="matrix(0.010850694444444444,0,0,0.010850694444444444,0,0)" xlink:href="#ak"/><use transform="matrix(0.010850694444444444,0,0,0.010850694444444444,14.192708333333332,0)" xlink:href="#M"/><use transform="matrix(0.010850694444444444,0,0,0.010850694444444444,19.57465277777778,0)" xlink:href="#R"/><use transform="matrix(0.010850694444444444,0,0,0.010850694444444444,31.72743055555556,0)" xlink:href="#aj"/><use transform="matrix(0.010850694444444444,0,0,0.010850694444444444,43.782552083333336,0)" xlink:href="#O"/><use transform="matrix(0.010850694444444444,0,0,0.010850694444444444,56.73828125,0)" xlink:href="#P"/><use transform="matrix(0.010850694444444444,0,0,0.010850694444444444,65.10416666666667,0)" xlink:href="#an"/><path d="M-1.1 4.54h80.87v1.52H-1.1z"/></g><path fill="#333" d="M786 20C389 20 94-260 94-744c0-487 299-766 692-766 339 0 597 194 641 529h-309c-28-162-156-258-326-258-233 0-388 179-388 495 0 323 157 493 387 493 170 0 298-97 328-259h309c-34 277-266 530-642 530" id="ao"/><path fill="#333" d="M428-647V0H128v-1490h294v586c65-146 175-228 341-228 232 0 385 159 385 421V0H847v-659c0-139-76-222-202-222-128 0-217 86-217 234" id="ap"/><path fill="#333" d="M628 22C291 22 81-210 81-554c0-346 210-578 547-578 336 0 547 232 547 578 0 344-211 576-547 576zm0-236c160 0 242-146 242-341 0-197-82-341-242-341S387-753 387-555c0 195 81 341 241 341" id="aq"/><path fill="#333" d="M572 22C302 22 117-98 78-306l279-48c29 105 101 156 224 156 114 0 185-48 185-115 0-118-228-130-337-155-215-49-322-150-322-317 0-215 187-347 470-347 265 0 424 116 466 298l-266 47c-24-76-87-130-196-130-98 0-174 46-174 113 0 56 38 95 144 117l201 40c216 44 320 143 320 302 0 220-207 367-500 367" id="ar"/><path fill="#333" d="M633 22C291 22 81-200 81-553c0-345 210-579 537-579 292 0 525 185 525 567v84H378c7 183 109 277 260 277 105 0 184-46 216-132l272 51C1071-99 893 22 633 22zM380-669h474c-15-146-94-237-233-237-143 0-229 99-241 237" id="as"/><g id="o"><use transform="matrix(0.008680555555555556,0,0,0.008680555555555556,0,0)" xlink:href="#ao"/><use transform="matrix(0.008680555555555556,0,0,0.008680555555555556,13.151041666666668,0)" xlink:href="#ap"/><use transform="matrix(0.008680555555555556,0,0,0.008680555555555556,24.21875,0)" xlink:href="#aq"/><use transform="matrix(0.008680555555555556,0,0,0.008680555555555556,35.12152777777778,0)" xlink:href="#aq"/><use transform="matrix(0.008680555555555556,0,0,0.008680555555555556,46.02430555555556,0)" xlink:href="#ar"/><use transform="matrix(0.008680555555555556,0,0,0.008680555555555556,55.98090277777778,0)" xlink:href="#as"/></g><path fill="#333" d="M537 19C279 19 81-185 81-557c0-382 206-575 454-575 190 0 278 113 318 202h10v-560h300V0H868v-179h-15C812-89 719 19 537 19zm92-241c153 0 240-134 240-336 0-203-86-334-240-334-158 0-240 138-240 334 0 197 84 336 240 336" id="at"/><path fill="#333" d="M128 0v-1118h300V0H128zm150-1264c-91 0-165-68-165-154 0-85 74-154 165-154 90 0 165 69 165 154 0 86-75 154-165 154" id="au"/><path fill="#333" d="M750-1118v229H516V0H217v-889H20v-229h197v-86c0-238 156-356 363-356 94 0 178 20 215 31l-54 226c-25-7-61-15-100-15-123-3-131 84-125 200h234" id="av"/><path fill="#333" d="M628 22C291 22 81-210 81-554c0-346 210-578 547-578 265 0 455 142 497 372l-279 52c-25-116-99-188-215-188-160 0-244 139-244 341 0 200 84 341 244 341 116 0 193-74 217-195l279 51C1085-123 896 22 628 22" id="aw"/><path fill="#333" d="M513 14c-232 0-385-159-385-421v-711h300v659c0 139 76 222 202 222 127 0 217-86 217-234v-647h301V0H864l-4-232C797-74 683 14 513 14" id="ax"/><path fill="#333" d="M428-1490V0H128v-1490h300" id="ay"/><path fill="#333" d="M683-1118v229H474v562c0 71 29 104 102 104 23 0 73-7 95-13l43 225C647 9 580 16 520 16 296 16 174-96 174-301v-588H20v-229h154v-266h300v266h209" id="az"/><path fill="#333" d="M120 396l69-226c123 42 245 23 254-107l8-60L31-1118h319c87 288 199 559 259 872 72-308 185-583 277-872h315L726 132c-68 181-186 294-410 294-79 0-153-13-196-30" id="aA"/><g id="p"><use transform="matrix(0.008680555555555556,0,0,0.008680555555555556,0,0)" xlink:href="#at"/><use transform="matrix(0.008680555555555556,0,0,0.008680555555555556,11.206597222222223,0)" xlink:href="#au"/><use transform="matrix(0.008680555555555556,0,0,0.008680555555555556,16.024305555555557,0)" xlink:href="#av"/><use transform="matrix(0.008680555555555556,0,0,0.008680555555555556,22.361111111111118,0)" xlink:href="#av"/><use transform="matrix(0.008680555555555556,0,0,0.008680555555555556,29.583333333333336,0)" xlink:href="#au"/><use transform="matrix(0.008680555555555556,0,0,0.008680555555555556,34.40104166666667,0)" xlink:href="#aw"/><use transform="matrix(0.008680555555555556,0,0,0.008680555555555556,44.861111111111114,0)" xlink:href="#ax"/><use transform="matrix(0.008680555555555556,0,0,0.008680555555555556,55.92881944444445,0)" xlink:href="#ay"/><use transform="matrix(0.008680555555555556,0,0,0.008680555555555556,61.00694444444445,0)" xlink:href="#az"/><use transform="matrix(0.008680555555555556,0,0,0.008680555555555556,67.90798611111111,0)" xlink:href="#aA"/></g><g id="q"><use transform="matrix(0.008680555555555556,0,0,0.008680555555555556,0,0)" xlink:href="#at"/><use transform="matrix(0.008680555555555556,0,0,0.008680555555555556,11.206597222222223,0)" xlink:href="#au"/><use transform="matrix(0.008680555555555556,0,0,0.008680555555555556,16.024305555555557,0)" xlink:href="#av"/><use transform="matrix(0.008680555555555556,0,0,0.008680555555555556,22.361111111111118,0)" xlink:href="#av"/><use transform="matrix(0.008680555555555556,0,0,0.008680555555555556,29.583333333333336,0)" xlink:href="#au"/><use transform="matrix(0.008680555555555556,0,0,0.008680555555555556,34.40104166666667,0)" xlink:href="#aw"/><use transform="matrix(0.008680555555555556,0,0,0.008680555555555556,44.861111111111114,0)" xlink:href="#ax"/><use transform="matrix(0.008680555555555556,0,0,0.008680555555555556,55.92881944444445,0)" xlink:href="#ay"/><use transform="matrix(0.008680555555555556,0,0,0.008680555555555556,61.00694444444445,0)" xlink:href="#az"/><use transform="matrix(0.008680555555555556,0,0,0.008680555555555556,67.90798611111111,0)" xlink:href="#aA"/></g><path fill="#333" d="M440 22C227 22 68-92 68-313c0-250 202-322 422-343 195-21 271-24 271-105 0-95-63-149-175-149-116 0-187 57-211 129l-275-46c57-194 237-305 487-305 240 0 474 108 474 379V0H777v-155h-10C713-51 605 22 440 22zm85-211c140 0 238-93 238-211v-121c-37 26-156 42-222 51-111 16-185 59-185 149 0 87 70 132 169 132" id="aB"/><path fill="#333" d="M128 0v-1118h278l12 217c60-163 185-234 319-234 143 0 236 81 288 251 63-172 205-251 359-251 205 0 357 138 357 381V0h-301v-697c0-126-76-187-177-187-114 0-184 79-184 196V0H789v-705c0-109-72-179-174-179-106 0-187 74-187 208V0H128" id="aC"/><g id="r"><use transform="matrix(0.008680555555555556,0,0,0.008680555555555556,0,0)" xlink:href="#az"/><use transform="matrix(0.008680555555555556,0,0,0.008680555555555556,6.336805555555556,0)" xlink:href="#as"/><use transform="matrix(0.008680555555555556,0,0,0.008680555555555556,17.100694444444446,0)" xlink:href="#aB"/><use transform="matrix(0.008680555555555556,0,0,0.008680555555555556,27.421875,0)" xlink:href="#aC"/></g><path fill="#333" d="M754 19C571 19 479-89 437-179h-14V0H128v-1490h300v560h9c41-89 129-202 319-202 248 0 453 193 453 575 0 372-197 576-455 576zm-92-241c156 0 240-139 240-336 0-196-83-334-240-334-154 0-241 131-241 334 0 202 88 336 241 336" id="aD"/><path fill="#333" d="M428-647V0H128v-1118h283l4 231c63-156 176-245 348-245 232 0 384 159 384 421V0H847v-659c0-139-76-222-202-222-128 0-217 86-217 234" id="aE"/><path fill="#333" d="M625 442c-280 0-454-114-503-274l258-72c28 63 97 128 243 128 153 0 246-69 246-216v-206h-23C805-108 717-16 536-16 284-16 81-191 81-561c0-378 208-571 456-571 188 0 280 113 321 202h13v-188h295V-9c0 303-226 451-541 451zm5-686c153 0 240-119 240-319 0-198-86-329-240-329-158 0-241 137-241 329 0 195 85 319 241 319" id="aF"/><g id="s"><use transform="matrix(0.008680555555555556,0,0,0.008680555555555556,0,0)" xlink:href="#aD"/><use transform="matrix(0.008680555555555556,0,0,0.008680555555555556,11.206597222222223,0)" xlink:href="#ax"/><use transform="matrix(0.008680555555555556,0,0,0.008680555555555556,22.274305555555557,0)" xlink:href="#au"/><use transform="matrix(0.008680555555555556,0,0,0.008680555555555556,27.092013888888893,0)" xlink:href="#ay"/><use transform="matrix(0.008680555555555556,0,0,0.008680555555555556,31.90972222222223,0)" xlink:href="#at"/><use transform="matrix(0.008680555555555556,0,0,0.008680555555555556,43.11631944444444,0)" xlink:href="#au"/><use transform="matrix(0.008680555555555556,0,0,0.008680555555555556,47.934027777777786,0)" xlink:href="#aE"/><use transform="matrix(0.008680555555555556,0,0,0.008680555555555556,59.00173611111112,0)" xlink:href="#aF"/></g><g id="t"><use transform="matrix(0.008680555555555556,0,0,0.008680555555555556,0,0)" xlink:href="#aC"/><use transform="matrix(0.008680555555555556,0,0,0.008680555555555556,16.223958333333336,0)" xlink:href="#aq"/><use transform="matrix(0.008680555555555556,0,0,0.008680555555555556,27.12673611111111,0)" xlink:href="#at"/><use transform="matrix(0.008680555555555556,0,0,0.008680555555555556,38.333333333333336,0)" xlink:href="#as"/></g><g id="u"><use transform="matrix(0.008680555555555556,0,0,0.008680555555555556,0,0)" xlink:href="#aC"/><use transform="matrix(0.008680555555555556,0,0,0.008680555555555556,16.223958333333336,0)" xlink:href="#aq"/><use transform="matrix(0.008680555555555556,0,0,0.008680555555555556,27.12673611111111,0)" xlink:href="#at"/><use transform="matrix(0.008680555555555556,0,0,0.008680555555555556,38.333333333333336,0)" xlink:href="#as"/></g><path fill="#333" d="M128 418v-1536h295v188h14c41-89 129-202 319-202 248 0 453 193 453 575 0 372-197 576-455 576-183 0-275-108-317-198h-9v597H128zm534-640c156 0 240-139 240-336 0-196-83-334-240-334-154 0-241 131-241 334 0 202 88 336 241 336" id="aG"/><path fill="#333" d="M128 0v-1490h300v802h17l366-430h347L740-633 1179 0H826L514-456l-86 97V0H128" id="aH"/><g id="v"><use transform="matrix(0.008680555555555556,0,0,0.008680555555555556,0,0)" xlink:href="#aG"/><use transform="matrix(0.008680555555555556,0,0,0.008680555555555556,11.206597222222223,0)" xlink:href="#aq"/><use transform="matrix(0.008680555555555556,0,0,0.008680555555555556,22.109375,0)" xlink:href="#aH"/><use transform="matrix(0.008680555555555556,0,0,0.008680555555555556,32.02256944444444,0)" xlink:href="#as"/><use transform="matrix(0.008680555555555556,0,0,0.008680555555555556,42.61284722222222,0)" xlink:href="#aC"/><use transform="matrix(0.008680555555555556,0,0,0.008680555555555556,58.83680555555556,0)" xlink:href="#aq"/><use transform="matrix(0.008680555555555556,0,0,0.008680555555555556,69.73958333333334,0)" xlink:href="#aE"/></g><path fill="#333" d="M101-265v-241l623-984h383v979h186v246h-186V0H814v-265H101zm719-246v-643h-12L409-523v12h411" id="aI"/><use transform="matrix(0.008680555555555556,0,0,0.008680555555555556,0,0)" xlink:href="#aI" id="w"/><path fill="#333" d="M443 0L31-1118h319c90 293 199 572 268 885 66-313 175-593 264-885h315L784 0H443" id="aJ"/><g id="x"><use transform="matrix(0.008680555555555556,0,0,0.008680555555555556,0,0)" xlink:href="#aC"/><use transform="matrix(0.008680555555555556,0,0,0.008680555555555556,16.223958333333336,0)" xlink:href="#aq"/><use transform="matrix(0.008680555555555556,0,0,0.008680555555555556,26.805555555555557,0)" xlink:href="#aJ"/><use transform="matrix(0.008680555555555556,0,0,0.008680555555555556,37.14409722222222,0)" xlink:href="#as"/><use transform="matrix(0.008680555555555556,0,0,0.008680555555555556,47.734375,0)" xlink:href="#ar"/></g><g id="y"><use transform="matrix(0.008680555555555556,0,0,0.008680555555555556,0,0)" xlink:href="#aG"/><use transform="matrix(0.008680555555555556,0,0,0.008680555555555556,11.206597222222223,0)" xlink:href="#aq"/><use transform="matrix(0.008680555555555556,0,0,0.008680555555555556,22.109375,0)" xlink:href="#aH"/><use transform="matrix(0.008680555555555556,0,0,0.008680555555555556,32.02256944444444,0)" xlink:href="#as"/><use transform="matrix(0.008680555555555556,0,0,0.008680555555555556,42.61284722222222,0)" xlink:href="#aC"/><use transform="matrix(0.008680555555555556,0,0,0.008680555555555556,58.83680555555556,0)" xlink:href="#aq"/><use transform="matrix(0.008680555555555556,0,0,0.008680555555555556,69.73958333333334,0)" xlink:href="#aE"/></g><g id="z"><use transform="matrix(0.008680555555555556,0,0,0.008680555555555556,0,0)" xlink:href="#aC"/><use transform="matrix(0.008680555555555556,0,0,0.008680555555555556,16.223958333333336,0)" xlink:href="#aq"/><use transform="matrix(0.008680555555555556,0,0,0.008680555555555556,26.805555555555557,0)" xlink:href="#aJ"/><use transform="matrix(0.008680555555555556,0,0,0.008680555555555556,37.14409722222222,0)" xlink:href="#as"/><use transform="matrix(0.008680555555555556,0,0,0.008680555555555556,47.734375,0)" xlink:href="#ar"/></g><path fill="#333" d="M128 0v-1118h290v195h12c54-169 184-238 367-200v268c-27-8-86-15-130-15-138 0-239 95-239 234V0H128" id="aK"/><g id="A"><use transform="matrix(0.008680555555555556,0,0,0.008680555555555556,0,0)" xlink:href="#ao"/><use transform="matrix(0.008680555555555556,0,0,0.008680555555555556,13.151041666666668,0)" xlink:href="#aK"/><use transform="matrix(0.008680555555555556,0,0,0.008680555555555556,19.95659722222222,0)" xlink:href="#as"/><use transform="matrix(0.008680555555555556,0,0,0.008680555555555556,30.72048611111111,0)" xlink:href="#aB"/><use transform="matrix(0.008680555555555556,0,0,0.008680555555555556,41.04166666666666,0)" xlink:href="#az"/><use transform="matrix(0.008680555555555556,0,0,0.008680555555555556,47.378472222222214,0)" xlink:href="#as"/></g><g id="B"><use transform="matrix(0.008680555555555556,0,0,0.008680555555555556,0,0)" xlink:href="#az"/><use transform="matrix(0.008680555555555556,0,0,0.008680555555555556,6.336805555555556,0)" xlink:href="#as"/><use transform="matrix(0.008680555555555556,0,0,0.008680555555555556,17.100694444444446,0)" xlink:href="#aB"/><use transform="matrix(0.008680555555555556,0,0,0.008680555555555556,27.421875,0)" xlink:href="#aC"/><use transform="matrix(0.008680555555555556,0,0,0.008680555555555556,43.645833333333336,0)" xlink:href="#ar"/></g><path fill="#333" d="M75-1237v-253h1217v253H837V0H531v-1237H75" id="aL"/><g id="C"><use transform="matrix(0.008680555555555556,0,0,0.008680555555555556,0,0)" xlink:href="#aL"/><use transform="matrix(0.008680555555555556,0,0,0.008680555555555556,10.477430555555555,0)" xlink:href="#as"/><use transform="matrix(0.008680555555555556,0,0,0.008680555555555556,21.241319444444443,0)" xlink:href="#aB"/><use transform="matrix(0.008680555555555556,0,0,0.008680555555555556,31.5625,0)" xlink:href="#aC"/><use transform="matrix(0.008680555555555556,0,0,0.008680555555555556,47.786458333333336,0)" xlink:href="#ar"/></g><g id="D"><use transform="matrix(0.008680555555555556,0,0,0.008680555555555556,0,0)" xlink:href="#aB"/><use transform="matrix(0.008680555555555556,0,0,0.008680555555555556,10.321180555555555,0)" xlink:href="#aw"/><use transform="matrix(0.008680555555555556,0,0,0.008680555555555556,20.78125,0)" xlink:href="#az"/><use transform="matrix(0.008680555555555556,0,0,0.008680555555555556,27.291666666666668,0)" xlink:href="#au"/><use transform="matrix(0.008680555555555556,0,0,0.008680555555555556,32.109375,0)" xlink:href="#aq"/><use transform="matrix(0.008680555555555556,0,0,0.008680555555555556,43.01215277777778,0)" xlink:href="#aE"/></g><g id="E"><use transform="matrix(0.008680555555555556,0,0,0.008680555555555556,0,0)" xlink:href="#aB"/><use transform="matrix(0.008680555555555556,0,0,0.008680555555555556,10.321180555555555,0)" xlink:href="#aw"/><use transform="matrix(0.008680555555555556,0,0,0.008680555555555556,20.78125,0)" xlink:href="#az"/><use transform="matrix(0.008680555555555556,0,0,0.008680555555555556,27.291666666666668,0)" xlink:href="#au"/><use transform="matrix(0.008680555555555556,0,0,0.008680555555555556,32.109375,0)" xlink:href="#aq"/><use transform="matrix(0.008680555555555556,0,0,0.008680555555555556,43.01215277777778,0)" xlink:href="#aE"/></g><g id="F"><use transform="matrix(0.008680555555555556,0,0,0.008680555555555556,0,0)" xlink:href="#aw"/><use transform="matrix(0.008680555555555556,0,0,0.008680555555555556,10.460069444444445,0)" xlink:href="#ap"/><use transform="matrix(0.008680555555555556,0,0,0.008680555555555556,21.52777777777778,0)" xlink:href="#aB"/><use transform="matrix(0.008680555555555556,0,0,0.008680555555555556,31.848958333333336,0)" xlink:href="#aE"/><use transform="matrix(0.008680555555555556,0,0,0.008680555555555556,42.91666666666667,0)" xlink:href="#aF"/><use transform="matrix(0.008680555555555556,0,0,0.008680555555555556,54.14930555555556,0)" xlink:href="#as"/></g><g id="G"><use transform="matrix(0.008680555555555556,0,0,0.008680555555555556,0,0)" xlink:href="#aG"/><use transform="matrix(0.008680555555555556,0,0,0.008680555555555556,11.206597222222223,0)" xlink:href="#ay"/><use transform="matrix(0.008680555555555556,0,0,0.008680555555555556,16.024305555555557,0)" xlink:href="#aB"/><use transform="matrix(0.008680555555555556,0,0,0.008680555555555556,26.041666666666668,0)" xlink:href="#aA"/><use transform="matrix(0.008680555555555556,0,0,0.008680555555555556,36.423611111111114,0)" xlink:href="#as"/><use transform="matrix(0.008680555555555556,0,0,0.008680555555555556,47.01388888888889,0)" xlink:href="#aK"/></g><g id="H"><use transform="matrix(0.008680555555555556,0,0,0.008680555555555556,0,0)" xlink:href="#az"/><use transform="matrix(0.008680555555555556,0,0,0.008680555555555556,6.510416666666667,0)" xlink:href="#ax"/><use transform="matrix(0.008680555555555556,0,0,0.008680555555555556,17.578125,0)" xlink:href="#aK"/><use transform="matrix(0.008680555555555556,0,0,0.008680555555555556,24.947916666666664,0)" xlink:href="#aE"/></g><g id="I"><use transform="matrix(0.008680555555555556,0,0,0.008680555555555556,0,0)" xlink:href="#aK"/><use transform="matrix(0.008680555555555556,0,0,0.008680555555555556,6.805555555555556,0)" xlink:href="#as"/><use transform="matrix(0.008680555555555556,0,0,0.008680555555555556,17.395833333333336,0)" xlink:href="#ar"/><use transform="matrix(0.008680555555555556,0,0,0.008680555555555556,27.352430555555557,0)" xlink:href="#ax"/><use transform="matrix(0.008680555555555556,0,0,0.008680555555555556,38.42013888888889,0)" xlink:href="#ay"/><use transform="matrix(0.008680555555555556,0,0,0.008680555555555556,43.49826388888889,0)" xlink:href="#az"/><use transform="matrix(0.008680555555555556,0,0,0.008680555555555556,49.87847222222222,0)" xlink:href="#ar"/></g><g id="J"><use transform="matrix(0.008680555555555556,0,0,0.008680555555555556,0,0)" xlink:href="#aK"/><use transform="matrix(0.008680555555555556,0,0,0.008680555555555556,7.239583333333334,0)" xlink:href="#ax"/><use transform="matrix(0.008680555555555556,0,0,0.008680555555555556,18.307291666666668,0)" xlink:href="#aE"/></g><g id="K"><use transform="matrix(0.008680555555555556,0,0,0.008680555555555556,0,0)" xlink:href="#az"/><use transform="matrix(0.008680555555555556,0,0,0.008680555555555556,6.510416666666667,0)" xlink:href="#ax"/><use transform="matrix(0.008680555555555556,0,0,0.008680555555555556,17.578125,0)" xlink:href="#aK"/><use transform="matrix(0.008680555555555556,0,0,0.008680555555555556,24.947916666666664,0)" xlink:href="#aE"/></g></defs></g></svg>