<svg xmlns="http://www.w3.org/2000/svg" xmlns:xlink="http://www.w3.org/1999/xlink" xmlns:lucid="lucid" width="1162" height="1139"><g transform="translate(1941 487)" lucid:page-tab-id="0_0"><path d="M-2000-500H500v3500h-2500z" fill="#fff"/><path d="M-1709.03 474.67a6 6 0 0 1 6-6h243.65a6 6 0 0 1 6 6v110a6 6 0 0 1-6 6h-243.65a6 6 0 0 1-6-6z" stroke="#3a414a" stroke-width="2" fill="#fcfcca"/><path d="M-1709.03 509.68h255.65" stroke="#3a414a" stroke-width="2" fill="none"/><use xlink:href="#a" transform="matrix(1,0,0,1,-1701.0341102392647,476.6693384316137) translate(35.5673828125 20.517903645833336)"/><use xlink:href="#b" transform="matrix(1,0,0,1,-1697.0341102392647,517.6751978066137) translate(0 40.517903645833336)"/><use xlink:href="#c" transform="matrix(1,0,0,1,-1697.0341102392647,517.6751978066137) translate(19.486002604166668 40.517903645833336)"/><use xlink:href="#d" transform="matrix(1,0,0,1,-1697.0341102392647,517.6751978066137) translate(150.06542968749997 40.517903645833336)"/><path d="M-1604.88-471.52a6 6 0 0 1 6-6h146.77a6 6 0 0 1 6 6v70a6 6 0 0 1-6 6h-146.78a6 6 0 0 1-6-6z" stroke="#3a414a" stroke-width="2" fill="#c3f7c8"/><path d="M-1604.88-436.52h158.77" stroke="#3a414a" stroke-width="2" fill="none"/><use xlink:href="#e" transform="matrix(1,0,0,1,-1596.875412462346,-469.52521909690944) translate(46.33268229166667 20.517903645833336)"/><path d="M-1910.33 331a6 6 0 0 1 6-6h209.66a6 6 0 0 1 6 6v74a6 6 0 0 1-6 6h-209.66a6 6 0 0 1-6-6z" stroke="#3a414a" stroke-width="2" fill="#fcfcca"/><path d="M-1910.33 366h221.66" stroke="#3a414a" stroke-width="2" fill="none"/><use xlink:href="#f" transform="matrix(1,0,0,1,-1902.3298431461485,332.9849908187266) translate(71.78304036458333 20.517903645833336)"/><path d="M-1320.4-145.94a6 6 0 0 1 6-6h126.1a6 6 0 0 1 6 6v70a6 6 0 0 1-6 6h-126.1a6 6 0 0 1-6-6z" stroke="#3a414a" stroke-width="2" fill="#fff"/><path d="M-1320.4-110.94h138.1" stroke="#3a414a" stroke-width="2" fill="none"/><use xlink:href="#g" transform="matrix(1,0,0,1,-1312.3926659920442,-143.94195653538452) translate(20.509765625 20.517903645833336)"/><path d="M-1801.4-246.62a6 6 0 0 1 6-6h146.77a6 6 0 0 1 6 6v70a6 6 0 0 1-6 6h-146.77a6 6 0 0 1-6-6z" stroke="#3a414a" stroke-width="2" fill="#c3f7c8"/><path d="M-1801.4-211.62h158.77" stroke="#3a414a" stroke-width="2" fill="none"/><use xlink:href="#h" transform="matrix(1,0,0,1,-1793.3997514293828,-244.62284437092933) translate(41.2265625 20.517903645833336)"/><path d="M-1601.9-170.12a6 6 0 0 1 6-6h146.77a6 6 0 0 1 6 6v70a6 6 0 0 1-6 6h-146.77a6 6 0 0 1-6-6z" stroke="#3a414a" stroke-width="2" fill="#c3f7c8"/><path d="M-1601.9-135.12h158.77" stroke="#3a414a" stroke-width="2" fill="none"/><use xlink:href="#i" transform="matrix(1,0,0,1,-1593.8962087107134,-168.12284437092933) translate(25.94352213541667 20.517903645833336)"/><path d="M-1804.4 117.36a6 6 0 0 1 6-6h146.75a6 6 0 0 1 6 6v70a6 6 0 0 1-6 6h-146.76a6 6 0 0 1-6-6z" stroke="#3a414a" stroke-width="2" fill="#fff"/><path d="M-1804.4 152.37h158.75" stroke="#3a414a" stroke-width="2" fill="none"/><use xlink:href="#j" transform="matrix(1,0,0,1,-1796.4148310532992,119.3636909481146) translate(44.54150390625 20.517903645833336)"/><path d="M-1601.9 83.36a6 6 0 0 1 6-6h146.77a6 6 0 0 1 6 6v70a6 6 0 0 1-6 6h-146.77a6 6 0 0 1-6-6z" stroke="#3a414a" stroke-width="2" fill="#fff"/><path d="M-1601.9 118.37h158.77" stroke="#3a414a" stroke-width="2" fill="none"/><use xlink:href="#k" transform="matrix(1,0,0,1,-1593.8962087107134,85.3636909481146) translate(41.14583333333333 20.517903645833336)"/><path d="M-1923.1-43.94a6 6 0 0 1 6-6h146.76a6 6 0 0 1 6 6v70a6 6 0 0 1-6 6h-146.77a6 6 0 0 1-6-6z" stroke="#3a414a" stroke-width="2" fill="#fff"/><path d="M-1923.1-8.94h158.76" stroke="#3a414a" stroke-width="2" fill="none"/><use xlink:href="#l" transform="matrix(1,0,0,1,-1915.1080072999562,-41.94195653538452) translate(50.2177734375 20.517903645833336)"/><path d="M-1557.2-363.77v33.8a6 6 0 0 1-6 6h-152.82a6 6 0 0 0-6 6v63.58" stroke="#3a414a" stroke-width="2" fill="none"/><path d="M-1557.2-393.1l-14.85 14.84 14.85 14.85 14.85-14.86z" stroke="#3a414a" stroke-width="2" fill="#fff"/><path d="M-1721.04-253.62h-1.95v-.8h1.96z" stroke="#3a414a" stroke-width=".05" fill="#3a414a"/><use xlink:href="#m" transform="matrix(1,0,0,1,-1714.0166748393578,-273.5165725579911) translate(0.004999999999999893 16.216875)"/><path d="M-1722.02-139.1v22.7a6 6 0 0 1-6 6h-109.7a6 6 0 0 0-6 6v52.46" stroke="#3a414a" stroke-width="2" fill="none"/><path d="M-1722.02-168.44l-14.85 14.85 14.85 14.86 14.85-14.85z" stroke="#3a414a" stroke-width="2" fill="#fff"/><path d="M-1842.75-50.94h-1.95v-1.03h1.95z" stroke="#3a414a" stroke-width=".05" fill="#3a414a"/><path d="M-1610.88-211.62h82.37a6 6 0 0 1 6 6v27.73" stroke="#3a414a" stroke-width="2" fill="none"/><path d="M-1640.22-211.62l14.85 14.85 14.85-14.85-14.85-14.85z" stroke="#3a414a" stroke-width="2" fill="#fff"/><path d="M-1521.54-177.12h-1.95v-.8h1.96z" stroke="#3a414a" stroke-width=".05" fill="#3a414a"/><path d="M-1522.5-62.6v72.96a6 6 0 0 1-6 6h-190.53a6 6 0 0 0-6 6v87.24" stroke="#3a414a" stroke-width="2" fill="none"/><path d="M-1522.5-91.94l-14.86 14.85 14.85 14.86 14.84-14.85z" stroke="#3a414a" stroke-width="2" fill="#fff"/><path d="M-1724.06 110.36h-1.95v-.8h1.94z" stroke="#3a414a" stroke-width=".05" fill="#3a414a"/><path d="M-1522.5-62.6V75.6" stroke="#3a414a" stroke-width="2" fill="none"/><path d="M-1522.5-91.94l-14.86 14.85 14.85 14.86 14.84-14.85z" stroke="#3a414a" stroke-width="2" fill="#fff"/><path d="M-1521.54 76.36h-1.95v-.8h1.96z" stroke="#3a414a" stroke-width=".05" fill="#3a414a"/><path d="M-1483.2-393.52v175.9a6 6 0 0 0 6 6h219.85a6 6 0 0 1 6 6v51.87" stroke="#3a414a" stroke-width="2" fill="none"/><path d="M-1482.22-393.5h-1.95v-1.02h1.95zM-1250.37-152.94h-1.95v-.83h1.95z" stroke="#3a414a" stroke-width=".05" fill="#3a414a"/><path d="M-1415.38 23.36a6 6 0 0 1 6-6h146.77a6 6 0 0 1 6 6v70a6 6 0 0 1-6 6h-146.78a6 6 0 0 1-6-6z" stroke="#3a414a" stroke-width="2" fill="#fff"/><path d="M-1415.38 58.37h158.77" stroke="#3a414a" stroke-width="2" fill="none"/><use xlink:href="#n" transform="matrix(1,0,0,1,-1407.3775863681278,25.363690948114595) translate(5.534179687500014 20.517903645833336)"/><path d="M-1522.5-62.37v18a6 6 0 0 0 6 6h174.5a6 6 0 0 1 6 6v47.73" stroke="#3a414a" stroke-width="2" fill="none"/><path d="M-1522.5-91.7l-14.86 14.84L-1522.5-62l14.84-14.86z" stroke="#3a414a" stroke-width="2" fill="#fff"/><path d="M-1335.02 16.36h-1.95v-1.02h1.95z" stroke="#3a414a" stroke-width=".05" fill="#3a414a"/><path d="M-1725.03 308v-3.08m0-4.1v-6.14m0-4.1v-6.13m0-4.1v-6.15m0-4.1v-6.13m0-4.1v-6.14m0-4.1v-6.14m0-4.1v-6.15m0-4.1V223m0-4.1v-6.13m0-4.1v-6.14m0-4.1v-3.07" stroke="#3a414a" stroke-width="2" fill="none"/><path d="M-1725.03 322l-7.5-13h15z" stroke="#3a414a" stroke-width="2" fill="#fff"/><path d="M-1724.06 195.4h-1.95v-1.04h1.94z" stroke="#3a414a" stroke-width=".05" fill="#3a414a"/><path d="M-1835.83 307.98l-.1-3.05m-.1-4.05l-.18-6.1m-.12-4.05l-.18-6.1m-.12-4.05l-.17-6.08m-.1-4.06l-.18-6.1m-.12-4.04l-.17-6.1m-.12-4.05l-.16-6.1m-.12-4.05l-.17-6.08m-.12-4.06l-.18-6.1m-.1-4.05l-.2-6.07m-.1-4.06l-.18-6.1m-.12-4.05l-.17-6.08m-.12-4.06l-.17-6.1m-.13-4.05l-.17-6.08m-.12-4.06l-.17-6.1m-.1-4.06l-.2-6.08m-.1-4.06l-.18-6.1m-.12-4.05l-.17-6.08m-.12-4.06l-.16-6.08m-.12-4.06l-.17-6.1m-.12-4.04l-.17-6.1m-.12-4.05l-.18-6.08m-.1-4.07l-.2-6.1m-.1-4.05l-.18-6.1m-.12-4.04l-.17-6.1m-.13-4.05l-.17-6.1m-.12-4.05l-.17-6.1m-.1-4.05l-.1-3.04" stroke="#3a414a" stroke-width="2" fill="none"/><path d="M-1835.43 321.96l-7.87-12.77 15-.44z" stroke="#3a414a" stroke-width="2" fill="#fff"/><path d="M-1842.72 34.05l-1.95.06-.03-1.04h1.95z" stroke="#3a414a" stroke-width=".05" fill="#3a414a"/><path d="M-1432.82 339.5a6 6 0 0 1 6-6h181.65a6 6 0 0 1 6 6v95a6 6 0 0 1-6 6h-181.65a6 6 0 0 1-6-6z" stroke="#3a414a" stroke-width="2" fill="#fcfcca"/><path d="M-1432.82 374.5h193.65" stroke="#3a414a" stroke-width="2" fill="none"/><use xlink:href="#o" transform="matrix(1,0,0,1,-1424.8227717136713,341.4849908187266) translate(23.0947265625 20.517903645833336)"/><use xlink:href="#b" transform="matrix(1,0,0,1,-1420.8227717136713,382.4908501937266) translate(0 20.514973958333332)"/><use xlink:href="#p" transform="matrix(1,0,0,1,-1420.8227717136713,382.4908501937266) translate(19.486002604166668 20.514973958333332)"/><use xlink:href="#q" transform="matrix(1,0,0,1,-1420.8227717136713,382.4908501937266) translate(0 45.520833333333336)"/><path d="M-1336 442.5v3.03m0 4.06v6.08m0 4.06v6.08m0 4.06v6.1m0 4.05v6.1m0 4.05v6.1m0 4.05v6.1m0 4.05v6.1m0 4.04v3.05l-.07.94-.22.92-.35.87m-2.62 2.62l-.87.36-.92.22-.93.07h-3m-4 0h-6m-4 0h-6m-4 0h-6m-4 0h-6m-4 0h-6m-4 0h-6m-4 0h-6m-4 0h-6m-4 0h-6m-4 0h-3" stroke="#3a414a" stroke-width="2" fill="none"/><path d="M-1335.02 442.5h-1.95v-1h1.95z" stroke="#3a414a" stroke-width=".05" fill="#3a414a"/><path d="M-1433.06 539.67l-17.32-10 17.32-10m-17.32 10h8.5M-1799.5 412.96v3.02m0 4.03v6.05m0 4.02v6.04m0 4.04v6.03m0 4.03v6.04m0 4.02v6.04m0 4.03v6.04m0 4.02v6.03m0 4.03v6.04m0 4.02v6.04m0 4.03v6.02m0 4.03v3.02l.07.94.22.92.35.87m2.62 2.62l.87.36.92.22.94.07h2.9m3.85 0h5.78m3.86 0h5.77m3.86 0h5.78m3.87 0h5.78m3.85 0h5.8m3.84 0h5.8m3.84 0h2.9" stroke="#3a414a" stroke-width="2" fill="none"/><path d="M-1798.53 413h-1.95v-1h1.95z" stroke="#3a414a" stroke-width=".05" fill="#3a414a"/><path d="M-1712.03 529.67l-13 7.5v-15z" stroke="#3a414a" stroke-width="2" fill="#fff"/><path d="M-1051.82 258.75v3.06m0 4.08v6.1m0 4.1v6.1m0 4.07v6.12m0 4.07v6.1m0 4.1v6.1m0 4.07v6.12m0 4.08v6.1m0 4.08v6.12m0 4.07v6.1m0 4.1v6.1m0 4.07v6.12m0 4.07V381l-.07.92-.2.92-.37.87m-2.62 2.63l-.86.36-.92.2-.94.1h-3m-3.97 0h-5.97m-4 0h-5.96m-4 0h-5.97m-3.98 0h-5.98m-4 0h-5.97m-3.98 0h-6m-3.98 0h-5.97m-4 0h-5.97m-3.98 0h-5.98m-4 0h-5.96m-4 0h-5.97m-4 0h-5.97m-4 0h-5.97m-3.98 0h-5.98m-4 0h-5.96m-4 0h-5.97m-3.98 0h-6m-3.98 0h-3M-1061.82 267.68l10-17.32 10 17.32m-10-17.32v8.5" stroke="#3a414a" stroke-width="2" fill="none"/><path d="M-1237.14 387.96h-1.03V386h1.03z" stroke="#3a414a" stroke-width=".05" fill="#3a414a"/><path d="M-1407.74 319.5l-1.72-2.36m-2.28-3.17l-3.43-4.75m-2.28-3.16l-3.43-4.75m-2.28-3.16l-3.42-4.75m-2.3-3.18l-3.4-4.75m-2.3-3.17l-3.42-4.75m-2.3-3.16l-3.4-4.76m-2.3-3.17l-3.42-4.75m-2.28-3.17l-3.43-4.75m-2.28-3.16l-3.44-4.75m-2.28-3.18l-3.43-4.75m-2.28-3.17l-3.43-4.75m-2.28-3.16l-3.43-4.76m-2.28-3.17l-3.43-4.75m-2.28-3.17l-3.43-4.75m-2.27-3.17l-3.42-4.75m-2.28-3.16l-3.42-4.75m-2.3-3.17l-3.4-4.75m-2.3-3.17l-3.42-4.75m-2.3-3.16l-3.4-4.75m-2.3-3.17l-1.7-2.38" stroke="#3a414a" stroke-width="2" fill="none"/><path d="M-1399.56 330.86l-13.68-6.15 12.16-8.76z" stroke="#3a414a" stroke-width="2" fill="#fff"/><path d="M-1521.12 160.63l-1.58 1.14-1-1.4h2.4z" stroke="#3a414a" stroke-width=".05" fill="#3a414a"/><path d="M-1336 316.5v-2.94m0-3.9v-5.88m0-3.9V294m0-3.9v-5.88m0-3.9v-5.87m0-3.9v-5.88m0-3.9v-5.88m0-3.92v-5.87m0-3.9v-5.87m0-3.9v-5.88m0-3.9v-5.88m0-3.9V206m0-3.92v-5.86m0-3.9v-5.88m0-3.9v-5.88m0-3.9v-5.88m0-3.9v-5.88m0-3.9v-5.88m0-3.9v-5.88m0-3.9v-5.87m0-3.9v-5.88m0-3.92v-5.87m0-3.9v-2.94" stroke="#3a414a" stroke-width="2" fill="none"/><path d="M-1336 330.5l-7.5-13h15z" stroke="#3a414a" stroke-width="2" fill="#fff"/><path d="M-1335.02 101.4h-1.95v-1.04h1.95z" stroke="#3a414a" stroke-width=".05" fill="#3a414a"/><path d="M-1269.15 316.63l.4-2.96m.5-3.95l.77-5.9m.5-3.96l.77-5.9m.5-3.96l.77-5.9m.5-3.96l.78-5.9m.5-3.96l.77-5.92m.52-3.94l.76-5.92m.5-3.94l.78-5.92m.5-3.94l.78-5.92m.5-3.94l.77-5.92m.5-3.94l.78-5.92m.52-3.94l.77-5.92m.5-3.95l.77-5.9m.5-3.96l.77-5.92m.5-3.95l.78-5.9m.5-3.96l.78-5.92m.5-3.94l.77-5.9m.52-3.95l.75-5.92m.5-3.94l.78-5.93m.5-3.94l.78-5.92m.52-3.93l.77-5.92m.5-3.95l.76-5.9m.5-3.96l.78-5.9m.5-3.96l.78-5.9m.5-3.96l.77-5.9m.5-3.96l.77-5.92m.5-3.94l.78-5.92m.5-3.94l.78-5.92m.5-3.94l.77-5.92m.52-3.94l.76-5.92m.5-3.94l.78-5.92m.5-3.94l.78-5.92m.5-3.95l.77-5.9m.52-3.96l.77-5.9m.5-3.96l.77-5.9m.5-3.95l.77-5.9m.52-3.96l.76-5.93m.5-3.94l.78-5.92m.5-3.93l.78-5.92m.5-3.94l.4-2.95" stroke="#3a414a" stroke-width="2" fill="none"/><path d="M-1270.94 330.5l-5.77-13.85 14.86 1.93z" stroke="#3a414a" stroke-width="2" fill="#fff"/><path d="M-1218.37-67.8l-1.93-.25.12-.9h1.96z" stroke="#3a414a" stroke-width=".05" fill="#3a414a"/><path d="M-1051.82 153.98v-1.95m0-7.77v-3.88m0-7.77v-3.88m0-7.77v-3.88m0-7.77v-3.9m0-7.76v-3.9m0-7.76V82.1m0-7.77V72.4a.1.1 0 0 0-.1-.12.1.1 0 0 1-.1-.1v-1.9m0-7.58v-3.8m0-7.57v-3.8m0-7.58v-3.8m0-7.57v-3.8m0-7.57v-3.78m0-7.58v-3.8m0-7.58v-3.8m0-7.57v-1.9M-1041.82 145.04l-10 17.32-10-17.32m10 17.32v-8.5" stroke="#3a414a" stroke-width="2" fill="none"/><path d="M-1051.05-18.78h-1.95v-1.16h1.95z" stroke="#3a414a" stroke-width=".05" fill="#3a414a"/><path d="M-1113.25-145.94a6 6 0 0 1 6-6h310.1a6 6 0 0 1 6 6v119a6 6 0 0 1-6 6h-310.1a6 6 0 0 1-6-6z" stroke="#3a414a" stroke-width="2" fill="#fff"/><path d="M-1113.25-110.94h322.1" stroke="#3a414a" stroke-width="2" fill="none"/><use xlink:href="#r" transform="matrix(1,0,0,1,-1105.2471032259475,-143.94195653538452) translate(131.32470703125 20.517903645833336)"/><use xlink:href="#b" transform="matrix(1,0,0,1,-1101.2471032259475,-102.93609716038452) translate(0 32.51497395833333)"/><use xlink:href="#s" transform="matrix(1,0,0,1,-1101.2471032259475,-102.93609716038452) translate(19.486002604166668 32.51497395833333)"/><use xlink:href="#t" transform="matrix(1,0,0,1,-1101.2471032259475,-102.93609716038452) translate(225.8095703125 32.51497395833333)"/><use xlink:href="#u" transform="matrix(1,0,0,1,-1101.2471032259475,-102.93609716038452) translate(0 57.520833333333336)"/><use xlink:href="#v" transform="matrix(1,0,0,1,-1101.2471032259475,-102.93609716038452) translate(69.63899739583334 57.520833333333336)"/><path d="M-1581.2 602.06v3.54m0 4.72v7.08m0 4.73v3.54l.07.94.22.92.35.87m2.62 2.62l.87.36.92.22.93.07h2.98m3.98 0h5.97m3.98 0h5.98m3.98 0h5.97m3.98 0h6m3.97 0h5.97m3.98 0h5.97m3.97 0h5.97m3.98 0h5.97m3.97 0h5.98m3.98 0h5.97m3.98 0h5.97m3.98 0h5.97m3.98 0h5.97m3.98 0h5.97m3.98 0h5.98m3.98 0h5.97m4 0h5.96m3.98 0h5.97m4 0h5.96m3.98 0h5.97m4 0h5.97m3.98 0h5.97m3.98 0h5.97m3.98 0h5.97m3.98 0h5.97m3.98 0h5.97m4 0h5.96m3.98 0h5.97m3.98 0h5.98m3.98 0h5.97m3.98 0h5.98m3.98 0h5.97m3.98 0h6m3.97 0h5.97m3.98 0h5.97m3.97 0h5.97m3.98 0h5.97m3.97 0h5.97m3.98 0h5.98m3.98 0h5.97m3.98 0h5.97m3.98 0h5.97m3.98 0h5.97m3.98 0h5.97m3.98 0h5.98m4 0h5.96m3.98 0h5.97m4 0h5.96m3.98 0h5.97m4 0h5.96m4 0h5.96m3.98 0h5.97m3.98 0h5.97m3.98 0h5.97m3.98 0h5.97m3.98 0h5.98m3.98 0h5.97m3.98 0h5.98m3.98 0h5.97m3.98 0h5.98m3.98 0h5.97m3.98 0h3l.94-.07.9-.22.88-.37m2.63-2.6l.36-.88.23-.9.07-.95v-3.02m0-4.03v-6.04m0-4.03v-6.04m0-4v-6.05m0-4.03v-6.04m0-4.03v-6.04m0-4.02v-6.04m0-4.03v-6.03m0-4.02v-6.04m0-4.02v-6.04m0-4.03v-6.03m0-4.03v-6.04m0-4.03v-6.04m0-4.02v-6.04m0-4.02v-6.04m0-4.03v-6.04m0-4.03v-6.04m0-4.03v-6.04m0-4.03v-6.05m0-4.02v-6.04m0-4.03v-6.04m0-4.04v-6.04m0-4.03v-6.05m0-4.02v-6.05m0-4.02v-6.04m0-4.03v-6.05m0-4.03v-6.04m0-4.03v-6.04m0-4v-6.06m0-4.02v-6.04m0-4.03v-6.04m0-4.02v-6.04m0-4.03v-6.03m0-4.02v-6.05m0-4.02v-6.04m0-4.03v-6.03m0-4.03v-6.04m0-4.03v-6.04m0-4.02v-6.03m0-4.03V230m0-4.03v-6.04m0-4.03v-6.04m0-4.03v-6.04m0-4.03v-6.05m0-4.02v-6.04m0-4.03v-6.04m0-4.04v-6.04m0-4.03v-6.05m0-4.02v-6.05m0-4.02v-6.04m0-4.03v-6.05m0-4.03v-6.04m0-4.03V99.1m0-4v-6.05m0-4.03v-6.04m0-4.03V68.9m0-4.02v-6.04m0-4.03v-6.03m0-4.02V38.7m0-4.02v-6.04m0-4.03v-6.03m0-4.03V8.5m0-4.03v-6.04m0-4.02v-6.04m0-4.02v-3.02M-1591.2 611l10-17.33 10 17.32m-10-17.33v8.5" stroke="#3a414a" stroke-width="2" fill="none"/><path d="M-951.23-18.66h-1.94v-1.28h1.94z" stroke="#3a414a" stroke-width=".05" fill="#3a414a"/><path d="M-1120.86 171.36a6 6 0 0 1 6-6h126.1a6 6 0 0 1 6 6v70a6 6 0 0 1-6 6h-126.1a6 6 0 0 1-6-6z" stroke="#3a414a" stroke-width="2" fill="#fff"/><path d="M-1120.86 206.37h138.1" stroke="#3a414a" stroke-width="2" fill="none"/><use xlink:href="#w" transform="matrix(1,0,0,1,-1112.8643786974253,173.3636909481146) translate(26.27180989583333 20.517903645833336)"/><path d="M-1087.25-431.48a6 6 0 0 1 6-6h258.1a6 6 0 0 1 6 6v119a6 6 0 0 1-6 6h-258.1a6 6 0 0 1-6-6z" stroke="#3a414a" stroke-width="2" fill="#fff"/><path d="M-1087.25-396.47h270.1" stroke="#3a414a" stroke-width="2" fill="none"/><g><use xlink:href="#x" transform="matrix(1,0,0,1,-1079.2471032259475,-429.47574114493557) translate(80.46516927083333 20.517903645833336)"/></g><g><use xlink:href="#b" transform="matrix(1,0,0,1,-1075.2471032259475,-388.46988176993557) translate(0 32.51497395833333)"/><use xlink:href="#y" transform="matrix(1,0,0,1,-1075.2471032259475,-388.46988176993557) translate(19.486002604166668 32.51497395833333)"/><use xlink:href="#b" transform="matrix(1,0,0,1,-1075.2471032259475,-388.46988176993557) translate(0 57.520833333333336)"/><use xlink:href="#z" transform="matrix(1,0,0,1,-1075.2471032259475,-388.46988176993557) translate(19.486002604166668 57.520833333333336)"/></g><path d="M-952.2-304.22v3.02m0 4v6.04m0 4.02v6.03m0 4v6.03m0 4.02v6.03m0 4v6.04m0 4.02v6.03m0 4v6.04m0 4.03v6.03m0 4v6.04m0 4.02v6.03m0 4v6.04m0 4v6.03m0 4.02v6.03m0 4.02v3" stroke="#3a414a" stroke-width="2" fill="none"/><path d="M-951.23-304.2h-1.94v-1.28h1.94z" stroke="#3a414a" stroke-width=".05" fill="#3a414a"/><path d="M-942.2-172.52l-10 17.32-10-17.32m10 17.32v-8.5" stroke="#3a414a" stroke-width="2" fill="none"/><defs><path d="M657 26c-323 0-524-166-541-416h195c15 169 171 246 346 246 202 0 356-106 356-265 5-203-294-238-475-293-239-73-380-191-380-389 0-252 224-419 512-419 294 0 499 171 508 396H992c-17-145-151-228-328-228-193 0-321 102-321 242 0 156 175 211 284 241l149 41c160 44 422 134 422 412 0 244-197 432-541 432" id="A"/><path d="M598-1118v154H368v674c0 100 37 144 132 144 23 0 62-6 92-12L629-6c-37 13-88 20-134 20-193 0-307-107-307-290v-688H20v-154h168v-266h180v266h230" id="B"/><path d="M471 26C259 26 90-98 90-318c0-256 228-303 435-329 202-27 287-16 287-108 0-139-79-219-234-219-161 0-248 86-283 164l-173-57c86-203 278-265 451-265 150 0 419 46 419 395V0H815v-152h-12C765-73 660 26 471 26zm31-159c199 0 310-134 310-271v-155c-30 35-226 55-295 64-131 17-246 59-246 186 0 116 97 176 231 176" id="C"/><path d="M628 24c-324 0-524-230-524-574 0-343 198-582 503-582 237 0 487 146 487 559v75H286c9 234 145 362 343 362 132 0 231-58 273-172l174 48C1024-91 857 24 628 24zM287-650h624c-17-190-120-322-304-322-192 0-309 151-320 322" id="D"/><path d="M98-1322v-168h1126v168H757V0H567v-1322H98" id="E"/><path d="M158 0v-1118h174v172h12c41-113 157-188 290-188 26 0 70 2 91 3v181c-11-2-60-10-108-10-161 0-279 109-279 260V0H158" id="F"/><path d="M338-670V0H158v-1118h173l1 207c72-158 192-221 342-221 226 0 378 139 378 422V0H872v-695c0-172-96-275-252-275-161 0-282 109-282 300" id="G"/><path d="M538 24C308 24 148-78 108-271l171-41c32 123 123 178 257 178 156 0 256-77 256-169 0-77-54-128-164-154l-186-44c-203-48-300-148-300-305 0-192 176-326 414-326 230 0 351 112 402 269l-163 42c-31-80-94-158-238-158-133 0-233 69-233 162 0 83 57 129 188 160l169 40c203 48 298 149 298 302 0 196-179 339-441 339" id="H"/><path d="M678-1118v154H420V0H240v-964H20v-154h220v-149c0-194 155-293 318-293 85 0 141 18 168 30l-50 154c-19-6-47-17-97-17-111 0-159 58-159 166v109h258" id="I"/><path d="M613 24c-304 0-509-231-509-576 0-350 205-580 509-580 305 0 511 230 511 580 0 345-206 576-511 576zm0-161c226 0 329-195 329-415 0-222-103-419-329-419-223 0-326 196-326 419 0 220 103 415 326 415" id="J"/><path d="M158 0v-1118h175l1 205c55-151 181-225 313-225 147 0 245 90 285 228 53-141 190-228 352-228 194 0 352 125 352 384V0h-181v-749c0-161-105-225-225-225-151 0-243 103-243 244V0H807v-767c0-124-93-207-219-207-131 0-250 92-250 270V0H158" id="K"/><g id="a"><use transform="matrix(0.010091145833333334,0,0,0.010091145833333334,0,0)" xlink:href="#A"/><use transform="matrix(0.010091145833333334,0,0,0.010091145833333334,13.259765625,0)" xlink:href="#B"/><use transform="matrix(0.010091145833333334,0,0,0.010091145833333334,20.121744791666668,0)" xlink:href="#C"/><use transform="matrix(0.010091145833333334,0,0,0.010091145833333334,31.726562500000004,0)" xlink:href="#B"/><use transform="matrix(0.010091145833333334,0,0,0.010091145833333334,38.285807291666664,0)" xlink:href="#D"/><use transform="matrix(0.010091145833333334,0,0,0.010091145833333334,48.72005208333333,0)" xlink:href="#E"/><use transform="matrix(0.010091145833333334,0,0,0.010091145833333334,60.88997395833333,0)" xlink:href="#F"/><use transform="matrix(0.010091145833333334,0,0,0.010091145833333334,68.67024739583333,0)" xlink:href="#C"/><use transform="matrix(0.010091145833333334,0,0,0.010091145833333334,80.27506510416666,0)" xlink:href="#G"/><use transform="matrix(0.010091145833333334,0,0,0.010091145833333334,92.48535156249999,0)" xlink:href="#H"/><use transform="matrix(0.010091145833333334,0,0,0.010091145833333334,103.39388020833331,0)" xlink:href="#I"/><use transform="matrix(0.010091145833333334,0,0,0.010091145833333334,110.43749999999999,0)" xlink:href="#J"/><use transform="matrix(0.010091145833333334,0,0,0.010091145833333334,122.82942708333333,0)" xlink:href="#F"/><use transform="matrix(0.010091145833333334,0,0,0.010091145833333334,130.9326171875,0)" xlink:href="#K"/><use transform="matrix(0.010091145833333334,0,0,0.010091145833333334,149.0361328125,0)" xlink:href="#D"/><use transform="matrix(0.010091145833333334,0,0,0.010091145833333334,161.0849609375,0)" xlink:href="#F"/></g><path d="M593-100v-404H195v-159h398v-403h169v403h398v159H762v404H593" id="L"/><use transform="matrix(0.010091145833333334,0,0,0.010091145833333334,0,0)" xlink:href="#L" id="b"/><path d="M158 418v-1536h174v179h20c37-59 106-193 324-193 279 0 474 222 474 576 0 356-194 580-473 580-213 0-288-135-325-197h-14v591H158zm492-555c209 0 317-186 317-421 0-232-105-413-317-413-206 0-314 166-314 413 0 249 111 421 314 421" id="M"/><path d="M338-1490V0H158v-1490h180" id="N"/><path d="M140 405l46-156c120 36 205 19 263-150l32-93L54-1118h197c107 313 237 620 324 950 87-331 219-637 326-950h196L606 167c-68 178-176 259-334 259-64 0-113-12-132-21" id="O"/><path d="M218-607c0-325 108-727 258-974h175c-155 315-250 682-250 974 0 265 78 531 250 886H476C306-10 218-315 218-607" id="P"/><path d="M96 279C273-86 346-350 346-607c0-292-95-659-250-974h175c150 246 258 650 258 974 0 297-91 602-258 886H96" id="Q"/><path d="M295 13c-75 0-135-60-135-135s60-135 135-135 135 60 135 135S370 13 295 13zm0-809c-75 0-135-60-135-135s60-135 135-135 135 60 135 135-60 135-135 135" id="R"/><g id="c"><use transform="matrix(0.010091145833333334,0,0,0.010091145833333334,0,0)" xlink:href="#C"/><use transform="matrix(0.010091145833333334,0,0,0.010091145833333334,11.604817708333334,0)" xlink:href="#M"/><use transform="matrix(0.010091145833333334,0,0,0.010091145833333334,24.259114583333336,0)" xlink:href="#M"/><use transform="matrix(0.010091145833333334,0,0,0.010091145833333334,36.913411458333336,0)" xlink:href="#N"/><use transform="matrix(0.010091145833333334,0,0,0.010091145833333334,42.019531250000014,0)" xlink:href="#O"/><use transform="matrix(0.010091145833333334,0,0,0.010091145833333334,53.63444010416667,0)" xlink:href="#P"/><use transform="matrix(0.010091145833333334,0,0,0.010091145833333334,61.17252604166667,0)" xlink:href="#A"/><use transform="matrix(0.010091145833333334,0,0,0.010091145833333334,74.43229166666667,0)" xlink:href="#B"/><use transform="matrix(0.010091145833333334,0,0,0.010091145833333334,81.29427083333333,0)" xlink:href="#C"/><use transform="matrix(0.010091145833333334,0,0,0.010091145833333334,92.89908854166666,0)" xlink:href="#B"/><use transform="matrix(0.010091145833333334,0,0,0.010091145833333334,99.45833333333331,0)" xlink:href="#D"/><use transform="matrix(0.010091145833333334,0,0,0.010091145833333334,111.27506510416664,0)" xlink:href="#Q"/><use transform="matrix(0.010091145833333334,0,0,0.010091145833333334,118.81315104166664,0)" xlink:href="#R"/></g><g id="d"><use transform="matrix(0.010091145833333334,0,0,0.010091145833333334,0,0)" xlink:href="#A"/><use transform="matrix(0.010091145833333334,0,0,0.010091145833333334,13.259765625,0)" xlink:href="#B"/><use transform="matrix(0.010091145833333334,0,0,0.010091145833333334,20.121744791666668,0)" xlink:href="#C"/><use transform="matrix(0.010091145833333334,0,0,0.010091145833333334,31.726562500000004,0)" xlink:href="#B"/><use transform="matrix(0.010091145833333334,0,0,0.010091145833333334,38.285807291666664,0)" xlink:href="#D"/></g><g id="e"><use transform="matrix(0.010091145833333334,0,0,0.010091145833333334,0,0)" xlink:href="#A"/><use transform="matrix(0.010091145833333334,0,0,0.010091145833333334,13.259765625,0)" xlink:href="#B"/><use transform="matrix(0.010091145833333334,0,0,0.010091145833333334,20.121744791666668,0)" xlink:href="#C"/><use transform="matrix(0.010091145833333334,0,0,0.010091145833333334,31.726562500000004,0)" xlink:href="#B"/><use transform="matrix(0.010091145833333334,0,0,0.010091145833333334,38.285807291666664,0)" xlink:href="#D"/></g><path d="M52 0l541-1490h220L1361 0h-200l-149-416H398L254 0H52zm404-582h497c-103-290-145-390-251-756-108 377-145 460-246 756" id="S"/><path d="M613 24c-304 0-509-231-509-576 0-350 205-580 509-580 216 0 392 114 453 309l-173 49c-33-115-133-197-280-197-223 0-326 196-326 419 0 220 103 415 326 415 150 0 252-85 285-206l172 49C1010-95 832 24 613 24" id="T"/><path d="M158 0v-1118h180V0H158zm91-1301c-68 0-125-53-125-119s57-119 125-119c69 0 126 53 126 119s-57 119-126 119" id="U"/><g id="f"><use transform="matrix(0.010091145833333334,0,0,0.010091145833333334,0,0)" xlink:href="#S"/><use transform="matrix(0.010091145833333334,0,0,0.010091145833333334,14.2587890625,0)" xlink:href="#T"/><use transform="matrix(0.010091145833333334,0,0,0.010091145833333334,26.0654296875,0)" xlink:href="#B"/><use transform="matrix(0.010091145833333334,0,0,0.010091145833333334,32.826497395833336,0)" xlink:href="#U"/><use transform="matrix(0.010091145833333334,0,0,0.010091145833333334,37.83170572916667,0)" xlink:href="#J"/><use transform="matrix(0.010091145833333334,0,0,0.010091145833333334,50.2236328125,0)" xlink:href="#G"/></g><path d="M458 0L52-1490h194c108 439 233 855 324 1313 92-459 221-873 331-1313h216c110 438 234 854 330 1307 92-455 216-869 323-1307h196L1558 0h-221l-256-944c-26-95-50-200-73-331-22 122-44 223-73 331L680 0H458" id="V"/><path d="M338-670V0H158v-1490h180v566c73-149 190-208 336-208 226 0 379 139 379 422V0H872v-695c0-172-96-275-252-275-161 0-282 109-282 300" id="W"/><g id="g"><use transform="matrix(0.010091145833333334,0,0,0.010091145833333334,0,0)" xlink:href="#V"/><use transform="matrix(0.010091145833333334,0,0,0.010091145833333334,19.314453125,0)" xlink:href="#D"/><use transform="matrix(0.010091145833333334,0,0,0.010091145833333334,31.565104166666668,0)" xlink:href="#C"/><use transform="matrix(0.010091145833333334,0,0,0.010091145833333334,43.169921875,0)" xlink:href="#B"/><use transform="matrix(0.010091145833333334,0,0,0.010091145833333334,49.930989583333336,0)" xlink:href="#W"/><use transform="matrix(0.010091145833333334,0,0,0.010091145833333334,62.15136718750001,0)" xlink:href="#D"/><use transform="matrix(0.010091145833333334,0,0,0.010091145833333334,74.2001953125,0)" xlink:href="#F"/></g><path d="M180 0v-1490h510c348 0 508 209 508 474 0 266-160 477-507 477H370V0H180zm190-706h312c236 0 327-133 327-310 0-176-91-307-329-307H370v617" id="X"/><g id="h"><use transform="matrix(0.010091145833333334,0,0,0.010091145833333334,0,0)" xlink:href="#X"/><use transform="matrix(0.010091145833333334,0,0,0.010091145833333334,13.19921875,0)" xlink:href="#N"/><use transform="matrix(0.010091145833333334,0,0,0.010091145833333334,18.204427083333336,0)" xlink:href="#C"/><use transform="matrix(0.010091145833333334,0,0,0.010091145833333334,29.50651041666667,0)" xlink:href="#O"/><use transform="matrix(0.010091145833333334,0,0,0.010091145833333334,40.71777343750001,0)" xlink:href="#D"/><use transform="matrix(0.010091145833333334,0,0,0.010091145833333334,52.7666015625,0)" xlink:href="#F"/></g><path d="M158 0v-1490h180v865h22l478-493h223L593-638 1096 0H865L456-523 338-412V0H158" id="Y"/><g id="i"><use transform="matrix(0.010091145833333334,0,0,0.010091145833333334,0,0)" xlink:href="#X"/><use transform="matrix(0.010091145833333334,0,0,0.010091145833333334,13.088216145833334,0)" xlink:href="#J"/><use transform="matrix(0.010091145833333334,0,0,0.010091145833333334,25.480143229166668,0)" xlink:href="#Y"/><use transform="matrix(0.010091145833333334,0,0,0.010091145833333334,36.3583984375,0)" xlink:href="#D"/><use transform="matrix(0.010091145833333334,0,0,0.010091145833333334,48.4072265625,0)" xlink:href="#K"/><use transform="matrix(0.010091145833333334,0,0,0.010091145833333334,66.5107421875,0)" xlink:href="#J"/><use transform="matrix(0.010091145833333334,0,0,0.010091145833333334,78.90266927083333,0)" xlink:href="#G"/></g><path d="M180 0v-1490h270l367 940c28 72 75 218 110 339 35-117 81-264 110-339l362-940h271V0h-187c2-448-5-837 7-1287-157 497-311 829-483 1287H842C666-458 514-784 354-1284c12 438 5 843 7 1284H180" id="Z"/><path d="M481 0L54-1118h197c107 314 236 620 325 951 87-331 217-637 324-951h197L670 0H481" id="aa"/><g id="j"><use transform="matrix(0.010091145833333334,0,0,0.010091145833333334,0,0)" xlink:href="#Z"/><use transform="matrix(0.010091145833333334,0,0,0.010091145833333334,18.668619791666668,0)" xlink:href="#J"/><use transform="matrix(0.010091145833333334,0,0,0.010091145833333334,30.65690104166667,0)" xlink:href="#aa"/><use transform="matrix(0.010091145833333334,0,0,0.010091145833333334,41.868164062500014,0)" xlink:href="#D"/></g><path d="M677 24c-213 0-288-135-325-197h-20V0H158v-1490h180v551h14c37-59 106-193 324-193 279 0 474 222 474 576 0 356-194 580-473 580zm-27-161c209 0 317-186 317-421 0-232-105-413-317-413-206 0-314 166-314 413 0 249 111 421 314 421" id="ab"/><g id="k"><use transform="matrix(0.010091145833333334,0,0,0.010091145833333334,0,0)" xlink:href="#S"/><use transform="matrix(0.010091145833333334,0,0,0.010091145833333334,14.2587890625,0)" xlink:href="#ab"/><use transform="matrix(0.010091145833333334,0,0,0.010091145833333334,26.9130859375,0)" xlink:href="#U"/><use transform="matrix(0.010091145833333334,0,0,0.010091145833333334,31.918294270833336,0)" xlink:href="#N"/><use transform="matrix(0.010091145833333334,0,0,0.010091145833333334,36.92350260416667,0)" xlink:href="#U"/><use transform="matrix(0.010091145833333334,0,0,0.010091145833333334,41.928710937500014,0)" xlink:href="#B"/><use transform="matrix(0.010091145833333334,0,0,0.010091145833333334,49.09342447916668,0)" xlink:href="#O"/></g><path d="M370-1490V0H180v-1490h190" id="ac"/><g id="l"><use transform="matrix(0.010091145833333334,0,0,0.010091145833333334,0,0)" xlink:href="#ac"/><use transform="matrix(0.010091145833333334,0,0,0.010091145833333334,5.852864583333334,0)" xlink:href="#B"/><use transform="matrix(0.010091145833333334,0,0,0.010091145833333334,12.412109375,0)" xlink:href="#D"/><use transform="matrix(0.010091145833333334,0,0,0.010091145833333334,24.4609375,0)" xlink:href="#K"/></g><path d="M154 0v-137l495-537c165-179 249-281 249-418 0-156-121-253-280-253-170 0-278 110-278 278H158c0-264 200-443 465-443 266 0 455 183 455 416 0 161-73 288-336 568L416-179v12h687V0H154" id="ad"/><use transform="matrix(0.008173828125000001,0,0,0.008173828125000001,0,0)" xlink:href="#ad" id="m"/><path d="M577 24c-279 0-473-224-473-580 0-354 195-576 474-576 218 0 287 134 324 193h14v-551h180V0H922v-173h-20C865-111 790 24 577 24zm27-161c203 0 314-172 314-421 0-247-108-413-314-413-212 0-317 181-317 413 0 235 108 421 317 421" id="ae"/><path d="M537 14c-226 0-379-139-379-422v-710h180v695c0 172 97 275 253 275 160 0 281-109 281-300v-670h181V0H879v-209C806-46 684 14 537 14" id="af"/><g id="n"><use transform="matrix(0.010091145833333334,0,0,0.010091145833333334,0,0)" xlink:href="#S"/><use transform="matrix(0.010091145833333334,0,0,0.010091145833333334,14.2587890625,0)" xlink:href="#N"/><use transform="matrix(0.010091145833333334,0,0,0.010091145833333334,19.566731770833336,0)" xlink:href="#B"/><use transform="matrix(0.010091145833333334,0,0,0.010091145833333334,26.1259765625,0)" xlink:href="#D"/><use transform="matrix(0.010091145833333334,0,0,0.010091145833333334,38.1748046875,0)" xlink:href="#F"/><use transform="matrix(0.010091145833333334,0,0,0.010091145833333334,45.61197916666666,0)" xlink:href="#D"/><use transform="matrix(0.010091145833333334,0,0,0.010091145833333334,57.660807291666664,0)" xlink:href="#ae"/><use transform="matrix(0.010091145833333334,0,0,0.010091145833333334,70.31510416666666,0)" xlink:href="#A"/><use transform="matrix(0.010091145833333334,0,0,0.010091145833333334,83.57486979166666,0)" xlink:href="#B"/><use transform="matrix(0.010091145833333334,0,0,0.010091145833333334,90.43684895833331,0)" xlink:href="#C"/><use transform="matrix(0.010091145833333334,0,0,0.010091145833333334,102.04166666666663,0)" xlink:href="#B"/><use transform="matrix(0.010091145833333334,0,0,0.010091145833333334,108.80273437499997,0)" xlink:href="#af"/><use transform="matrix(0.010091145833333334,0,0,0.010091145833333334,121.02311197916664,0)" xlink:href="#H"/></g><path d="M180 0v-1490h908v168H370v486h669v168H370v500h727V0H180" id="ag"/><g id="o"><use transform="matrix(0.010091145833333334,0,0,0.010091145833333334,0,0)" xlink:href="#X"/><use transform="matrix(0.010091145833333334,0,0,0.010091145833333334,13.19921875,0)" xlink:href="#C"/><use transform="matrix(0.010091145833333334,0,0,0.010091145833333334,24.804036458333336,0)" xlink:href="#H"/><use transform="matrix(0.010091145833333334,0,0,0.010091145833333334,35.71256510416667,0)" xlink:href="#H"/><use transform="matrix(0.010091145833333334,0,0,0.010091145833333334,46.62109375,0)" xlink:href="#U"/><use transform="matrix(0.010091145833333334,0,0,0.010091145833333334,51.62630208333334,0)" xlink:href="#aa"/><use transform="matrix(0.010091145833333334,0,0,0.010091145833333334,62.83756510416667,0)" xlink:href="#D"/><use transform="matrix(0.010091145833333334,0,0,0.010091145833333334,74.88639322916667,0)" xlink:href="#ag"/><use transform="matrix(0.010091145833333334,0,0,0.010091145833333334,87.30859375,0)" xlink:href="#I"/><use transform="matrix(0.010091145833333334,0,0,0.010091145833333334,94.150390625,0)" xlink:href="#I"/><use transform="matrix(0.010091145833333334,0,0,0.010091145833333334,101.19401041666667,0)" xlink:href="#D"/><use transform="matrix(0.010091145833333334,0,0,0.010091145833333334,113.24283854166667,0)" xlink:href="#T"/><use transform="matrix(0.010091145833333334,0,0,0.010091145833333334,125.04947916666667,0)" xlink:href="#B"/></g><path d="M611 442c-248 0-391-105-460-228l146-94c47 65 117 165 314 165 178 0 307-82 307-266v-224h-17C863-141 792-18 576-18c-268 0-472-195-472-546 0-346 197-568 476-568 216 0 288 133 326 193h17v-179h175V29c0 289-215 413-487 413zm-5-620c203 0 314-146 314-390 0-237-108-403-314-403-213 0-319 180-319 403 0 230 109 390 319 390" id="ah"/><g id="p"><use transform="matrix(0.010091145833333334,0,0,0.010091145833333334,0,0)" xlink:href="#B"/><use transform="matrix(0.010091145833333334,0,0,0.010091145833333334,6.761067708333334,0)" xlink:href="#F"/><use transform="matrix(0.010091145833333334,0,0,0.010091145833333334,14.8642578125,0)" xlink:href="#U"/><use transform="matrix(0.010091145833333334,0,0,0.010091145833333334,19.869466145833336,0)" xlink:href="#ah"/><use transform="matrix(0.010091145833333334,0,0,0.010091145833333334,32.5439453125,0)" xlink:href="#ah"/><use transform="matrix(0.010091145833333334,0,0,0.010091145833333334,45.21842447916667,0)" xlink:href="#D"/><use transform="matrix(0.010091145833333334,0,0,0.010091145833333334,57.26725260416667,0)" xlink:href="#F"/><use transform="matrix(0.010091145833333334,0,0,0.010091145833333334,65.04752604166667,0)" xlink:href="#P"/><use transform="matrix(0.010091145833333334,0,0,0.010091145833333334,72.58561197916667,0)" xlink:href="#ag"/><use transform="matrix(0.010091145833333334,0,0,0.010091145833333334,85.0078125,0)" xlink:href="#aa"/><use transform="matrix(0.010091145833333334,0,0,0.010091145833333334,96.21907552083334,0)" xlink:href="#D"/><use transform="matrix(0.010091145833333334,0,0,0.010091145833333334,108.26790364583334,0)" xlink:href="#G"/><use transform="matrix(0.010091145833333334,0,0,0.010091145833333334,120.47819010416667,0)" xlink:href="#B"/><use transform="matrix(0.010091145833333334,0,0,0.010091145833333334,127.23925781250001,0)" xlink:href="#Q"/><use transform="matrix(0.010091145833333334,0,0,0.010091145833333334,134.77734375,0)" xlink:href="#R"/></g><g id="q"><use transform="matrix(0.010091145833333334,0,0,0.010091145833333334,0,0)" xlink:href="#A"/><use transform="matrix(0.010091145833333334,0,0,0.010091145833333334,13.259765625,0)" xlink:href="#B"/><use transform="matrix(0.010091145833333334,0,0,0.010091145833333334,20.121744791666668,0)" xlink:href="#C"/><use transform="matrix(0.010091145833333334,0,0,0.010091145833333334,31.726562500000004,0)" xlink:href="#B"/><use transform="matrix(0.010091145833333334,0,0,0.010091145833333334,38.285807291666664,0)" xlink:href="#D"/><use transform="matrix(0.010091145833333334,0,0,0.010091145833333334,48.72005208333333,0)" xlink:href="#E"/><use transform="matrix(0.010091145833333334,0,0,0.010091145833333334,60.88997395833333,0)" xlink:href="#F"/><use transform="matrix(0.010091145833333334,0,0,0.010091145833333334,68.67024739583333,0)" xlink:href="#C"/><use transform="matrix(0.010091145833333334,0,0,0.010091145833333334,80.27506510416666,0)" xlink:href="#G"/><use transform="matrix(0.010091145833333334,0,0,0.010091145833333334,92.48535156249999,0)" xlink:href="#H"/><use transform="matrix(0.010091145833333334,0,0,0.010091145833333334,103.39388020833331,0)" xlink:href="#I"/><use transform="matrix(0.010091145833333334,0,0,0.010091145833333334,110.43749999999999,0)" xlink:href="#J"/><use transform="matrix(0.010091145833333334,0,0,0.010091145833333334,122.82942708333333,0)" xlink:href="#F"/><use transform="matrix(0.010091145833333334,0,0,0.010091145833333334,130.9326171875,0)" xlink:href="#K"/><use transform="matrix(0.010091145833333334,0,0,0.010091145833333334,149.0361328125,0)" xlink:href="#D"/><use transform="matrix(0.010091145833333334,0,0,0.010091145833333334,161.0849609375,0)" xlink:href="#F"/></g><g id="r"><use transform="matrix(0.010091145833333334,0,0,0.010091145833333334,0,0)" xlink:href="#E"/><use transform="matrix(0.010091145833333334,0,0,0.010091145833333334,11.816731770833334,0)" xlink:href="#af"/><use transform="matrix(0.010091145833333334,0,0,0.010091145833333334,24.037109375,0)" xlink:href="#F"/><use transform="matrix(0.010091145833333334,0,0,0.010091145833333334,32.14029947916667,0)" xlink:href="#G"/></g><path d="M180 0v-1490h190v1322h690V0H180" id="ai"/><path d="M226 279v-1860h398v153H398V126h226v153H226" id="aj"/><path d="M123 279V126h226v-1554H123v-153h398V279H123" id="ak"/><path d="M128 359l88-567h206L266 359H128" id="al"/><g id="s"><use transform="matrix(0.010091145833333334,0,0,0.010091145833333334,0,0)" xlink:href="#F"/><use transform="matrix(0.010091145833333334,0,0,0.010091145833333334,7.780273437500001,0)" xlink:href="#af"/><use transform="matrix(0.010091145833333334,0,0,0.010091145833333334,20.000651041666668,0)" xlink:href="#G"/><use transform="matrix(0.010091145833333334,0,0,0.010091145833333334,30.798177083333336,0)" xlink:href="#E"/><use transform="matrix(0.010091145833333334,0,0,0.010091145833333334,42.61490885416667,0)" xlink:href="#af"/><use transform="matrix(0.010091145833333334,0,0,0.010091145833333334,54.83528645833334,0)" xlink:href="#F"/><use transform="matrix(0.010091145833333334,0,0,0.010091145833333334,62.93847656250001,0)" xlink:href="#G"/><use transform="matrix(0.010091145833333334,0,0,0.010091145833333334,75.14876302083334,0)" xlink:href="#P"/><use transform="matrix(0.010091145833333334,0,0,0.010091145833333334,82.68684895833334,0)" xlink:href="#ai"/><use transform="matrix(0.010091145833333334,0,0,0.010091145833333334,94.37239583333334,0)" xlink:href="#U"/><use transform="matrix(0.010091145833333334,0,0,0.010091145833333334,99.37760416666667,0)" xlink:href="#H"/><use transform="matrix(0.010091145833333334,0,0,0.010091145833333334,110.2861328125,0)" xlink:href="#B"/><use transform="matrix(0.010091145833333334,0,0,0.010091145833333334,117.04720052083333,0)" xlink:href="#aj"/><use transform="matrix(0.010091145833333334,0,0,0.010091145833333334,124.58528645833333,0)" xlink:href="#S"/><use transform="matrix(0.010091145833333334,0,0,0.010091145833333334,138.84407552083331,0)" xlink:href="#T"/><use transform="matrix(0.010091145833333334,0,0,0.010091145833333334,150.65071614583331,0)" xlink:href="#B"/><use transform="matrix(0.010091145833333334,0,0,0.010091145833333334,157.41178385416666,0)" xlink:href="#U"/><use transform="matrix(0.010091145833333334,0,0,0.010091145833333334,162.4169921875,0)" xlink:href="#J"/><use transform="matrix(0.010091145833333334,0,0,0.010091145833333334,174.80891927083334,0)" xlink:href="#G"/><use transform="matrix(0.010091145833333334,0,0,0.010091145833333334,187.01920572916669,0)" xlink:href="#ak"/><use transform="matrix(0.010091145833333334,0,0,0.010091145833333334,194.55729166666669,0)" xlink:href="#al"/></g><g id="t"><use transform="matrix(0.010091145833333334,0,0,0.010091145833333334,0,0)" xlink:href="#A"/><use transform="matrix(0.010091145833333334,0,0,0.010091145833333334,13.259765625,0)" xlink:href="#B"/><use transform="matrix(0.010091145833333334,0,0,0.010091145833333334,20.121744791666668,0)" xlink:href="#C"/><use transform="matrix(0.010091145833333334,0,0,0.010091145833333334,31.726562500000004,0)" xlink:href="#B"/><use transform="matrix(0.010091145833333334,0,0,0.010091145833333334,38.285807291666664,0)" xlink:href="#D"/><use transform="matrix(0.010091145833333334,0,0,0.010091145833333334,50.1025390625,0)" xlink:href="#Q"/><use transform="matrix(0.010091145833333334,0,0,0.010091145833333334,57.640625,0)" xlink:href="#R"/></g><g id="u"><use transform="matrix(0.010091145833333334,0,0,0.010091145833333334,0,0)" xlink:href="#P"/><use transform="matrix(0.010091145833333334,0,0,0.010091145833333334,7.5380859375,0)" xlink:href="#A"/><use transform="matrix(0.010091145833333334,0,0,0.010091145833333334,20.7978515625,0)" xlink:href="#B"/><use transform="matrix(0.010091145833333334,0,0,0.010091145833333334,27.659830729166664,0)" xlink:href="#C"/><use transform="matrix(0.010091145833333334,0,0,0.010091145833333334,39.2646484375,0)" xlink:href="#B"/><use transform="matrix(0.010091145833333334,0,0,0.010091145833333334,45.82389322916667,0)" xlink:href="#D"/><use transform="matrix(0.010091145833333334,0,0,0.010091145833333334,57.87272135416667,0)" xlink:href="#al"/></g><path d="M180 0v-1490h510c348 0 508 194 508 460 0 198-88 351-276 417L1256 0h-220L726-579c-117 2-238 0-356 1V0H180zm190-747h312c235 0 327-108 327-283 0-177-92-293-329-293H370v576" id="am"/><g id="v"><use transform="matrix(0.010091145833333334,0,0,0.010091145833333334,0,0)" xlink:href="#am"/><use transform="matrix(0.010091145833333334,0,0,0.010091145833333334,12.997395833333334,0)" xlink:href="#D"/><use transform="matrix(0.010091145833333334,0,0,0.010091145833333334,25.046223958333336,0)" xlink:href="#H"/><use transform="matrix(0.010091145833333334,0,0,0.010091145833333334,35.95475260416667,0)" xlink:href="#af"/><use transform="matrix(0.010091145833333334,0,0,0.010091145833333334,48.17513020833334,0)" xlink:href="#N"/><use transform="matrix(0.010091145833333334,0,0,0.010091145833333334,53.48307291666668,0)" xlink:href="#B"/><use transform="matrix(0.010091145833333334,0,0,0.010091145833333334,60.04231770833334,0)" xlink:href="#H"/><use transform="matrix(0.010091145833333334,0,0,0.010091145833333334,70.95084635416669,0)" xlink:href="#Q"/></g><g id="w"><use transform="matrix(0.010091145833333334,0,0,0.010091145833333334,0,0)" xlink:href="#E"/><use transform="matrix(0.010091145833333334,0,0,0.010091145833333334,12.169921875,0)" xlink:href="#F"/><use transform="matrix(0.010091145833333334,0,0,0.010091145833333334,20.273111979166668,0)" xlink:href="#U"/><use transform="matrix(0.010091145833333334,0,0,0.010091145833333334,25.2783203125,0)" xlink:href="#ah"/><use transform="matrix(0.010091145833333334,0,0,0.010091145833333334,37.95279947916667,0)" xlink:href="#ah"/><use transform="matrix(0.010091145833333334,0,0,0.010091145833333334,50.62727864583334,0)" xlink:href="#D"/><use transform="matrix(0.010091145833333334,0,0,0.010091145833333334,62.67610677083334,0)" xlink:href="#F"/></g><path d="M180 0v-1490h528c311 0 458 177 458 395 0 191-114 278-244 313v14c139 9 302 137 302 371 0 225-148 397-499 397H180zm190-168h350c232 0 321-102 321-231 0-149-120-277-311-277H370v508zm0-668h328c160 0 286-101 286-255 0-129-87-231-280-231H370v486" id="an"/><g id="x"><use transform="matrix(0.010091145833333334,0,0,0.010091145833333334,0,0)" xlink:href="#an"/><use transform="matrix(0.010091145833333334,0,0,0.010091145833333334,13.522135416666668,0)" xlink:href="#C"/><use transform="matrix(0.010091145833333334,0,0,0.010091145833333334,25.126953125,0)" xlink:href="#B"/><use transform="matrix(0.010091145833333334,0,0,0.010091145833333334,31.383463541666664,0)" xlink:href="#B"/><use transform="matrix(0.010091145833333334,0,0,0.010091145833333334,38.14453125,0)" xlink:href="#N"/><use transform="matrix(0.010091145833333334,0,0,0.010091145833333334,43.149739583333336,0)" xlink:href="#D"/><use transform="matrix(0.010091145833333334,0,0,0.010091145833333334,54.502278645833336,0)" xlink:href="#S"/><use transform="matrix(0.010091145833333334,0,0,0.010091145833333334,68.76106770833334,0)" xlink:href="#M"/><use transform="matrix(0.010091145833333334,0,0,0.010091145833333334,81.41536458333334,0)" xlink:href="#M"/></g><g id="y"><use transform="matrix(0.010091145833333334,0,0,0.010091145833333334,0,0)" xlink:href="#T"/><use transform="matrix(0.010091145833333334,0,0,0.010091145833333334,11.806640625,0)" xlink:href="#W"/><use transform="matrix(0.010091145833333334,0,0,0.010091145833333334,24.027018229166668,0)" xlink:href="#J"/><use transform="matrix(0.010091145833333334,0,0,0.010091145833333334,36.4189453125,0)" xlink:href="#J"/><use transform="matrix(0.010091145833333334,0,0,0.010091145833333334,48.810872395833336,0)" xlink:href="#H"/><use transform="matrix(0.010091145833333334,0,0,0.010091145833333334,59.71940104166667,0)" xlink:href="#D"/><use transform="matrix(0.010091145833333334,0,0,0.010091145833333334,71.07194010416667,0)" xlink:href="#S"/><use transform="matrix(0.010091145833333334,0,0,0.010091145833333334,85.33072916666667,0)" xlink:href="#T"/><use transform="matrix(0.010091145833333334,0,0,0.010091145833333334,97.13736979166667,0)" xlink:href="#B"/><use transform="matrix(0.010091145833333334,0,0,0.010091145833333334,103.8984375,0)" xlink:href="#U"/><use transform="matrix(0.010091145833333334,0,0,0.010091145833333334,108.90364583333331,0)" xlink:href="#J"/><use transform="matrix(0.010091145833333334,0,0,0.010091145833333334,121.29557291666666,0)" xlink:href="#G"/><use transform="matrix(0.010091145833333334,0,0,0.010091145833333334,133.505859375,0)" xlink:href="#P"/><use transform="matrix(0.010091145833333334,0,0,0.010091145833333334,141.0439453125,0)" xlink:href="#S"/><use transform="matrix(0.010091145833333334,0,0,0.010091145833333334,155.302734375,0)" xlink:href="#T"/><use transform="matrix(0.010091145833333334,0,0,0.010091145833333334,167.109375,0)" xlink:href="#B"/><use transform="matrix(0.010091145833333334,0,0,0.010091145833333334,173.87044270833334,0)" xlink:href="#U"/><use transform="matrix(0.010091145833333334,0,0,0.010091145833333334,178.87565104166669,0)" xlink:href="#J"/><use transform="matrix(0.010091145833333334,0,0,0.010091145833333334,191.267578125,0)" xlink:href="#G"/><use transform="matrix(0.010091145833333334,0,0,0.010091145833333334,203.47786458333337,0)" xlink:href="#Q"/></g><path d="M409 0L70-1118h191c89 329 165 560 243 925 75-353 154-601 240-925h192c85 325 161 564 235 922 77-354 157-598 244-922h191L1267 0h-179c-86-307-176-590-250-913C763-588 675-308 588 0H409" id="ao"/><g id="z"><use transform="matrix(0.010091145833333334,0,0,0.010091145833333334,0,0)" xlink:href="#H"/><use transform="matrix(0.010091145833333334,0,0,0.010091145833333334,10.908528645833334,0)" xlink:href="#W"/><use transform="matrix(0.010091145833333334,0,0,0.010091145833333334,23.12890625,0)" xlink:href="#J"/><use transform="matrix(0.010091145833333334,0,0,0.010091145833333334,35.1474609375,0)" xlink:href="#ao"/><use transform="matrix(0.010091145833333334,0,0,0.010091145833333334,52.06022135416667,0)" xlink:href="#am"/><use transform="matrix(0.010091145833333334,0,0,0.010091145833333334,65.0576171875,0)" xlink:href="#D"/><use transform="matrix(0.010091145833333334,0,0,0.010091145833333334,77.1064453125,0)" xlink:href="#H"/><use transform="matrix(0.010091145833333334,0,0,0.010091145833333334,88.01497395833331,0)" xlink:href="#af"/><use transform="matrix(0.010091145833333334,0,0,0.010091145833333334,100.2353515625,0)" xlink:href="#N"/><use transform="matrix(0.010091145833333334,0,0,0.010091145833333334,105.54329427083331,0)" xlink:href="#B"/><use transform="matrix(0.010091145833333334,0,0,0.010091145833333334,112.10253906249999,0)" xlink:href="#H"/><use transform="matrix(0.010091145833333334,0,0,0.010091145833333334,123.01106770833333,0)" xlink:href="#P"/><use transform="matrix(0.010091145833333334,0,0,0.010091145833333334,130.54915364583331,0)" xlink:href="#am"/><use transform="matrix(0.010091145833333334,0,0,0.010091145833333334,143.54654947916666,0)" xlink:href="#D"/><use transform="matrix(0.010091145833333334,0,0,0.010091145833333334,155.59537760416666,0)" xlink:href="#H"/><use transform="matrix(0.010091145833333334,0,0,0.010091145833333334,166.50390625,0)" xlink:href="#af"/><use transform="matrix(0.010091145833333334,0,0,0.010091145833333334,178.72428385416663,0)" xlink:href="#N"/><use transform="matrix(0.010091145833333334,0,0,0.010091145833333334,184.0322265625,0)" xlink:href="#B"/><use transform="matrix(0.010091145833333334,0,0,0.010091145833333334,190.59147135416669,0)" xlink:href="#H"/><use transform="matrix(0.010091145833333334,0,0,0.010091145833333334,201.5,0)" xlink:href="#Q"/></g></defs></g></svg>