<svg xmlns="http://www.w3.org/2000/svg" xmlns:xlink="http://www.w3.org/1999/xlink" xmlns:lucid="lucid" width="1264" height="284"><g transform="translate(19 -1630)" lucid:page-tab-id="0_0"><path d="M-2000-500h3500v3500h-3500z" fill="#fff"/><path d="M29.6 1755.3c-15.24 0-27.6 12.36-27.6 27.6v82.8c0 15.25 12.36 27.6 27.6 27.6h166.8c15.24 0 27.6-12.35 27.6-27.6v-82.8c0-15.24-12.36-27.6-27.6-27.6z" stroke="#3a414a" stroke-width="2" fill="#fff"/><path d="M16 1833.2a6 6 0 0 1 6-6h182a6 6 0 0 1 6 6v43.8a6 6 0 0 1-6 6H22a6 6 0 0 1-6-6z" stroke="#3a414a" stroke-width="2" fill="#fff"/><use xlink:href="#a" transform="matrix(1,0,0,1,16,1827.2043041752904) translate(61.23026041666667 35.96527777777778)"/><path d="M16 1771.92a6 6 0 0 1 6-6h182a6 6 0 0 1 6 6v43.8a6 6 0 0 1-6 6H22a6 6 0 0 1-6-6z" stroke="#3a414a" stroke-width="2" fill="#fff"/><use xlink:href="#b" transform="matrix(1,0,0,1,16,1765.9239985714926) translate(40.266718749999995 35.96527777777778)"/><path d="M272.73 1755.03a6 6 0 0 1 6-6h167.35a6 6 0 0 1 6 6v24.9a6 6 0 0 1-6 6H278.73a6 6 0 0 1-6-6z" fill="none"/><use xlink:href="#c" transform="matrix(1,0,0,1,277.73333333333267,1754.0259777381593) translate(0 21.58376736111111)"/><path d="M510.47 1742.6c-16.64 0-30.14 13.5-30.14 30.15v90.42c0 16.64 13.5 30.14 30.14 30.14h188.66c16.64 0 30.14-13.5 30.14-30.13v-90.42c0-16.65-13.5-30.14-30.14-30.14z" stroke="#3a414a" stroke-width="2" fill="#fff"/><path d="M507.8 1833.2a6 6 0 0 1 6-6h182a6 6 0 0 1 6 6v43.8a6 6 0 0 1-6 6h-182a6 6 0 0 1-6-6z" stroke="#3a414a" stroke-width="2" fill="#fff"/><use xlink:href="#a" transform="matrix(1,0,0,1,507.7999999999993,1827.2043041752904) translate(61.23026041666667 35.96527777777778)"/><path d="M505.8 1855.1h-3.04m-4.05 0h-6.07m-4.05 0h-6.08m-4.05 0h-6.08m-4.06 0h-6.06m-4.06 0h-6.07m-4.05 0h-6.08m-4.05 0h-6.08m-4.05 0h-6.1m-4.04 0h-6.08m-4.05 0h-6.08m-4.05 0h-6.08m-4.05 0h-6.08m-4.06 0h-6.08m-4.06 0h-6.07m-4.06 0h-6.07m-4.06 0h-6.08m-4.05 0h-6.07m-4.05 0h-6.08m-4.05 0h-6.08m-4.05 0h-6.08m-4.05 0H290m-4.04 0h-6.08m-4.05 0h-6.08m-4.06 0h-6.08m-4.06 0h-6.07m-4.07 0h-6.08m-4.05 0h-6.08m-4.05 0h-6.08m-4.06 0H212" stroke="#3a414a" stroke-width="2" fill="none"/><path d="M506.8 1856.08h-1.03v-1.95h1.03zM212.03 1856.08H211v-1.95h1.03z" stroke="#3a414a" stroke-width=".05" fill="#3a414a"/><path d="M212 1793.82h270.4" stroke="#3a414a" stroke-width="2" fill="none"/><path d="M212.03 1794.8H211v-1.95h1.03z" stroke="#3a414a" stroke-width=".05" fill="#3a414a"/><path d="M473.48 1783.82l17.32 10-17.32 10m17.32-10h-8.5" stroke="#3a414a" stroke-width="2" fill="none"/><path d="M729.27 1821.72a6 6 0 0 1 6-6h245.97a6 6 0 0 1 6 6v24.9a6 6 0 0 1-6 6H735.27a6 6 0 0 1-6-6z" fill="none"/><use xlink:href="#d" transform="matrix(1,0,0,1,734.2677186853202,1820.7195214752232) translate(0 21.58376736111111)"/><path d="M1024.74 1742.6c-16.65 0-30.14 13.5-30.14 30.15v90.42c0 16.64 13.5 30.14 30.14 30.14h161.72c16.65 0 30.14-13.5 30.14-30.13v-90.42c0-16.65-13.5-30.14-30.14-30.14z" stroke="#3a414a" stroke-width="2" fill="#fff"/><path d="M1008.6 1833.2a6 6 0 0 1 6-6h182a6 6 0 0 1 6 6v43.8a6 6 0 0 1-6 6h-182a6 6 0 0 1-6-6z" stroke="#3a414a" stroke-width="2" fill="#fff"/><use xlink:href="#a" transform="matrix(1,0,0,1,1008.5999999999985,1827.2043041752904) translate(61.23026041666667 35.96527777777778)"/><path d="M1008.6 1759.8a6 6 0 0 1 6-6h182a6 6 0 0 1 6 6v43.8a6 6 0 0 1-6 6h-182a6 6 0 0 1-6-6z" stroke="#3a414a" stroke-width="2" fill="#fff"/><use xlink:href="#b" transform="matrix(1,0,0,1,1008.5999999999985,1753.7931957540422) translate(40.266718749999995 35.96527777777778)"/><path d="M703.8 1855.1h293.4" stroke="#3a414a" stroke-width="2" fill="none"/><path d="M703.83 1856.08h-1.03v-1.95h1.03z" stroke="#3a414a" stroke-width=".05" fill="#3a414a"/><path d="M988.28 1845.1l17.32 10-17.32 10m17.32-10h-8.5" stroke="#3a414a" stroke-width="2" fill="none"/><path d="M507.8 1683.34a6 6 0 0 1 6-6h182a6 6 0 0 1 6 6v43.8a6 6 0 0 1-6 6h-182a6 6 0 0 1-6-6z" stroke="#3a414a" stroke-width="2" fill="#fff"/><use xlink:href="#e" transform="matrix(1,0,0,1,507.7999999999993,1677.3385422810088) translate(37.59744791666667 35.96527777777778)"/><use xlink:href="#f" transform="matrix(1,0,0,1,507.7999999999993,1677.3385422810088) translate(86.10005208333334 35.96527777777778)"/><path d="M507.8 1759.8a6 6 0 0 1 6-6h182a6 6 0 0 1 6 6v43.8a6 6 0 0 1-6 6h-182a6 6 0 0 1-6-6z" stroke="#3a414a" stroke-width="2" fill="#fff"/><use xlink:href="#b" transform="matrix(1,0,0,1,507.7999999999993,1753.7931957540422) translate(40.266718749999995 35.96527777777778)"/><path d="M494.87 1662.9a6 6 0 0 1 6-6h207.86a6 6 0 0 1 6 6v149.5a6 6 0 0 1-6 6H500.87a6 6 0 0 1-6-6z" stroke="#3a414a" stroke-width="2" fill-opacity="0"/><path d="M703.8 1781.7h3.03m4.03 0h6.06m4.04 0H727m4.05 0h6.06m4.04 0h6.06m4.04 0h6.05m4.03 0h6.06m4.02 0h6.06m4.04 0h6.06m4.03 0h6.07m4.04 0h6.06m4.04 0h6.06m4.03 0h6.05m4.03 0h6.06m4.04 0h6.05m4.04 0h6.06m4.03 0h6.06m4.04 0h6.05m4.05 0h6.06m4.04 0h6.06m4.04 0h6.06m4.03 0h6.06m4.03 0h6.05m4.04 0h6.06m4.03 0h6.07m4.03 0h6.06m4.04 0h6.05m4.04 0h6.05m4.03 0h6.06m4.04 0h6.05m4.04 0h3.03" stroke="#3a414a" stroke-width="2" fill="none"/><path d="M703.83 1782.67h-1.03v-1.95h1.03zM1007.6 1782.67h-1.03v-1.95h1.03z" stroke="#3a414a" stroke-width=".05" fill="#3a414a"/><defs><path d="M600 0L52-1490h200c166 485 304 806 458 1336 156-533 285-846 449-1336h202L819 0H600" id="g"/><path d="M158 0v-1118h180V0H158zm91-1301c-68 0-125-53-125-119s57-119 125-119c69 0 126 53 126 119s-57 119-126 119" id="h"/><path d="M628 24c-324 0-524-230-524-574 0-343 198-582 503-582 237 0 487 146 487 559v75H286c9 234 145 362 343 362 132 0 231-58 273-172l174 48C1024-91 857 24 628 24zM287-650h624c-17-190-120-322-304-322-192 0-309 151-320 322" id="i"/><path d="M409 0L70-1118h191c89 329 165 560 243 925 75-353 154-601 240-925h192c85 325 161 564 235 922 77-354 157-598 244-922h191L1267 0h-179c-86-307-176-590-250-913C763-588 675-308 588 0H409" id="j"/><path d="M295 13c-75 0-135-60-135-135s60-135 135-135 135 60 135 135S370 13 295 13" id="k"/><g id="a"><use transform="matrix(0.010850694444444444,0,0,0.010850694444444444,0,0)" xlink:href="#g"/><use transform="matrix(0.010850694444444444,0,0,0.010850694444444444,15.33203125,0)" xlink:href="#h"/><use transform="matrix(0.010850694444444444,0,0,0.010850694444444444,20.713975694444443,0)" xlink:href="#i"/><use transform="matrix(0.010850694444444444,0,0,0.010850694444444444,33.268229166666664,0)" xlink:href="#j"/><use transform="matrix(0.010850694444444444,0,0,0.010850694444444444,49.81553819444444,0)" xlink:href="#k"/><use transform="matrix(0.010850694444444444,0,0,0.010850694444444444,56.217447916666664,0)" xlink:href="#g"/></g><path d="M180 0v-1490h528c311 0 458 177 458 395 0 191-114 278-244 313v14c139 9 302 137 302 371 0 225-148 397-499 397H180zm190-168h350c232 0 321-102 321-231 0-149-120-277-311-277H370v508zm0-668h328c160 0 286-101 286-255 0-129-87-231-280-231H370v486" id="l"/><path d="M471 26C259 26 90-98 90-318c0-256 228-303 435-329 202-27 287-16 287-108 0-139-79-219-234-219-161 0-248 86-283 164l-173-57c86-203 278-265 451-265 150 0 419 46 419 395V0H815v-152h-12C765-73 660 26 471 26zm31-159c199 0 310-134 310-271v-155c-30 35-226 55-295 64-131 17-246 59-246 186 0 116 97 176 231 176" id="m"/><path d="M598-1118v154H368v674c0 100 37 144 132 144 23 0 62-6 92-12L629-6c-37 13-88 20-134 20-193 0-307-107-307-290v-688H20v-154h168v-266h180v266h230" id="n"/><path d="M338-1490V0H158v-1490h180" id="o"/><path d="M657 26c-323 0-524-166-541-416h195c15 169 171 246 346 246 202 0 356-106 356-265 5-203-294-238-475-293-239-73-380-191-380-389 0-252 224-419 512-419 294 0 499 171 508 396H992c-17-145-151-228-328-228-193 0-321 102-321 242 0 156 175 211 284 241l149 41c160 44 422 134 422 412 0 244-197 432-541 432" id="p"/><g id="b"><use transform="matrix(0.010850694444444444,0,0,0.010850694444444444,0,0)" xlink:href="#l"/><use transform="matrix(0.010850694444444444,0,0,0.010850694444444444,14.539930555555555,0)" xlink:href="#m"/><use transform="matrix(0.010850694444444444,0,0,0.010850694444444444,27.018229166666664,0)" xlink:href="#n"/><use transform="matrix(0.010850694444444444,0,0,0.010850694444444444,33.74565972222222,0)" xlink:href="#n"/><use transform="matrix(0.010850694444444444,0,0,0.010850694444444444,41.015625,0)" xlink:href="#o"/><use transform="matrix(0.010850694444444444,0,0,0.010850694444444444,46.39756944444444,0)" xlink:href="#i"/><use transform="matrix(0.010850694444444444,0,0,0.010850694444444444,59.35329861111111,0)" xlink:href="#p"/><use transform="matrix(0.010850694444444444,0,0,0.010850694444444444,73.61111111111111,0)" xlink:href="#n"/><use transform="matrix(0.010850694444444444,0,0,0.010850694444444444,80.98958333333333,0)" xlink:href="#m"/><use transform="matrix(0.010850694444444444,0,0,0.010850694444444444,93.46788194444444,0)" xlink:href="#n"/><use transform="matrix(0.010850694444444444,0,0,0.010850694444444444,100.52083333333333,0)" xlink:href="#i"/></g><path d="M613 24c-304 0-509-231-509-576 0-350 205-580 509-580 305 0 511 230 511 580 0 345-206 576-511 576zm0-161c226 0 329-195 329-415 0-222-103-419-329-419-223 0-326 196-326 419 0 220 103 415 326 415" id="q"/><path d="M338-670V0H158v-1118h173l1 207c72-158 192-221 342-221 226 0 378 139 378 422V0H872v-695c0-172-96-275-252-275-161 0-282 109-282 300" id="r"/><path d="M180 0v-1490h901v168H370v510h643v168H370V0H180" id="s"/><path d="M158 0v-1118h174v172h12c41-113 157-188 290-188 26 0 70 2 91 3v181c-11-2-60-10-108-10-161 0-279 109-279 260V0H158" id="t"/><path d="M538 24C308 24 148-78 108-271l171-41c32 123 123 178 257 178 156 0 256-77 256-169 0-77-54-128-164-154l-186-44c-203-48-300-148-300-305 0-192 176-326 414-326 230 0 351 112 402 269l-163 42c-31-80-94-158-238-158-133 0-233 69-233 162 0 83 57 129 188 160l169 40c203 48 298 149 298 302 0 196-179 339-441 339" id="u"/><path d="M218-607c0-325 108-727 258-974h175c-155 315-250 682-250 974 0 265 78 531 250 886H476C306-10 218-315 218-607" id="v"/><path d="M537 14c-226 0-379-139-379-422v-710h180v695c0 172 97 275 253 275 160 0 281-109 281-300v-670h181V0H879v-209C806-46 684 14 537 14" id="w"/><path d="M98-1322v-168h1126v168H757V0H567v-1322H98" id="x"/><path d="M96 279C273-86 346-350 346-607c0-292-95-659-250-974h175c150 246 258 650 258 974 0 297-91 602-258 886H96" id="y"/><g id="c"><use transform="matrix(0.010850694444444444,0,0,0.010850694444444444,0,0)" xlink:href="#q"/><use transform="matrix(0.010850694444444444,0,0,0.010850694444444444,13.324652777777777,0)" xlink:href="#r"/><use transform="matrix(0.010850694444444444,0,0,0.010850694444444444,26.453993055555554,0)" xlink:href="#s"/><use transform="matrix(0.010850694444444444,0,0,0.010850694444444444,39.572482638888886,0)" xlink:href="#h"/><use transform="matrix(0.010850694444444444,0,0,0.010850694444444444,44.95442708333333,0)" xlink:href="#t"/><use transform="matrix(0.010850694444444444,0,0,0.010850694444444444,53.320312499999986,0)" xlink:href="#u"/><use transform="matrix(0.010850694444444444,0,0,0.010850694444444444,65.04991319444444,0)" xlink:href="#n"/><use transform="matrix(0.010850694444444444,0,0,0.010850694444444444,72.31987847222221,0)" xlink:href="#v"/><use transform="matrix(0.010850694444444444,0,0,0.010850694444444444,80.42534722222221,0)" xlink:href="#t"/><use transform="matrix(0.010850694444444444,0,0,0.010850694444444444,88.79123263888889,0)" xlink:href="#w"/><use transform="matrix(0.010850694444444444,0,0,0.010850694444444444,101.93142361111111,0)" xlink:href="#r"/><use transform="matrix(0.010850694444444444,0,0,0.010850694444444444,113.54166666666666,0)" xlink:href="#x"/><use transform="matrix(0.010850694444444444,0,0,0.010850694444444444,126.2478298611111,0)" xlink:href="#w"/><use transform="matrix(0.010850694444444444,0,0,0.010850694444444444,139.38802083333331,0)" xlink:href="#t"/><use transform="matrix(0.010850694444444444,0,0,0.010850694444444444,148.1011284722222,0)" xlink:href="#r"/><use transform="matrix(0.010850694444444444,0,0,0.010850694444444444,161.23046874999997,0)" xlink:href="#y"/></g><path d="M613 24c-304 0-509-231-509-576 0-350 205-580 509-580 216 0 392 114 453 309l-173 49c-33-115-133-197-280-197-223 0-326 196-326 419 0 220 103 415 326 415 150 0 252-85 285-206l172 49C1010-95 832 24 613 24" id="z"/><path d="M577 24c-279 0-473-224-473-580 0-354 195-576 474-576 218 0 287 134 324 193h14v-551h180V0H922v-173h-20C865-111 790 24 577 24zm27-161c203 0 314-172 314-421 0-247-108-413-314-413-212 0-317 181-317 413 0 235 108 421 317 421" id="A"/><path d="M678-1118v154H420V0H240v-964H20v-154h220v-149c0-194 155-293 318-293 85 0 141 18 168 30l-50 154c-19-6-47-17-97-17-111 0-159 58-159 166v109h258" id="B"/><path d="M338-670V0H158v-1490h180v566c73-149 190-208 336-208 226 0 379 139 379 422V0H872v-695c0-172-96-275-252-275-161 0-282 109-282 300" id="C"/><g id="d"><use transform="matrix(0.010850694444444444,0,0,0.010850694444444444,0,0)" xlink:href="#q"/><use transform="matrix(0.010850694444444444,0,0,0.010850694444444444,13.324652777777777,0)" xlink:href="#r"/><use transform="matrix(0.010850694444444444,0,0,0.010850694444444444,26.453993055555554,0)" xlink:href="#p"/><use transform="matrix(0.010850694444444444,0,0,0.010850694444444444,40.71180555555556,0)" xlink:href="#i"/><use transform="matrix(0.010850694444444444,0,0,0.010850694444444444,53.66753472222222,0)" xlink:href="#z"/><use transform="matrix(0.010850694444444444,0,0,0.010850694444444444,66.36284722222223,0)" xlink:href="#q"/><use transform="matrix(0.010850694444444444,0,0,0.010850694444444444,79.6875,0)" xlink:href="#r"/><use transform="matrix(0.010850694444444444,0,0,0.010850694444444444,92.81684027777777,0)" xlink:href="#A"/><use transform="matrix(0.010850694444444444,0,0,0.010850694444444444,106.42361111111111,0)" xlink:href="#v"/><use transform="matrix(0.010850694444444444,0,0,0.010850694444444444,114.5290798611111,0)" xlink:href="#t"/><use transform="matrix(0.010850694444444444,0,0,0.010850694444444444,122.52604166666666,0)" xlink:href="#i"/><use transform="matrix(0.010850694444444444,0,0,0.010850694444444444,135.48177083333331,0)" xlink:href="#B"/><use transform="matrix(0.010850694444444444,0,0,0.010850694444444444,143.7065972222222,0)" xlink:href="#t"/><use transform="matrix(0.010850694444444444,0,0,0.010850694444444444,151.70355902777774,0)" xlink:href="#i"/><use transform="matrix(0.010850694444444444,0,0,0.010850694444444444,164.6592881944444,0)" xlink:href="#u"/><use transform="matrix(0.010850694444444444,0,0,0.010850694444444444,176.38888888888886,0)" xlink:href="#C"/><use transform="matrix(0.010850694444444444,0,0,0.010850694444444444,188.40060763888883,0)" xlink:href="#g"/><use transform="matrix(0.010850694444444444,0,0,0.010850694444444444,203.73263888888883,0)" xlink:href="#h"/><use transform="matrix(0.010850694444444444,0,0,0.010850694444444444,209.11458333333331,0)" xlink:href="#i"/><use transform="matrix(0.010850694444444444,0,0,0.010850694444444444,221.66883680555551,0)" xlink:href="#j"/><use transform="matrix(0.010850694444444444,0,0,0.010850694444444444,239.8546006944444,0)" xlink:href="#y"/></g><g id="e"><use transform="matrix(0.010850694444444444,0,0,0.010850694444444444,0,0)" xlink:href="#n"/><use transform="matrix(0.010850694444444444,0,0,0.010850694444444444,7.269965277777778,0)" xlink:href="#w"/><use transform="matrix(0.010850694444444444,0,0,0.010850694444444444,20.41015625,0)" xlink:href="#t"/><use transform="matrix(0.010850694444444444,0,0,0.010850694444444444,29.12326388888889,0)" xlink:href="#r"/></g><g id="f"><use transform="matrix(0.010850694444444444,0,0,0.010850694444444444,0,0)" xlink:href="#t"/><use transform="matrix(0.010850694444444444,0,0,0.010850694444444444,7.996961805555555,0)" xlink:href="#i"/><use transform="matrix(0.010850694444444444,0,0,0.010850694444444444,20.95269097222222,0)" xlink:href="#u"/><use transform="matrix(0.010850694444444444,0,0,0.010850694444444444,32.682291666666664,0)" xlink:href="#w"/><use transform="matrix(0.010850694444444444,0,0,0.010850694444444444,45.822482638888886,0)" xlink:href="#o"/><use transform="matrix(0.010850694444444444,0,0,0.010850694444444444,51.529947916666664,0)" xlink:href="#n"/><use transform="matrix(0.010850694444444444,0,0,0.010850694444444444,58.58289930555555,0)" xlink:href="#u"/></g></defs></g></svg>